<svg xmlns="http://www.w3.org/2000/svg" xmlns:xlink="http://www.w3.org/1999/xlink" width="108" height="108" viewBox="0 0 108 108">
  <defs>
    <filter id="Trazado_982547" x="0" y="0" width="108" height="108" filterUnits="userSpaceOnUse">
      <feOffset dy="3" input="SourceAlpha"/>
      <feGaussianBlur stdDeviation="3" result="blur"/>
      <feFlood flood-opacity="0.161"/>
      <feComposite operator="in" in2="blur"/>
      <feComposite in="SourceGraphic"/>
    </filter>
  </defs>
  <g id="Grupo_1162681" data-name="Grupo 1162681" transform="translate(-903 -4774)">
    <g id="Grupo_1162118" data-name="Grupo 1162118" transform="translate(0 1336)">
      <g id="Grupo_1160643" data-name="Grupo 1160643" transform="translate(0 2554)">
        <g id="Grupo_1149837" data-name="Grupo 1149837" transform="translate(0 -3975)">
          <g id="Grupo_1149675" data-name="Grupo 1149675" transform="translate(157 -2821)">
            <g id="Grupo_1148534" data-name="Grupo 1148534" transform="translate(156 4253)">
              <g id="Grupo_1147066" data-name="Grupo 1147066" transform="translate(-26 -556)">
                <g transform="matrix(1, 0, 0, 1, 616, 3983)" filter="url(#Trazado_982547)">
                  <g id="Trazado_982547-2" data-name="Trazado 982547" transform="translate(9 6)" fill="#f6edfd">
                    <path d="M 45 88.5 C 39.12687683105469 88.5 33.43022537231445 87.35007476806641 28.06830024719238 85.08217620849609 C 22.88852500915527 82.89131164550781 18.23629951477051 79.75458526611328 14.2408504486084 75.75914764404297 C 10.24541282653809 71.76370239257812 7.108687400817871 67.11147308349609 4.917825222015381 61.93170166015625 C 2.649924993515015 56.56977462768555 1.5 50.87312316894531 1.5 45 C 1.5 39.12687683105469 2.649924993515015 33.43022537231445 4.917825222015381 28.06830024719238 C 7.108687400817871 22.88852500915527 10.24541282653809 18.23629951477051 14.2408504486084 14.2408504486084 C 18.23629951477051 10.24541282653809 22.88852500915527 7.108687400817871 28.06830024719238 4.917825222015381 C 33.43022537231445 2.649924993515015 39.12687683105469 1.5 45 1.5 C 50.87312316894531 1.5 56.56977462768555 2.649924993515015 61.93170166015625 4.917825222015381 C 67.11147308349609 7.108687400817871 71.76370239257812 10.24541282653809 75.75914764404297 14.2408504486084 C 79.75458526611328 18.23629951477051 82.89131164550781 22.88852500915527 85.08217620849609 28.06830024719238 C 87.35007476806641 33.43022537231445 88.5 39.12687683105469 88.5 45 C 88.5 50.87312316894531 87.35007476806641 56.56977462768555 85.08217620849609 61.93170166015625 C 82.89131164550781 67.11147308349609 79.75458526611328 71.76370239257812 75.75914764404297 75.75914764404297 C 71.76370239257812 79.75458526611328 67.11147308349609 82.89131164550781 61.93170166015625 85.08217620849609 C 56.56977462768555 87.35007476806641 50.87312316894531 88.5 45 88.5 Z" stroke="none"/>
                    <path d="M 45 3 C 39.32871246337891 3 33.82865524291992 4.110054016113281 28.65262985229492 6.299339294433594 C 23.65165710449219 8.414573669433594 19.15968322753906 11.44334411621094 15.301513671875 15.301513671875 C 11.44334411621094 19.15968322753906 8.414573669433594 23.65165710449219 6.299339294433594 28.65262985229492 C 4.110054016113281 33.82865524291992 3 39.32871246337891 3 45 C 3 50.67128753662109 4.110054016113281 56.17134475708008 6.299339294433594 61.34737396240234 C 8.414573669433594 66.34834289550781 11.44334411621094 70.84031677246094 15.301513671875 74.698486328125 C 19.15968322753906 78.55665588378906 23.65165710449219 81.58542633056641 28.65262985229492 83.70066070556641 C 33.82865524291992 85.88994598388672 39.32871246337891 87 45 87 C 50.67128753662109 87 56.17134475708008 85.88994598388672 61.34737396240234 83.70066070556641 C 66.34834289550781 81.58542633056641 70.84031677246094 78.55665588378906 74.698486328125 74.698486328125 C 78.55665588378906 70.84031677246094 81.58542633056641 66.34834289550781 83.70066070556641 61.34737396240234 C 85.88994598388672 56.17134475708008 87 50.67128753662109 87 45 C 87 39.32871246337891 85.88994598388672 33.82865524291992 83.70066070556641 28.65262985229492 C 81.58542633056641 23.65165710449219 78.55665588378906 19.15968322753906 74.698486328125 15.301513671875 C 70.84031677246094 11.44334411621094 66.34834289550781 8.414573669433594 61.34737396240234 6.299339294433594 C 56.17134475708008 4.110054016113281 50.67128753662109 3 45 3 M 45 0 C 69.85281372070312 0 90 20.14718627929688 90 45 C 90 69.85281372070312 69.85281372070312 90 45 90 C 20.14718627929688 90 0 69.85281372070312 0 45 C 0 20.14718627929688 20.14718627929688 0 45 0 Z" stroke="none" fill="#ac59f1"/>
                  </g>
                </g>
              </g>
            </g>
          </g>
        </g>
      </g>
    </g>
    <g id="sonido" transform="translate(924 4747.011)">
      <g id="Grupo_1162679" data-name="Grupo 1162679" transform="translate(0.831 51.85)">
        <path id="Trazado_996813" data-name="Trazado 996813" d="M129.345,57.89,111.032,70.634l-.37.975h-3.633V94.721h3.693l.31,1.136L129.345,108.6a1.52,1.52,0,0,0,2.389-1.248V59.138a1.521,1.521,0,0,0-2.389-1.248Z" transform="translate(-93.956 -57.615)" fill="#b6c4cf"/>
        <path id="Trazado_996814" data-name="Trazado 996814" d="M336.706,208.425a1.686,1.686,0,0,0,.066,2.217,4.812,4.812,0,0,1,.03,6.436,1.686,1.686,0,0,0-.045,2.217,2.126,2.126,0,0,0,3.154.055,8.157,8.157,0,0,0-.052-11.01A2.126,2.126,0,0,0,336.706,208.425Z" transform="translate(-293.46 -188.186)" fill="#f79595"/>
        <path id="Trazado_996815" data-name="Trazado 996815" d="M373.739,162.9h0a1.7,1.7,0,0,0,.252,2.4,11.622,11.622,0,0,1,.084,17.907,1.7,1.7,0,0,0-.229,2.4h0a2.139,2.139,0,0,0,2.995.214,15.01,15.01,0,0,0-.109-23.161A2.139,2.139,0,0,0,373.739,162.9Z" transform="translate(-325.681 -148.574)" fill="#fd8087"/>
        <path id="Trazado_996816" data-name="Trazado 996816" d="M410.34,117.84v0a1.686,1.686,0,0,0,.29,2.426,18.463,18.463,0,0,1,.139,29.55,1.686,1.686,0,0,0-.267,2.429l0,0a2.136,2.136,0,0,0,2.923.273,21.861,21.861,0,0,0-.164-34.982A2.137,2.137,0,0,0,410.34,117.84Z" transform="translate(-357.523 -109.371)" fill="#fe646f"/>
        <path id="Trazado_996817" data-name="Trazado 996817" d="M156.152,326.2l-18.313-12.743v5L156.152,331.2a1.52,1.52,0,0,0,2.389-1.248v-5A1.52,1.52,0,0,1,156.152,326.2Z" transform="translate(-120.763 -280.217)" fill="#9facba"/>
        <path id="Trazado_996818" data-name="Trazado 996818" d="M23.475,183.046H10.259a3.86,3.86,0,0,1-3.86-3.86v-17.5a3.86,3.86,0,0,1,3.86-3.86H23.475Z" transform="translate(-6.399 -144.804)" fill="#596c76"/>
        <path id="Trazado_996819" data-name="Trazado 996819" d="M6.4,283.745v5a3.86,3.86,0,0,0,3.86,3.86H23.475v-5H10.259a3.86,3.86,0,0,1-3.86-3.86Z" transform="translate(-6.399 -254.367)" fill="#465a61"/>
      </g>
      <g id="Grupo_1162680" data-name="Grupo 1162680" transform="translate(0 50.989)">
        <path id="Trazado_996820" data-name="Trazado 996820" d="M37.066,50.989a2.469,2.469,0,0,0-1.416.448L17.669,63.95H4.817A4.822,4.822,0,0,0,0,68.767v8.951a.974.974,0,1,0,1.949,0V68.767A2.871,2.871,0,0,1,4.817,65.9H17V89.062H4.817a2.871,2.871,0,0,1-2.868-2.868V82.265a.974.974,0,0,0-1.949,0v3.929A4.822,4.822,0,0,0,4.817,91.01H17.669L35.65,103.523a2.47,2.47,0,0,0,1.416.448,2.5,2.5,0,0,0,2.493-2.491v-29.1a.974.974,0,0,0-1.949,0v29.1a.54.54,0,0,1-.544.542.523.523,0,0,1-.3-.1l-17.814-12.4V65.433l17.814-12.4a.524.524,0,0,1,.3-.1.54.54,0,0,1,.544.542V67.836a.974.974,0,0,0,1.949,0V53.48A2.5,2.5,0,0,0,37.066,50.989Z" transform="translate(0 -50.989)"/>
        <path id="Trazado_996821" data-name="Trazado 996821" d="M333.739,213.625a9.266,9.266,0,0,0,2.345-6.1v-.042a9.26,9.26,0,0,0-2.4-6.116,3.089,3.089,0,0,0-4.623.12,2.653,2.653,0,0,0,.092,3.465,3.861,3.861,0,0,1,1,2.562v.014a3.86,3.86,0,0,1-.976,2.55,2.653,2.653,0,0,0-.059,3.465,3.089,3.089,0,0,0,4.623.077Zm-3.12-1.318a.706.706,0,0,1,.03-.95,5.861,5.861,0,0,0,1.451-3.825v-.027a5.858,5.858,0,0,0-1.487-3.838.706.706,0,0,1-.039-.949,1.145,1.145,0,0,1,1.656-.048,7.219,7.219,0,0,1,1.906,4.831v.028a7.221,7.221,0,0,1-1.861,4.81,1.145,1.145,0,0,1-1.656-.033Z" transform="translate(-285.788 -180.981)"/>
        <path id="Trazado_996822" data-name="Trazado 996822" d="M376.13,168.11v-.074A16.134,16.134,0,0,0,370.3,155.8a3.071,3.071,0,0,0-2.007-.733,3.018,3.018,0,0,0-2.36,1.092l-.006.008a2.664,2.664,0,0,0,.371,3.737,10.789,10.789,0,0,1,3.9,8.161v.05a10.8,10.8,0,0,1-3.822,8.149,2.664,2.664,0,0,0-.34,3.735l0,.006a3.1,3.1,0,0,0,4.375.325,16.145,16.145,0,0,0,5.713-12.218Zm-7,10.753a1.158,1.158,0,0,1-1.585-.1l0,0a.718.718,0,0,1,.121-1.036,12.718,12.718,0,0,0,4.483-9.611v-.058a12.71,12.71,0,0,0-4.573-9.627.718.718,0,0,1-.134-1.031l0-.005a1.094,1.094,0,0,1,.851-.376,1.122,1.122,0,0,1,.735.26,14.212,14.212,0,0,1,5.152,10.769v.066a14.223,14.223,0,0,1-5.05,10.753Z" transform="translate(-317.867 -141.545)"/>
        <path id="Trazado_996823" data-name="Trazado 996823" d="M415.795,128.991a23.309,23.309,0,0,0-9.161-18.133,3.1,3.1,0,0,0-4.269.45l0,0a2.652,2.652,0,0,0,.442,3.794,17.9,17.9,0,0,1,7.057,13.915v.08a17.912,17.912,0,0,1-6.926,13.9,2.653,2.653,0,0,0-.414,3.788l.009.012a3.1,3.1,0,0,0,4.273.41A23.326,23.326,0,0,0,415.8,129.1Zm-10.213,16.7a1.156,1.156,0,0,1-1.54-.123l-.009-.012a.705.705,0,0,1,.125-1.039,19.85,19.85,0,0,0,7.653-15.418v-.089a19.836,19.836,0,0,0-7.8-15.435.7.7,0,0,1-.14-1.032v0l0-.005a1.154,1.154,0,0,1,1.547-.147A21.372,21.372,0,0,1,413.846,129v.095A21.388,21.388,0,0,1,405.582,145.69Z" transform="translate(-349.564 -102.514)"/>
      </g>
    </g>
  </g>
</svg>
