<svg xmlns="http://www.w3.org/2000/svg" xmlns:xlink="http://www.w3.org/1999/xlink" width="108" height="108" viewBox="0 0 108 108">
  <defs>
    <filter id="Trazado_982547" x="0" y="0" width="108" height="108" filterUnits="userSpaceOnUse">
      <feOffset dy="3" input="SourceAlpha"/>
      <feGaussianBlur stdDeviation="3" result="blur"/>
      <feFlood flood-opacity="0.161"/>
      <feComposite operator="in" in2="blur"/>
      <feComposite in="SourceGraphic"/>
    </filter>
  </defs>
  <g id="Grupo_1162654" data-name="Grupo 1162654" transform="translate(-903 -2865)">
    <g id="Grupo_1162008" data-name="Grupo 1162008" transform="translate(0 -573)">
      <g id="Grupo_1160643" data-name="Grupo 1160643" transform="translate(0 2554)">
        <g id="Grupo_1149837" data-name="Grupo 1149837" transform="translate(0 -3975)">
          <g id="Grupo_1149675" data-name="Grupo 1149675" transform="translate(157 -2821)">
            <g id="Grupo_1148534" data-name="Grupo 1148534" transform="translate(156 4253)">
              <g id="Grupo_1147066" data-name="Grupo 1147066" transform="translate(-26 -556)">
                <g transform="matrix(1, 0, 0, 1, 616, 3983)" filter="url(#Trazado_982547)">
                  <g id="Trazado_982547-2" data-name="Trazado 982547" transform="translate(9 6)" fill="#f6edfd">
                    <path d="M 45 88.5 C 39.12687683105469 88.5 33.43022537231445 87.35007476806641 28.06830024719238 85.08217620849609 C 22.88852500915527 82.89131164550781 18.23629951477051 79.75458526611328 14.2408504486084 75.75914764404297 C 10.24541282653809 71.76370239257812 7.108687400817871 67.11147308349609 4.917825222015381 61.93170166015625 C 2.649924993515015 56.56977462768555 1.5 50.87312316894531 1.5 45 C 1.5 39.12687683105469 2.649924993515015 33.43022537231445 4.917825222015381 28.06830024719238 C 7.108687400817871 22.88852500915527 10.24541282653809 18.23629951477051 14.2408504486084 14.2408504486084 C 18.23629951477051 10.24541282653809 22.88852500915527 7.108687400817871 28.06830024719238 4.917825222015381 C 33.43022537231445 2.649924993515015 39.12687683105469 1.5 45 1.5 C 50.87312316894531 1.5 56.56977462768555 2.649924993515015 61.93170166015625 4.917825222015381 C 67.11147308349609 7.108687400817871 71.76370239257812 10.24541282653809 75.75914764404297 14.2408504486084 C 79.75458526611328 18.23629951477051 82.89131164550781 22.88852500915527 85.08217620849609 28.06830024719238 C 87.35007476806641 33.43022537231445 88.5 39.12687683105469 88.5 45 C 88.5 50.87312316894531 87.35007476806641 56.56977462768555 85.08217620849609 61.93170166015625 C 82.89131164550781 67.11147308349609 79.75458526611328 71.76370239257812 75.75914764404297 75.75914764404297 C 71.76370239257812 79.75458526611328 67.11147308349609 82.89131164550781 61.93170166015625 85.08217620849609 C 56.56977462768555 87.35007476806641 50.87312316894531 88.5 45 88.5 Z" stroke="none"/>
                    <path d="M 45 3 C 39.32871246337891 3 33.82865524291992 4.110054016113281 28.65262985229492 6.299339294433594 C 23.65165710449219 8.414573669433594 19.15968322753906 11.44334411621094 15.301513671875 15.301513671875 C 11.44334411621094 19.15968322753906 8.414573669433594 23.65165710449219 6.299339294433594 28.65262985229492 C 4.110054016113281 33.82865524291992 3 39.32871246337891 3 45 C 3 50.67128753662109 4.110054016113281 56.17134475708008 6.299339294433594 61.34737396240234 C 8.414573669433594 66.34834289550781 11.44334411621094 70.84031677246094 15.301513671875 74.698486328125 C 19.15968322753906 78.55665588378906 23.65165710449219 81.58542633056641 28.65262985229492 83.70066070556641 C 33.82865524291992 85.88994598388672 39.32871246337891 87 45 87 C 50.67128753662109 87 56.17134475708008 85.88994598388672 61.34737396240234 83.70066070556641 C 66.34834289550781 81.58542633056641 70.84031677246094 78.55665588378906 74.698486328125 74.698486328125 C 78.55665588378906 70.84031677246094 81.58542633056641 66.34834289550781 83.70066070556641 61.34737396240234 C 85.88994598388672 56.17134475708008 87 50.67128753662109 87 45 C 87 39.32871246337891 85.88994598388672 33.82865524291992 83.70066070556641 28.65262985229492 C 81.58542633056641 23.65165710449219 78.55665588378906 19.15968322753906 74.698486328125 15.301513671875 C 70.84031677246094 11.44334411621094 66.34834289550781 8.414573669433594 61.34737396240234 6.299339294433594 C 56.17134475708008 4.110054016113281 50.67128753662109 3 45 3 M 45 0 C 69.85281372070312 0 90 20.14718627929688 90 45 C 90 69.85281372070312 69.85281372070312 90 45 90 C 20.14718627929688 90 0 69.85281372070312 0 45 C 0 20.14718627929688 20.14718627929688 0 45 0 Z" stroke="none" fill="#ac59f1"/>
                  </g>
                </g>
              </g>
            </g>
          </g>
        </g>
      </g>
    </g>
    <g id="demanda" transform="translate(930 2889)">
      <path id="Trazado_996729" data-name="Trazado 996729" d="M60.3,36.856H50.382l-1.8,5.41-1.8-5.41H35.954l-1.8,5.41-1.8-5.41H21.526l-1.8,5.41-1.8-5.41H8V8H60.3Z" transform="translate(-7.098 -7.098)" fill="#65cecc"/>
      <circle id="Elipse_12405" data-name="Elipse 12405" cx="6" cy="6" r="6" transform="translate(37 9.104)" fill="#e9cd4b"/>
      <g id="Grupo_1162650" data-name="Grupo 1162650" transform="translate(0.902 35.805)">
        <circle id="Elipse_12406" data-name="Elipse 12406" cx="3.5" cy="3.5" r="3.5" transform="translate(1.098 0.3)" fill="#00ba54"/>
        <path id="Trazado_996730" data-name="Trazado 996730" d="M11.517,384H13.41a3.521,3.521,0,0,1,3.517,3.517v6.4H8v-6.4A3.581,3.581,0,0,1,11.517,384Z" transform="translate(-8 -376.521)" fill="#00ba54"/>
      </g>
      <g id="Grupo_1162651" data-name="Grupo 1162651" transform="translate(15.33 35.805)">
        <circle id="Elipse_12407" data-name="Elipse 12407" cx="3.5" cy="3.5" r="3.5" transform="translate(0.67 0.3)" fill="#e9cd4b"/>
        <path id="Trazado_996731" data-name="Trazado 996731" d="M139.517,384h1.894a3.521,3.521,0,0,1,3.517,3.517h0v6.4H136v-6.4A3.581,3.581,0,0,1,139.517,384Z" transform="translate(-136 -376.521)" fill="#e9cd4b"/>
      </g>
      <g id="Grupo_1162652" data-name="Grupo 1162652" transform="translate(29.757 35.805)">
        <circle id="Elipse_12408" data-name="Elipse 12408" cx="3.5" cy="3.5" r="3.5" transform="translate(1.243 0.3)" fill="#816892"/>
        <path id="Trazado_996732" data-name="Trazado 996732" d="M267.517,384h1.894a3.521,3.521,0,0,1,3.517,3.517h0v6.4H264v-6.4A3.581,3.581,0,0,1,267.517,384Z" transform="translate(-264 -376.521)" fill="#816892"/>
      </g>
      <g id="Grupo_1162653" data-name="Grupo 1162653" transform="translate(17.133 7.214)">
        <ellipse id="Elipse_12409" data-name="Elipse 12409" cx="4" cy="3.5" rx="4" ry="3.5" transform="translate(27.867 28.891)" fill="#de2f55"/>
        <path id="Trazado_996733" data-name="Trazado 996733" d="M395.517,384h1.894a3.521,3.521,0,0,1,3.517,3.517h0v6.4H392v-6.4A3.581,3.581,0,0,1,395.517,384Z" transform="translate(-364.948 -347.93)" fill="#de2f55"/>
        <path id="Trazado_996734" data-name="Trazado 996734" d="M165.526,68.689V64h-2.705v2.525L160.116,64,152,71.214h2.705v9.017h10.821V71.214h2.705Z" transform="translate(-152 -64)" fill="#de2f55"/>
      </g>
      <path id="Trazado_996735" data-name="Trazado 996735" d="M56.206,138.429a4.023,4.023,0,0,0-5.23-2.254,4.242,4.242,0,0,0-2.254,2.254L48,140.413h9.017Z" transform="translate(-42.59 -120.574)" fill="#e9cd4b"/>
      <path id="Trazado_996736" data-name="Trazado 996736" d="M40,176H50.821l-1.8,3.517H41.8Z" transform="translate(-35.491 -156.162)" fill="#816892"/>
      <path id="Trazado_996737" data-name="Trazado 996737" d="M8.476,319.3a4.529,4.529,0,1,0-6.4-.18l.18.18A4.547,4.547,0,0,0,0,323.173v6.4a.852.852,0,0,0,.9.9H9.919a.852.852,0,0,0,.9-.9v-6.4A4.446,4.446,0,0,0,8.476,319.3ZM5.41,313.345a2.705,2.705,0,1,1,0,5.41,2.705,2.705,0,1,1,0-5.41Zm3.607,15.33H1.8v-5.5a2.617,2.617,0,0,1,2.615-2.615H6.312a2.617,2.617,0,0,1,2.615,2.615v5.5Z" transform="translate(0 -276.373)"/>
      <path id="Trazado_996738" data-name="Trazado 996738" d="M136.476,319.3a4.529,4.529,0,1,0-6.4-.18l.18.18A4.547,4.547,0,0,0,128,323.173v6.4a.852.852,0,0,0,.9.9h9.017a.852.852,0,0,0,.9-.9v-6.4A4.446,4.446,0,0,0,136.476,319.3Zm-3.066-5.951a2.705,2.705,0,1,1-2.705,2.705A2.657,2.657,0,0,1,133.41,313.345Zm3.607,15.33H129.8v-5.5a2.617,2.617,0,0,1,2.615-2.615h1.894a2.617,2.617,0,0,1,2.615,2.615v5.5Z" transform="translate(-113.572 -276.373)"/>
      <path id="Trazado_996739" data-name="Trazado 996739" d="M264.476,319.3a4.529,4.529,0,1,0-6.4-.18l.18.18A4.547,4.547,0,0,0,256,323.173v6.4a.852.852,0,0,0,.9.9h9.017a.852.852,0,0,0,.9-.9v-6.4A4.446,4.446,0,0,0,264.476,319.3Zm-3.066-5.951a2.705,2.705,0,1,1-2.705,2.705A2.657,2.657,0,0,1,261.41,313.345Zm3.607,15.33H257.8v-5.5a2.617,2.617,0,0,1,2.615-2.615h1.894a2.617,2.617,0,0,1,2.615,2.615v5.5Z" transform="translate(-227.144 -276.373)"/>
      <path id="Trazado_996740" data-name="Trazado 996740" d="M392.476,319.3a4.529,4.529,0,1,0-6.4-.18l.18.18A4.547,4.547,0,0,0,384,323.173v6.4a.852.852,0,0,0,.9.9h9.017a.852.852,0,0,0,.9-.9v-6.4A4.446,4.446,0,0,0,392.476,319.3Zm-3.066-5.951a2.705,2.705,0,1,1-2.705,2.705A2.657,2.657,0,0,1,389.41,313.345Zm3.607,15.33H385.8v-5.5a2.617,2.617,0,0,1,2.615-2.615h1.894a2.617,2.617,0,0,1,2.615,2.615v5.5Z" transform="translate(-340.716 -276.373)"/>
      <path id="Trazado_996741" data-name="Trazado 996741" d="M41.48,36.07a.866.866,0,0,1-.812-.631l-1.623-4.779H29.487l-1.623,4.779a.9.9,0,0,1-1.172.541.813.813,0,0,1-.541-.541l-1.533-4.779H15.059l-1.623,4.779a.9.9,0,0,1-1.172.541.813.813,0,0,1-.541-.541L10.19,30.659H.9a.852.852,0,0,1-.9-.9V.9A.852.852,0,0,1,.9,0H53.2a.852.852,0,0,1,.9.9V29.757a.852.852,0,0,1-.9.9H43.915l-1.623,4.779A.866.866,0,0,1,41.48,36.07ZM28.856,28.856H39.677a.866.866,0,0,1,.812.631l.992,2.886.992-2.886a.866.866,0,0,1,.812-.631H52.3V1.8H1.8V28.856h9.017a.866.866,0,0,1,.812.631l.992,2.886.992-2.886a.866.866,0,0,1,.812-.631H25.249a.866.866,0,0,1,.812.631l.992,2.886.992-2.886A.866.866,0,0,1,28.856,28.856Z"/>
      <path id="Trazado_996742" data-name="Trazado 996742" d="M43.662,65.073,42.4,63.81l1.172-1.172-.541-.541a1.743,1.743,0,0,1,0-2.525h0L44.2,58.4l1.262,1.262-1.172,1.172.541.541a1.743,1.743,0,0,1,0,2.525Z" transform="translate(-37.621 -51.817)"/>
      <path id="Trazado_996743" data-name="Trazado 996743" d="M75.662,65.073,74.4,63.81l1.172-1.172-.541-.541a1.743,1.743,0,0,1,0-2.525h0L76.2,58.4l1.262,1.262-1.172,1.172.541.541a1.743,1.743,0,0,1,0,2.525Z" transform="translate(-66.014 -51.817)"/>
      <path id="Trazado_996744" data-name="Trazado 996744" d="M107.662,65.073,106.4,63.81l1.172-1.172-.541-.541a1.743,1.743,0,0,1,0-2.525h0L108.2,58.4l1.262,1.262-1.172,1.172.541.541a1.743,1.743,0,0,1,0,2.525Z" transform="translate(-94.407 -51.817)"/>
      <path id="Trazado_996745" data-name="Trazado 996745" d="M158.428,74.035H147.607a.852.852,0,0,1-.9-.9V65.017h-1.8a.852.852,0,0,1-.9-.9.7.7,0,0,1,.271-.631l8.116-7.214a.946.946,0,0,1,1.172,0l1.172,1.082V56.9a.852.852,0,0,1,.9-.9h2.705a.852.852,0,0,1,.9.9V61.23l2.435,2.254a.872.872,0,0,1,0,1.262.545.545,0,0,1-.541.271h-1.8v8.116A.852.852,0,0,1,158.428,74.035Zm-9.919-1.8h9.017V64.116a.852.852,0,0,1,.9-.9h.451l-.992-.992a.974.974,0,0,1-.271-.631V57.8h-.9v1.623a.852.852,0,0,1-.9.9.819.819,0,0,1-.631-.271l-2.164-1.894-5.771,5.05h.361a.852.852,0,0,1,.9.9Z" transform="translate(-127.769 -49.688)"/>
      <path id="Trazado_996746" data-name="Trazado 996746" d="M327.214,72a7.214,7.214,0,1,0,7.214,7.214A7.235,7.235,0,0,0,327.214,72Zm-5.41,7.214a5.413,5.413,0,0,1,4.509-5.32v.992a2.627,2.627,0,0,0-1.8,2.525c0,1.894,1.533,2.345,2.435,2.705.992.361,1.172.451,1.172.9a.9.9,0,1,1-1.8,0h-1.8a2.627,2.627,0,0,0,1.8,2.525v.992A5.413,5.413,0,0,1,321.8,79.214Zm6.312,5.32v-.992a2.627,2.627,0,0,0,1.8-2.525c0-1.894-1.533-2.345-2.435-2.705-.992-.361-1.172-.451-1.172-.9a.9.9,0,0,1,1.8,0h1.8a2.627,2.627,0,0,0-1.8-2.525v-.992a5.3,5.3,0,0,1,4.419,6.222A5.362,5.362,0,0,1,328.116,84.534Z" transform="translate(-283.93 -63.884)"/>
      <path id="Trazado_996747" data-name="Trazado 996747" d="M44.534,133.033a1.076,1.076,0,0,0-.812-.451h-.271l-.631-1.443h0a4.917,4.917,0,0,0-6.4-2.705,4.7,4.7,0,0,0-2.705,2.705l-.541,1.443H32.9a.852.852,0,0,0-.9.9c0,.18,0,.271.09.361l1.8,3.607a.867.867,0,0,0,.812.541h7.214a.867.867,0,0,0,.812-.541l1.8-3.607A1.251,1.251,0,0,0,44.534,133.033Zm-9.108-1.172a3.088,3.088,0,0,1,4.058-1.713A2.7,2.7,0,0,1,41.2,131.86l.271.721H35.156Zm5.951,4.328H35.246l-.9-1.8H42.28Z" transform="translate(-28.393 -113.645)"/>
    </g>
  </g>
</svg>
