<svg xmlns="http://www.w3.org/2000/svg" xmlns:xlink="http://www.w3.org/1999/xlink" width="658" height="353" viewBox="0 0 658 353">
  <defs>
    <clipPath id="clip-path">
      <rect id="Rectángulo_413140" data-name="Rectángulo 413140" width="658" height="353" transform="translate(810 1645)" fill="#fff" stroke="#707070" stroke-width="1"/>
    </clipPath>
    <clipPath id="clip-path-2">
      <path id="Trazado_997048" data-name="Trazado 997048" d="M444.231,34.247l-71.656-3.94,32.8,49.271,21.035-25.691,6.968,9.527,1.245-19.135Z" transform="translate(-372.575 -30.307)"/>
    </clipPath>
    <linearGradient id="linear-gradient" x1="0.5" y1="3.071" x2="0.5" y2="0.522" gradientUnits="objectBoundingBox">
      <stop offset="0" stop-color="#4120c2"/>
      <stop offset="1" stop-color="#4120c2" stop-opacity="0"/>
    </linearGradient>
    <linearGradient id="linear-gradient-2" x1="0.5" y1="1.463" x2="0.5" y2="0.22" xlink:href="#linear-gradient"/>
    <clipPath id="clip-path-3">
      <rect id="Rectángulo_413139" data-name="Rectángulo 413139" width="1109.514" height="422.156"/>
    </clipPath>
    <linearGradient id="linear-gradient-3" x1="-4.853" y1="-0.284" x2="-4.853" y2="0.825" gradientUnits="objectBoundingBox">
      <stop offset="0" stop-color="#fff"/>
      <stop offset="1" stop-color="#fff" stop-opacity="0"/>
    </linearGradient>
    <linearGradient id="linear-gradient-4" x1="-1.728" y1="0.5" x2="-2.728" y2="0.5" gradientUnits="objectBoundingBox">
      <stop offset="0"/>
      <stop offset="1" stop-opacity="0"/>
    </linearGradient>
    <linearGradient id="linear-gradient-5" x1="0.906" y1="1.029" x2="0.257" y2="0.129" xlink:href="#linear-gradient"/>
    <linearGradient id="linear-gradient-6" x1="-0.259" y1="1.012" x2="0.717" y2="0.296" xlink:href="#linear-gradient"/>
    <linearGradient id="linear-gradient-7" x1="1" y1="0.5" x2="0" y2="0.5" xlink:href="#linear-gradient"/>
    <linearGradient id="linear-gradient-8" x1="1.626" y1="0.5" x2="0.403" y2="0.5" xlink:href="#linear-gradient-4"/>
  </defs>
  <g id="Enmascarar_grupo_1098789" data-name="Enmascarar grupo 1098789" transform="translate(-810 -1645)" clip-path="url(#clip-path)">
    <g id="Grupo_1162868" data-name="Grupo 1162868">
      <path id="Trazado_997035" data-name="Trazado 997035" d="M506.612,243.3a75.274,75.274,0,0,0,10.763,11.815v75.77H0c17.274-53.47,29.775-104.269,115.432-154.925C289.123,73.243,456.655,174.587,506.612,243.3Z" transform="translate(950.826 1666.617)" fill="#c1dffe" opacity="0.8"/>
      <g id="Grupo_1162867" data-name="Grupo 1162867" transform="translate(310.486 1575.341)">
        <g id="Grupo_1162765" data-name="Grupo 1162765" transform="translate(541.111 75.237)">
          <g id="Grupo_1162764" data-name="Grupo 1162764">
            <path id="Trazado_997045" data-name="Trazado 997045" d="M223.471,74.169c10.332.5,19.637,9.263,20.755,19.546.743,6.832-1.729,13.82-.3,20.541a18.05,18.05,0,0,0,33.808,4.3c2.021-4.052.782-10.8-3.74-10.563-2.063.11-3.7,1.774-4.844,3.494-4.763,7.151-4.576,16.851-.957,24.643s10.24,13.853,17.533,18.394a72.1,72.1,0,0,0,108-43.466c1.52-5.985,2.153-12.734-1.105-17.978s-11.728-7.339-15.64-2.561c-4.557,5.568.763,14.019,7.059,17.5A33.173,33.173,0,0,0,432.59,85.693c6.12-38.377-2-59.841-22.737-85.7" transform="translate(-161.176 0.002)" fill="none" stroke="#000" stroke-linecap="round" stroke-miterlimit="10" stroke-width="0.75" stroke-dasharray="4"/>
            <g id="Grupo_1162763" data-name="Grupo 1162763" transform="translate(0 41.01)">
              <path id="Trazado_997046" data-name="Trazado 997046" d="M444.231,34.247l-71.656-3.94,36.332,49.206,17.506-25.626,6.968,9.527,1.245-19.135Z" transform="translate(-372.575 -30.307)" fill="#c483fb"/>
              <g id="Grupo_1162762" data-name="Grupo 1162762">
                <g id="Grupo_1162761" data-name="Grupo 1162761" clip-path="url(#clip-path-2)">
                  <path id="Trazado_997047" data-name="Trazado 997047" d="M373.9,34.826l42.339,17.465,5.205,18.682,10.815-9.389-7.807-18.9Z" transform="translate(-362.403 -28.712)" fill="#982ae8"/>
                </g>
              </g>
            </g>
          </g>
        </g>
        <g id="Grupo_1162766" data-name="Grupo 1162766" transform="translate(1062.041 196.492)">
          <path id="Trazado_997049" data-name="Trazado 997049" d="M40.2,19.325A14.587,14.587,0,1,1,25.61,33.912,14.588,14.588,0,0,1,40.2,19.325Zm0,23.9a9.312,9.312,0,1,0-9.312-9.312A9.313,9.313,0,0,0,40.2,43.226Z" transform="translate(-25.61 -19.325)" fill="#b82ae8"/>
        </g>
        <g id="Grupo_1162769" data-name="Grupo 1162769" transform="translate(647.056 114.353)">
          <g id="Grupo_1162767" data-name="Grupo 1162767" transform="translate(0 20.957)">
            <path id="Trazado_997050" data-name="Trazado 997050" d="M370.586,197.64l.281-87.413a8.289,8.289,0,0,0-8.121-8.315L268.434,100a8.289,8.289,0,0,0-8.457,8.235l-.564,89.8a8.29,8.29,0,0,0,8.331,8.342l94.6-.478A8.289,8.289,0,0,0,370.586,197.64Z" transform="translate(-259.413 -100.001)" fill="#fff"/>
            <rect id="Rectángulo_413128" data-name="Rectángulo 413128" width="9.584" height="56.706" transform="translate(77.374 35.375)" fill="#efca30"/>
            <rect id="Rectángulo_413129" data-name="Rectángulo 413129" width="9.584" height="34.425" transform="translate(77.374 35.375)" fill="#dd5853"/>
            <rect id="Rectángulo_413130" data-name="Rectángulo 413130" width="9.584" height="44.409" transform="translate(59.377 46.956)" fill="#70a1bd"/>
            <rect id="Rectángulo_413131" data-name="Rectángulo 413131" width="9.584" height="30.172" transform="translate(23.385 61.592)" fill="#efca30"/>
            <rect id="Rectángulo_413132" data-name="Rectángulo 413132" width="9.584" height="10.668" transform="translate(23.385 61.592)" fill="#70a1bd"/>
            <rect id="Rectángulo_413133" data-name="Rectángulo 413133" width="9.584" height="66.108" transform="translate(41.381 25.255)" fill="#540cde"/>
            <rect id="Rectángulo_413134" data-name="Rectángulo 413134" width="9.584" height="12.313" transform="translate(41.381 25.255)" fill="#efca30"/>
          </g>
          <g id="Grupo_1162768" data-name="Grupo 1162768" transform="translate(34.733 0)">
            <ellipse id="Elipse_12427" data-name="Elipse 12427" cx="15.743" cy="15.743" rx="15.743" ry="15.743" transform="translate(30.636 37.906) rotate(-166.65)" fill="#dd5853"/>
            <path id="Trazado_997051" data-name="Trazado 997051" d="M309.829,100.3l-5.893,4.307L296.924,95.7" transform="translate(-283.863 -80.562)" fill="none" stroke="#fff" stroke-linecap="round" stroke-linejoin="round" stroke-miterlimit="10" stroke-width="2.418"/>
          </g>
        </g>
        <g id="Grupo_1162775" data-name="Grupo 1162775" transform="translate(827.055 75.743)">
          <g id="Grupo_1162770" data-name="Grupo 1162770" transform="translate(13.09 16.423)">
            <path id="Trazado_997052" data-name="Trazado 997052" d="M173.964,90.894a17.534,17.534,0,1,1,32.678,2.04,25.2,25.2,0,0,0-2.275,12.031l.073,1.193-13.32,4.177-.618-1.018a26.173,26.173,0,0,0-8.91-8.685A17.463,17.463,0,0,1,173.964,90.894Z" transform="translate(-173.156 -68.115)" fill="#c2c6fc"/>
            <path id="Trazado_997053" data-name="Trazado 997053" d="M173.964,90.894a17.534,17.534,0,1,1,32.678,2.04,25.2,25.2,0,0,0-2.275,12.031l.073,1.193-13.32,4.177-.618-1.018a26.173,26.173,0,0,0-8.91-8.685A17.463,17.463,0,0,1,173.964,90.894Z" transform="translate(-173.156 -68.115)" fill="#efca30"/>
            <path id="Trazado_997054" data-name="Trazado 997054" d="M195.228,100.271l-.583-18.093a2.778,2.778,0,0,0-4.292.1c-2.333,2.364-.76,7.683.6,5.6s-1.662-7.443-5.759-5.5.815,10.869,1.594,7.84-3.511-7.83-7.331-5l10.651,18.653" transform="translate(-168.679 -63.496)" fill="none" stroke="#fff" stroke-miterlimit="10" stroke-width="1"/>
            <path id="Trazado_997055" data-name="Trazado 997055" d="M182.71,108.266l2.947-.924a6.246,6.246,0,0,0,4.092-7.829l-.116-.369a6.246,6.246,0,0,0-7.829-4.092l-2.947.924a6.246,6.246,0,0,0-4.092,7.829l.116.369A6.245,6.245,0,0,0,182.71,108.266Z" transform="translate(-156.748 -58.706)" fill="#18005b"/>
            <rect id="Rectángulo_413135" data-name="Rectángulo 413135" width="19.741" height="9.637" transform="translate(35.547 41.98) rotate(162.591)" fill="#540cde"/>
          </g>
          <g id="Grupo_1162771" data-name="Grupo 1162771" transform="translate(11.904 5.734)">
            <path id="Trazado_997056" data-name="Trazado 997056" d="M200.551,71.409a.832.832,0,0,0,1.038-1.158l-4.945-9.585a.831.831,0,0,0-1.478.763l4.945,9.585A.827.827,0,0,0,200.551,71.409Z" transform="translate(-195.072 -60.215)" fill="#efca30"/>
          </g>
          <g id="Grupo_1162772" data-name="Grupo 1162772" transform="translate(31.34)">
            <path id="Trazado_997057" data-name="Trazado 997057" d="M183.54,69.855a.776.776,0,0,0,.177.046.832.832,0,0,0,.946-.7L186.5,56.931a.832.832,0,0,0-1.645-.245l-1.832,12.271A.83.83,0,0,0,183.54,69.855Z" transform="translate(-183.008 -55.977)" fill="#efca30"/>
          </g>
          <g id="Grupo_1162773" data-name="Grupo 1162773" transform="translate(48.225 13.684)">
            <path id="Trazado_997058" data-name="Trazado 997058" d="M166.13,73.241a.829.829,0,0,0,.754-.078l8.505-5.542a.832.832,0,0,0-.908-1.4l-8.505,5.542a.832.832,0,0,0,.154,1.473Z" transform="translate(-165.598 -66.091)" fill="#efca30"/>
          </g>
          <g id="Grupo_1162774" data-name="Grupo 1162774" transform="translate(0 24.798)">
            <path id="Trazado_997059" data-name="Trazado 997059" d="M210.339,79.895a.832.832,0,0,0,.643-1.533l-8.739-3.978a.819.819,0,0,0-1.1.411.832.832,0,0,0,.411,1.1l8.739,3.978Z" transform="translate(-201.065 -74.304)" fill="#efca30"/>
          </g>
        </g>
        <g id="Grupo_1162788" data-name="Grupo 1162788" transform="translate(511.067 264.079)">
          <g id="Grupo_1162783" data-name="Grupo 1162783" transform="translate(0 0.651)">
            <g id="Grupo_1162782" data-name="Grupo 1162782" transform="translate(0 0)">
              <g id="Grupo_1162776" data-name="Grupo 1162776">
                <path id="Trazado_997060" data-name="Trazado 997060" d="M378.091,214.125l14.635,17.005-36.312,1.649Z" transform="translate(-275.531 -136.128)" fill="#fff"/>
                <ellipse id="Elipse_12428" data-name="Elipse 12428" cx="46.338" cy="46.338" rx="46.338" ry="46.338" transform="matrix(-0.408, -0.913, 0.913, -0.408, 37.823, 122.43)" fill="#fff"/>
              </g>
              <g id="Grupo_1162781" data-name="Grupo 1162781" transform="translate(36.379 37.696)">
                <g id="Grupo_1162777" data-name="Grupo 1162777">
                  <path id="Trazado_997061" data-name="Trazado 997061" d="M381.444,184.34h45.279l-21.981,14.329Z" transform="translate(-379.774 -184.34)" fill="#b82ae8"/>
                  <path id="Trazado_997062" data-name="Trazado 997062" d="M404.783,200.183a.877.877,0,0,0,.938-.012l23.09-15.053v29.359H380.259V185.1Z" transform="translate(-380.259 -184.072)" fill="#b82ae8"/>
                </g>
                <g id="Grupo_1162778" data-name="Grupo 1162778" opacity="0.74">
                  <path id="Trazado_997063" data-name="Trazado 997063" d="M381.444,184.34h45.279l-21.981,14.329Z" transform="translate(-379.774 -184.34)" fill="url(#linear-gradient)"/>
                  <path id="Trazado_997064" data-name="Trazado 997064" d="M404.783,200.183a.877.877,0,0,0,.938-.012l23.09-15.053v29.359H380.259V185.1Z" transform="translate(-380.259 -184.072)" fill="url(#linear-gradient-2)"/>
                </g>
                <g id="Grupo_1162780" data-name="Grupo 1162780" transform="translate(0.42 36.705)">
                  <path id="Trazado_997065" data-name="Trazado 997065" d="M386.862,211.475l35.124-.008a6.292,6.292,0,0,1,6.243,5.5h0a6.292,6.292,0,0,1-6.24,7.082l-35.124.008a6.292,6.292,0,0,1,0-12.584Z" transform="translate(-380.571 -211.467)" fill="#efca30"/>
                  <g id="Grupo_1162779" data-name="Grupo 1162779" transform="translate(11.349 2.404)">
                    <path id="Trazado_997066" data-name="Trazado 997066" d="M389.91,221.249a.918.918,0,0,0,.522.085,1.3,1.3,0,0,0,.714-.1l.256-.085.375-.183a.172.172,0,0,1,.061.007c.008,0,.028-.007.06-.031a.568.568,0,0,1,.171-.1,1.457,1.457,0,0,0,.34-.3,2.072,2.072,0,0,0,.388-1.031c0-.032-.041-.093-.122-.181a.757.757,0,0,0-.608-.291.359.359,0,0,0-.23.1l-.4.521a2.423,2.423,0,0,1-.218.193l-.158.169-.242.206a.217.217,0,0,1-.1.024,1.271,1.271,0,0,1-.267.061,2.916,2.916,0,0,1-.413-.133,1.391,1.391,0,0,0-.193-.169l-.171-.194a.8.8,0,0,1-.085-.195,1.88,1.88,0,0,0-.007-.212,1.568,1.568,0,0,1,.042-.3,1,1,0,0,1,.171-.194A1.874,1.874,0,0,1,390,218.6a4.919,4.919,0,0,1,.7-.388l.231-.134.218-.194a1.374,1.374,0,0,0,.448-.327c.081-.057.142-.1.183-.133a1.978,1.978,0,0,0,.4-.413c0-.016.069-.171.206-.46l.11-.474-.049-.315a1.4,1.4,0,0,0,.049-.474,1.4,1.4,0,0,1-.122-.291c.023-.122-.085-.36-.327-.716a2.54,2.54,0,0,0-.534-.582l-.411-.218-.195-.085-.3-.037a3.186,3.186,0,0,0-.564,0,1.059,1.059,0,0,0-.474.1,4.439,4.439,0,0,0-.484.327,1.536,1.536,0,0,0-.582.85,2.3,2.3,0,0,0-.024,1.322c0,.032.114.1.34.195l.3-.012a1.276,1.276,0,0,0,.739-.4c.065-.041.114-.153.146-.34.008-.193.049-.311.122-.352a1.694,1.694,0,0,0,.1-.218c.137-.177.229-.267.272-.267a.385.385,0,0,1,.152.037,1.086,1.086,0,0,1,.46.789,1.189,1.189,0,0,1-.218.861c-.089.13-.146.193-.169.193a1.451,1.451,0,0,1-.279.3l-.171.181-.509.376-.206.206-.23.146a1.7,1.7,0,0,0-.376.23,3.152,3.152,0,0,0-.594.679,2.716,2.716,0,0,0-.195.655v.474l.06.279a.786.786,0,0,1,.134.242c0,.008.045.118.133.327a1.491,1.491,0,0,0,.291.254,2.561,2.561,0,0,0,.812.437A1.169,1.169,0,0,0,389.91,221.249Z" transform="translate(-366.718 -213.205)" fill="#fff"/>
                    <path id="Trazado_997067" data-name="Trazado 997067" d="M395.7,218.133v.484a2,2,0,0,1-.085.838,1.192,1.192,0,0,1-.061.291.8.8,0,0,1-.1.3c0,.041-.114.138-.34.291a2.78,2.78,0,0,1-.716-.242l-.862-.327a.339.339,0,0,0-.3.042.419.419,0,0,0-.169.315.626.626,0,0,0,.014.321.788.788,0,0,0,.206.242,2.615,2.615,0,0,1,.214.206.548.548,0,0,0,.181.127c.089.045.188.091.3.139s.184.085.225.11a1.319,1.319,0,0,0,.728.17.916.916,0,0,0,.322-.061.662.662,0,0,1,.181-.054.26.26,0,0,0,.1-.012l.152-.036c.049-.012.175-.039.376-.079,0-.032.057-.065.169-.1l.327-.267a.611.611,0,0,0,.181-.3l.11-.183a.745.745,0,0,0,.133-.279.41.41,0,0,0,.061-.218.933.933,0,0,0,.06-.376,1.482,1.482,0,0,0,.11-.461,2.825,2.825,0,0,0,.012-.934,1.219,1.219,0,0,0-.085-.448l-.024-.193c-.041-.21-.068-.372-.085-.484a1.97,1.97,0,0,0-.157-.813.837.837,0,0,0-.078-.284,1.184,1.184,0,0,1-.091-.394l-.1-.23a4.8,4.8,0,0,0-.181-.716,1.365,1.365,0,0,1-.1-.267l-.3-.643-.145-.193a.677.677,0,0,0-.254-.146c-.049-.041-.177-.037-.388.012a.838.838,0,0,0-.268.145.522.522,0,0,1-.206.037l-.934-.061a1.6,1.6,0,0,0-.472.078.7.7,0,0,0-.237.188.3.3,0,0,0-.085.267.406.406,0,0,0,.1.206,2.444,2.444,0,0,0,.582.315c.493.267.76.409.8.425l.291.134a.568.568,0,0,1,.23.254q.376,1.358.407,1.51c.019.1.032.162.037.181a.247.247,0,0,1,.005.042l-.242-.024c-.356-.112-.566-.15-.631-.11a.357.357,0,0,1-.133-.037,1.954,1.954,0,0,0-.789-.133c-.041-.024-.085-.008-.133.049a.56.56,0,0,0-.11.207.405.405,0,0,0,.183.472,4.389,4.389,0,0,0,1.212.545,1.247,1.247,0,0,0,.643.23Z" transform="translate(-377.757 -213.244)" fill="#fff"/>
                    <path id="Trazado_997068" data-name="Trazado 997068" d="M403.364,215.2a2.7,2.7,0,0,0-.3-1.055.386.386,0,0,0-.037-.085,1.687,1.687,0,0,0-.145-.254.993.993,0,0,1-.158-.12.452.452,0,0,0-.254-.181,1.806,1.806,0,0,0-.413-.019.561.561,0,0,1-.218.019.7.7,0,0,0-.267,0c-.049.016-.107.034-.176.054s-.152.046-.249.078a.6.6,0,0,0-.206.1.761.761,0,0,0-.115.346,1.041,1.041,0,0,1-.1.352c-.016.179-.028.279-.035.3a.6.6,0,0,0-.024.133c-.016.153-.037.368-.061.643q-.144,1.066-.145,1.31a.387.387,0,0,0-.122.242q-.037.268-.1.813a2.154,2.154,0,0,0-.085.357,3.458,3.458,0,0,0-.073.43q-.049.024-.073.158c-.064.138-.116.153-.157.049-.024-.106-.1-.4-.231-.873,0-.195-.019-.291-.06-.291-.024,0-.028-.049-.012-.145a1.509,1.509,0,0,0-.12-.437,5.011,5.011,0,0,1-.254-.728.474.474,0,0,0-.012-.183A2.445,2.445,0,0,1,399,215.6a.629.629,0,0,0-.023-.249.664.664,0,0,1-.037-.152l-.061-.376a2.655,2.655,0,0,0-.061-.467,1.21,1.21,0,0,0-.122-.394,1.074,1.074,0,0,1-.024-.206,1.326,1.326,0,0,1-.1-.145.971.971,0,0,0-.091-.134q-.061-.266-.545-.1a1.527,1.527,0,0,0-.23.122.384.384,0,0,0-.1.133.422.422,0,0,0-.145.3q.037-.037.024.061a.186.186,0,0,1-.012.06c-.031,0-.045.051-.037.152a.836.836,0,0,0,.042.225,1.074,1.074,0,0,1,.055.193,1.338,1.338,0,0,0,.049.188,1.151,1.151,0,0,1,.049.327,3.624,3.624,0,0,0,.206.782,1.236,1.236,0,0,1,.139.448,2.321,2.321,0,0,0,.127.474c-.024.049.012.138.11.267a.247.247,0,0,0,.023.2.358.358,0,0,1,.068.188c.012.089.012.142,0,.157a.613.613,0,0,0,.024.244,1.416,1.416,0,0,0,.068.267q.037.024.037.11a2.575,2.575,0,0,0,.073.406,1.7,1.7,0,0,0,.108.371,1.035,1.035,0,0,0,.085.406q.11.345.146.479a3.414,3.414,0,0,0,.115.516.2.2,0,0,0,.152.127c0-.024.054-.041.164-.049a1.743,1.743,0,0,1,.242-.005.679.679,0,0,0,.157-.007c.053-.008.108-.018.164-.03a1.092,1.092,0,0,0,.152-.042c.045-.016.081-.03.11-.042s.039-.022.03-.03l.146-.061c0,.041.108.045.326.012a.392.392,0,0,0,.327-.34q.073.024.231-.418a5.292,5.292,0,0,0,.212-.728c.037-.189.068-.334.1-.43a2.624,2.624,0,0,0,.073-.437.76.76,0,0,1,.078-.34.263.263,0,0,1-.012-.146c.009-.065.069-.472.183-1.225a.83.83,0,0,1,.012-.23q.073,0,.073-.146l.012-.157a1.2,1.2,0,0,1,.061.3,3.532,3.532,0,0,0,.1.564c.049.189.061.29.037.3l.085.836a1.049,1.049,0,0,0,.072.425.011.011,0,0,0-.012.012.948.948,0,0,0,.019.169c.012.073.022.277.03.613s.02.624.037.867a2.556,2.556,0,0,1,.012.418.273.273,0,0,0,.049.164.217.217,0,0,0,.134.193.308.308,0,0,0,.413,0,1.3,1.3,0,0,1,.261-.061.225.225,0,0,0,.1-.024q.073,0,.195-.012c0,.016.037,0,.108-.061.016,0,.024-.038.024-.115s.014-.115.042-.115a.051.051,0,0,1,.054.037v-.133q-.047-.049,0-.146l.014-.352a.856.856,0,0,0,.035-.291.574.574,0,0,0-.023-.23v-.181a2.223,2.223,0,0,1-.037-.57,1.488,1.488,0,0,0-.073-.655,1.169,1.169,0,0,0-.037-.291.688.688,0,0,0,0-.327l-.024-.388-.061-.413a2.846,2.846,0,0,0-.023-.291A2.407,2.407,0,0,1,403.364,215.2Z" transform="translate(-390.214 -213.219)" fill="#fff"/>
                    <path id="Trazado_997069" data-name="Trazado 997069" d="M408.064,220.276l.073-.824-.049-.643a3.826,3.826,0,0,0-.049-.545,1.81,1.81,0,0,0,.012-.545.359.359,0,0,1-.049-.183,6.134,6.134,0,0,0,.018-.976.742.742,0,0,1,.005-.31.855.855,0,0,1-.066-.254,1.182,1.182,0,0,1-.031-.315.727.727,0,0,0,.618-.206,2.015,2.015,0,0,0,.363-.667.865.865,0,0,0-.115-.394c-.053-.069-.087-.112-.1-.133a.778.778,0,0,0-.115-.1c-.061-.049-.1-.078-.122-.092s-.074-.049-.164-.11l-.169-.115a.326.326,0,0,0-.195-.1,3.2,3.2,0,0,1-.449-.176,1.5,1.5,0,0,0-.411-.158,2.081,2.081,0,0,0-1.177.036.777.777,0,0,0-.4.024.815.815,0,0,1-.352.157l-.618.3c-.129.13-.319.331-.57.606a4.639,4.639,0,0,0-.618,1.6,6.047,6.047,0,0,0-.037.812,4.613,4.613,0,0,0,.218,1.31.968.968,0,0,0,.11.3,1.315,1.315,0,0,0,.133.376,2.261,2.261,0,0,0,.254.484c.187.283.352.521.5.716.244.226.384.364.425.413s.077.089.11.122l.218.158,1.007.557a.816.816,0,0,0,.34.133.8.8,0,0,0,.437-.024.877.877,0,0,0,.364-.242c.041-.008.108-.073.206-.195a.745.745,0,0,1,.1-.061.644.644,0,0,0,.122-.085A1.662,1.662,0,0,0,408.064,220.276Zm-1.613-4.257q0,.134.061.85v.267a30.61,30.61,0,0,1,.11,3.2.809.809,0,0,1-.376-.23c-.122-.1-.271-.23-.449-.375l-.169-.183a1.285,1.285,0,0,1-.315-.291v-.012a1.474,1.474,0,0,0-.206-.3l-.133-.279-.085-.244a2.4,2.4,0,0,1-.231-.643l-.072-.5v-.327a1.534,1.534,0,0,0-.024-.244,1.3,1.3,0,0,1,.037-.352,1.638,1.638,0,0,1,.812-1.479.74.74,0,0,1,.608-.073.945.945,0,0,1,.411.169c-.008.114-.012.3-.012.57Z" transform="translate(-403.293 -213.202)" fill="#fff"/>
                  </g>
                </g>
              </g>
            </g>
          </g>
          <g id="Grupo_1162787" data-name="Grupo 1162787" transform="translate(93.522)">
            <g id="Grupo_1162784" data-name="Grupo 1162784" transform="translate(15.788 37.597)">
              <path id="Trazado_997070" data-name="Trazado 997070" d="M351.208,187.042l.076,0,14.168-.907a1.175,1.175,0,1,0-.15-2.345l-14.168.907a1.175,1.175,0,0,0,.074,2.348Z" transform="translate(-350.034 -183.786)" fill="#efca30"/>
            </g>
            <g id="Grupo_1162785" data-name="Grupo 1162785" transform="translate(9.838 16.431)">
              <path id="Trazado_997071" data-name="Trazado 997071" d="M358.086,179.692a1.169,1.169,0,0,0,.76-.28l10.814-9.2a1.175,1.175,0,1,0-1.522-1.79l-10.814,9.2a1.176,1.176,0,0,0,.762,2.072Z" transform="translate(-356.91 -168.142)" fill="#efca30"/>
            </g>
            <g id="Grupo_1162786" data-name="Grupo 1162786">
              <path id="Trazado_997072" data-name="Trazado 997072" d="M369.577,171.6a1.176,1.176,0,0,0,1.1-.754l5.1-13.249a1.176,1.176,0,0,0-2.195-.846L368.479,170a1.176,1.176,0,0,0,.675,1.52A1.128,1.128,0,0,0,369.577,171.6Z" transform="translate(-368.401 -155.999)" fill="#efca30"/>
            </g>
          </g>
        </g>
        <g id="Grupo_1162794" data-name="Grupo 1162794" transform="translate(958.647 77.206)">
          <g id="Grupo_1162792" data-name="Grupo 1162792" transform="translate(0 26.89)">
            <path id="Trazado_997073" data-name="Trazado 997073" d="M37.811,76.932h97.94a2.728,2.728,0,0,1,2.728,2.728v35.315a2.728,2.728,0,0,1-2.728,2.728H66.2L49.613,130.716V117.7h-11.8a2.728,2.728,0,0,1-2.728-2.728V79.66A2.725,2.725,0,0,1,37.811,76.932Z" transform="translate(-35.085 -76.932)" fill="#c1dffe"/>
            <g id="Grupo_1162791" data-name="Grupo 1162791" transform="translate(17.363 14.792)">
              <g id="Grupo_1162789" data-name="Grupo 1162789">
                <path id="Trazado_997074" data-name="Trazado 997074" d="M47.485,89.526H116.2a.831.831,0,1,0,0-1.662H47.485a.831.831,0,1,0,0,1.662Z" transform="translate(-46.653 -87.864)" fill="#fff"/>
              </g>
              <g id="Grupo_1162790" data-name="Grupo 1162790" transform="translate(44.958 10.837)">
                <path id="Trazado_997075" data-name="Trazado 997075" d="M47.655,97.535H71.182a.831.831,0,1,0,0-1.662H47.655a.831.831,0,1,0,0,1.662Z" transform="translate(-46.823 -95.873)" fill="#fff"/>
              </g>
            </g>
          </g>
          <g id="Grupo_1162793" data-name="Grupo 1162793" transform="translate(30.551)">
            <ellipse id="Elipse_12429" data-name="Elipse 12429" cx="16.342" cy="16.342" rx="16.342" ry="16.342" transform="matrix(-0.229, -0.974, 0.974, -0.229, 7.472, 39.29)" fill="#dd5853"/>
            <path id="Trazado_997076" data-name="Trazado 997076" d="M82.423,73.424l-6.117,4.469-7.278-9.244" transform="translate(-55.507 -52.966)" fill="none" stroke="#fff" stroke-linecap="round" stroke-linejoin="round" stroke-miterlimit="10" stroke-width="2.183"/>
          </g>
        </g>
        <g id="Grupo_1162865" data-name="Grupo 1162865" transform="translate(0 0.003)">
          <g id="Grupo_1162866" data-name="Grupo 1162866">
            <g id="Grupo_1162853" data-name="Grupo 1162853" clip-path="url(#clip-path-3)">
              <g id="Grupo_1162795" data-name="Grupo 1162795" transform="translate(685.838 258.603)">
                <path id="Trazado_997077" data-name="Trazado 997077" d="M167.31,269.441c-8.488,6.525-15.991,4.219-25.645,5.013-11.1.913-22.358,4.655-32.288,9.657-4.958,7.247-6.727,15.253-8.757,24.481a147.411,147.411,0,0,1-5.979,21.446h9.612L98.6,369.121H60.461L54.34,330.038H64.865c.064-2.019.179-4.521.307-7.273.219-4.717.467-10.042.528-14.662a3.377,3.377,0,0,1-.314.234c-3.134-7.63-5.725-17.5-14.283-20.039-6.225-1.847-12.864-1.613-19.262-2.712a46.739,46.739,0,0,1-12.988-4.259c-2.622-1.313-5.207-2.954-6.792-5.419C-.284,256.717,39.526,257.7,47.489,259.492c9.973,2.247,17.44,9.925,20.333,19.557a30.836,30.836,0,0,1,.976,4.38c.939,6.341.089,12.795-.76,19.147a9.769,9.769,0,0,1-1.62,4.847c-.043,4.791-.306,10.42-.536,15.374-.127,2.74-.244,5.231-.306,7.239H82.454l.632-6.215C68.673,291.929,69.852,254.274,70.491,220a50.206,50.206,0,0,1,.659-8.626c2.368-12.206,14.987-21.489,27.344-20.117a21.638,21.638,0,0,1,13.286,6.473,16.634,16.634,0,0,1,3.227,4.973c4.591,11.1,1.464,27.427-.122,38.994a139.108,139.108,0,0,1-12.172,41.922c-2.959,6.455-7.2,11.743-10.842,17.622-3.618,5.847-5.567,13.3-7.81,20l-.894,8.791H93.886a145.739,145.739,0,0,0,6.044-21.6c1.959-8.907,3.729-16.928,8.664-24.285,6.759-20.337,30.352-38.886,52.24-40.16,7.254-.422,11.469,3.682,12.673,8.936A16.653,16.653,0,0,1,167.31,269.441Zm-67.871,6c.787-5.5-4.437-3.53-5.365,1.271C92.542,284.394,98.793,278.516,99.439,275.44ZM91.96,214.827c-.448-5.886-5.457-9.44-8.461-5.093C82.154,215.684,93.374,223.9,91.96,214.827Zm-4.59,19.893c2.939-1.647-1.21-7.619-2.219-8.385C78.462,223.971,85.732,235.25,87.371,234.72Zm46.08,24.628c-.5-2.468-2.05-1.265-2.157-1.377C125.264,267.269,134.28,263.758,133.451,259.348Zm17.809,3.3c-7.041,1.325,4.678,7.666,5.99,5.139C158.795,264,152.575,263.06,151.26,262.645Zm11.619-.2c-.545-3.387-5.576-3.211-6.852-2.477C154.611,263.763,162.732,263.938,162.878,262.447Z" transform="translate(236.676 -191.124)" fill="#447ca8" opacity="0.3"/>
                <path id="Trazado_997078" data-name="Trazado 997078" d="M349.4,269.441c-8.488,6.525-15.991,4.219-25.645,5.013-11.1.913-22.358,4.655-32.288,9.657-4.958,7.247-6.727,15.253-8.757,24.481a147.4,147.4,0,0,1-5.979,21.446h9.612l-5.65,39.083H242.552l-6.121-39.083h10.525c.064-2.019.179-4.521.307-7.273.221-4.717.467-10.042.528-14.662a3.378,3.378,0,0,1-.314.234c-3.134-7.63-5.725-17.5-14.283-20.039-6.225-1.847-12.864-1.613-19.262-2.712a46.739,46.739,0,0,1-12.988-4.259c-2.622-1.313-5.207-2.954-6.792-5.419-12.344-19.192,27.466-18.211,35.429-16.417,9.973,2.247,17.44,9.925,20.333,19.557a31.213,31.213,0,0,1,.976,4.38c.939,6.341.089,12.795-.76,19.147a9.757,9.757,0,0,1-1.621,4.847c-.043,4.791-.3,10.42-.536,15.374-.127,2.74-.244,5.231-.306,7.239h16.879l.632-6.215C250.764,291.929,251.944,254.274,252.583,220a50.207,50.207,0,0,1,.659-8.626c2.368-12.206,14.987-21.489,27.344-20.117a21.637,21.637,0,0,1,13.286,6.473A16.633,16.633,0,0,1,297.1,202.7c4.591,11.1,1.464,27.427-.122,38.994A139.108,139.108,0,0,1,284.8,283.62c-2.959,6.455-7.2,11.743-10.842,17.622-3.618,5.847-5.567,13.3-7.811,20l-.894,8.791h10.719a145.726,145.726,0,0,0,6.044-21.6c1.959-8.907,3.729-16.928,8.664-24.285,6.759-20.337,30.352-38.886,52.24-40.16,7.254-.422,11.469,3.682,12.673,8.936A16.65,16.65,0,0,1,349.4,269.441Zm-67.871,6c.787-5.5-4.437-3.53-5.365,1.271C274.633,284.394,280.885,278.516,281.53,275.44Zm-7.48-60.613c-.448-5.886-5.457-9.44-8.461-5.093C264.246,215.684,275.464,223.9,274.05,214.827Zm-4.588,19.893c2.939-1.647-1.21-7.619-2.219-8.385C260.553,223.971,267.822,235.25,269.462,234.72Zm46.08,24.628c-.5-2.468-2.05-1.265-2.157-1.377C307.356,267.269,316.372,263.758,315.542,259.348Zm17.809,3.3c-7.041,1.325,4.678,7.666,5.99,5.139C340.886,264,334.666,263.06,333.351,262.645Zm11.617-.2c-.545-3.387-5.575-3.211-6.851-2.477C336.7,263.763,344.824,263.938,344.969,262.447Z" transform="translate(-191.797 -191.124)" fill="#447ca8" opacity="0.3"/>
              </g>
              <g id="Grupo_1162843" data-name="Grupo 1162843" transform="translate(730.301 115.564)">
                <path id="Trazado_997079" data-name="Trazado 997079" d="M220.514,349.65l5.431,18.557s-9.335,12.278-33.352,21.886l11.5-19.912-3.18-18.358Z" transform="translate(-107.325 7.886)" fill="#0c0b36"/>
                <path id="Trazado_997080" data-name="Trazado 997080" d="M247.623,348.592l2.873,19.121s-10.908,10.9-36.005,17.176l14.085-18.173-.668-18.62Z" transform="translate(-161.504 7.337)" fill="#0c0b36"/>
                <g id="Grupo_1162796" data-name="Grupo 1162796" transform="translate(169.819)">
                  <path id="Trazado_997081" data-name="Trazado 997081" d="M122.428,113.035c-2.641-1.637-5.3-3.68-6.271-6.631s.631-6.888,3.718-7.24c1.007-.115,2.026.152,3.035.073,2.419-.189,4.257-2.288,5.326-4.466s1.668-4.6,3.073-6.581,4.021-3.434,6.251-2.479c1.254.537,2.113,1.71,3.261,2.448,2.644,1.7,6.1.783,9.151.037s6.8-1.061,8.834,1.334c3.169,3.726-.908,9.982,1.576,14.194,1.377,2.335,4.32,3.214,6.217,5.151,3.25,3.32,2.124,9.746-2.062,11.764-1.873.9-4.031.973-6.018,1.584s-4,2.113-4.059,4.192" transform="translate(-115.874 -85.409)" fill="#0c0b36"/>
                </g>
                <g id="Grupo_1162799" data-name="Grupo 1162799" transform="translate(111.935 53.007)">
                  <path id="Trazado_997082" data-name="Trazado 997082" d="M152.988,271.437,147.01,391.52s39.7-4.243,43.278,8.469H96s6.891-8.469,41.083-8.469l-7.928-120.083Z" transform="translate(-52.907 -72.736)" fill="#edb636"/>
                  <path id="Trazado_997083" data-name="Trazado 997083" d="M152.988,271.437,147.01,391.52s39.7-4.243,43.278,8.469H96s6.891-8.469,41.083-8.469l-7.928-120.083Z" transform="translate(-52.907 -72.736)" opacity="0.56" fill="url(#linear-gradient-3)"/>
                  <path id="Trazado_997084" data-name="Trazado 997084" d="M145.568,292,128.53,320.52,125.943,286.1Z" transform="translate(-48.699 -67.56)" fill="#0e133a"/>
                  <g id="Grupo_1162797" data-name="Grupo 1162797">
                    <path id="Trazado_997085" data-name="Trazado 997085" d="M86.588,238.041c42.106-46.068,34.387-92.742,70.276-108.521,27.731-12.192,65.575-4.374,81.015,52.906,21.281,78.945,6.6,153.677-83.15,166.759-39.568,5.767-76.665-9.378-87.436-29.709S50.034,278.034,86.588,238.041Z" transform="translate(-58.855 -124.584)" fill="#540cde"/>
                  </g>
                  <g id="Grupo_1162798" data-name="Grupo 1162798" opacity="0.74">
                    <path id="Trazado_997086" data-name="Trazado 997086" d="M86.588,238.041c42.106-46.068,34.387-92.742,70.276-108.521,27.731-12.192,65.575-4.374,81.015,52.906,21.281,78.945,6.6,153.677-83.15,166.759-39.568,5.767-76.665-9.378-87.436-29.709S50.034,278.034,86.588,238.041Z" transform="translate(-58.855 -124.584)" fill="url(#linear-gradient-4)"/>
                  </g>
                </g>
                <path id="Trazado_997087" data-name="Trazado 997087" d="M160.588,124.447a36.471,36.471,0,0,0-16.2,3.694l-.152-2.223c-30.314,4.583-35.519,25.693-55.991,31.876a63.433,63.433,0,0,1,5.28,36.441s12.554.532,32.019-7.723c6.087,20.115-1.442,45.841-1.442,45.841,12.505-1.279,30.034-15.039,37.307-29.163a73.149,73.149,0,0,0,3.7-8.472,69.374,69.374,0,0,1,36.818,8.481s.07-.139.183-.394c-8.825,28.732-32.649,45.376-56.8,49.645a89.51,89.51,0,0,1-26.419.655l-1.15,3.239,87.62.654-1.307-22.886S239.362,123.933,160.588,124.447Z" transform="translate(47.875 -71.626)" fill="#66b1c4"/>
                <path id="Trazado_997088" data-name="Trazado 997088" d="M220.647,212.971l7.9-12.307c42.5,9.808,75.2,6.539,75.2,6.539,6.539,13.077,4.439,31.181,4.439,31.181s.942,45.179-64,52.707-84.709,28.236-69.649,120.476c0,0-14.118,10.354-33.883,2.824a41.153,41.153,0,0,1-25.413-3.764s-55.527-107.084.005-166.381C145.882,211.522,220.647,212.971,220.647,212.971Z" transform="translate(-51.813 -44.716)" fill="#b82ae8"/>
                <g id="Grupo_1162800" data-name="Grupo 1162800" transform="translate(106.47 162.623)">
                  <path id="Trazado_997089" data-name="Trazado 997089" d="M235.9,205.937a76.292,76.292,0,0,1,2.4,12.728,56.27,56.27,0,0,1,.187,6.282c-.039,1.624-.3,3.268-.283,4.886.005.72.039,1.426-.014,2.149a27.217,27.217,0,0,1-4.212,12.224c-4.357,7-11.163,12.163-18.38,15.944-12.341,6.469-26.026,9.182-39.662,11.347a226.283,226.283,0,0,0-26.565,5.568,91.713,91.713,0,0,0-21.883,9.024A55.291,55.291,0,0,0,111.1,300.712,63.339,63.339,0,0,0,101,323.153c-2.6,10.515-3.232,21.453-3.017,32.249a289.846,289.846,0,0,0,4.818,44.432q1.12,6.361,2.413,12.689c.122.6-.8.857-.92.254a360.346,360.346,0,0,1-6.819-47.349c-.782-11.631-.779-23.413,1.074-34.948a73.965,73.965,0,0,1,8.228-24.83,54.51,54.51,0,0,1,14.562-16.579,75.2,75.2,0,0,1,20.192-10.5,163.149,163.149,0,0,1,25.135-6.443c5.293-.985,10.622-1.728,15.927-2.641a131.222,131.222,0,0,0,22.221-5.671c9.25-3.331,18.454-8.132,25.022-15.624a29.759,29.759,0,0,0,7.112-13.96,18.549,18.549,0,0,0,.342-3.734c0-.219-.032-.441-.032-.659,0-1.5.229-3.025.273-4.531a56.831,56.831,0,0,0-.162-6.476,74.371,74.371,0,0,0-2.383-12.639.476.476,0,0,1,.917-.253Z" transform="translate(-96.975 -205.597)" fill="#fff"/>
                </g>
                <g id="Grupo_1162801" data-name="Grupo 1162801" transform="translate(226.465 162.721)">
                  <path id="Trazado_997090" data-name="Trazado 997090" d="M98.514,206c1.855,5.986,7.917,10.122,14.085,10.346a13.675,13.675,0,0,0,5.12-.786c.579-.207.829.716.254.921-6.27,2.241-13.69-.265-17.794-5.392a14.7,14.7,0,0,1-2.586-4.835c-.184-.589.737-.84.92-.254Z" transform="translate(-97.569 -205.67)" fill="#fff"/>
                </g>
                <g id="Grupo_1162802" data-name="Grupo 1162802" transform="translate(221.55 165.242)">
                  <path id="Trazado_997091" data-name="Trazado 997091" d="M97.93,207.869c2.3,7.934,9.946,13.75,18.067,14.578a18.95,18.95,0,0,0,6.829-.522.478.478,0,0,1,.254.921c-8.373,2.237-17.625-1.459-22.8-8.258a19.748,19.748,0,0,1-3.266-6.465.478.478,0,0,1,.92-.254Z" transform="translate(-96.989 -207.533)" fill="#fff"/>
                </g>
                <g id="Grupo_1162816" data-name="Grupo 1162816" transform="translate(50.067 21.195)">
                  <g id="Grupo_1162807" data-name="Grupo 1162807">
                    <g id="Grupo_1162803" data-name="Grupo 1162803">
                      <path id="Trazado_997092" data-name="Trazado 997092" d="M272.734,148.683s-24.971,20.9-52.768,17.21-35.491-35.228-36.2-46.709c0,0-.359-5.389-3.53-8.743a38.09,38.09,0,0,0-9.871-8.551,4.818,4.818,0,0,0-2-.806,1.82,1.82,0,0,0-1.832.9,2.473,2.473,0,0,0,.157,1.911,12.76,12.76,0,0,0,2.431,3.86,18.653,18.653,0,0,1-6.334-.559,48.606,48.606,0,0,1-7.257-3.46,5.212,5.212,0,0,0-2.277-.767,1.856,1.856,0,0,0-1.875,1.235,1.434,1.434,0,0,0-.015.572c-2.8-1.5-4.165-.43-4.579.2a2.081,2.081,0,0,0,.206,2.219c-1.817-.6-3.262-.507-4.19,1.353-.526,1.054.191,2.414,1.645,3.789a1.656,1.656,0,0,0-.4.674c-.4,1.288.529,2.712,1.436,3.636a22.416,22.416,0,0,0,12.463,6.443,88.655,88.655,0,0,0,11.672,44.132c17.521,30.241,59.362,51.17,109.173,20.468Z" transform="translate(-142.631 -101.073)" fill="#c483fb"/>
                    </g>
                    <g id="Grupo_1162804" data-name="Grupo 1162804">
                      <path id="Trazado_997093" data-name="Trazado 997093" d="M272.734,148.683s-24.971,20.9-52.768,17.21-35.491-35.228-36.2-46.709c0,0-.359-5.389-3.53-8.743a38.09,38.09,0,0,0-9.871-8.551,4.818,4.818,0,0,0-2-.806,1.82,1.82,0,0,0-1.832.9,2.473,2.473,0,0,0,.157,1.911,12.76,12.76,0,0,0,2.431,3.86,18.653,18.653,0,0,1-6.334-.559,48.606,48.606,0,0,1-7.257-3.46,5.212,5.212,0,0,0-2.277-.767,1.856,1.856,0,0,0-1.875,1.235,1.434,1.434,0,0,0-.015.572c-2.8-1.5-4.165-.43-4.579.2a2.081,2.081,0,0,0,.206,2.219c-1.817-.6-3.262-.507-4.19,1.353-.526,1.054.191,2.414,1.645,3.789a1.656,1.656,0,0,0-.4.674c-.4,1.288.529,2.712,1.436,3.636a22.416,22.416,0,0,0,12.463,6.443,88.655,88.655,0,0,0,11.672,44.132c17.521,30.241,59.362,51.17,109.173,20.468Z" transform="translate(-142.631 -101.073)" fill="#c483fb"/>
                    </g>
                    <g id="Grupo_1162805" data-name="Grupo 1162805">
                      <path id="Trazado_997094" data-name="Trazado 997094" d="M272.734,148.683s-24.971,20.9-52.768,17.21-35.491-35.228-36.2-46.709c0,0-.359-5.389-3.53-8.743a38.09,38.09,0,0,0-9.871-8.551,4.818,4.818,0,0,0-2-.806,1.82,1.82,0,0,0-1.832.9,2.473,2.473,0,0,0,.157,1.911,12.76,12.76,0,0,0,2.431,3.86,18.653,18.653,0,0,1-6.334-.559,48.606,48.606,0,0,1-7.257-3.46,5.212,5.212,0,0,0-2.277-.767,1.856,1.856,0,0,0-1.875,1.235,1.434,1.434,0,0,0-.015.572c-2.8-1.5-4.165-.43-4.579.2a2.081,2.081,0,0,0,.206,2.219c-1.817-.6-3.262-.507-4.19,1.353-.526,1.054.191,2.414,1.645,3.789a1.656,1.656,0,0,0-.4.674c-.4,1.288.529,2.712,1.436,3.636a22.416,22.416,0,0,0,12.463,6.443,88.655,88.655,0,0,0,11.672,44.132c17.521,30.241,59.362,51.17,109.173,20.468Z" transform="translate(-142.631 -101.073)" fill="#e89c3b"/>
                    </g>
                    <path id="Trazado_997095" data-name="Trazado 997095" d="M195.141,174.308c-31.5,20.5-54.029,19.541-54.029,19.541a63.417,63.417,0,0,0-5.28-36.441c20.472-6.182,25.677-27.293,55.991-31.876" transform="translate(-49.785 -92.438)" fill="#66b1c4"/>
                    <g id="Grupo_1162806" data-name="Grupo 1162806" transform="translate(94.596 60.886)">
                      <path id="Trazado_997096" data-name="Trazado 997096" d="M167.513,146.3a62.246,62.246,0,0,1,8.2,30.445,44.658,44.658,0,0,1-.852,8.622c-.118.582-1.008.336-.89-.246,2.042-10.166.206-20.994-3.541-30.551a61.2,61.2,0,0,0-3.711-7.8.462.462,0,0,1,.8-.465Z" transform="translate(-166.652 -146.072)" fill="#fff"/>
                    </g>
                    <path id="Trazado_997097" data-name="Trazado 997097" d="M207.977,155.466c3.718-1.338,9.689,1.641,13.336,6.654,2.668,3.667,2.931,7.971,1.651,10.239a100.731,100.731,0,0,1-11.918-9.559,29.347,29.347,0,0,1-5.376-6.137A6.571,6.571,0,0,1,207.977,155.466Z" transform="translate(-172.847 -81.983)" fill="#0e133a"/>
                  </g>
                  <g id="Grupo_1162809" data-name="Grupo 1162809" transform="translate(1.896 10.536)">
                    <path id="Trazado_997098" data-name="Trazado 997098" d="M245.211,114.08c-4.109-.727-6.922-2.694-9.392-3.881-1.335-.643-2.77-1.413-4.211-1.066" transform="translate(-231.344 -108.794)" fill="#0c0b36"/>
                    <g id="Grupo_1162808" data-name="Grupo 1162808">
                      <path id="Trazado_997099" data-name="Trazado 997099" d="M245.209,114.4a23.468,23.468,0,0,1-6.732-2.48c-.877-.461-1.741-.948-2.633-1.383-1.258-.614-2.648-1.392-4.1-1.082-.337.072-.48-.445-.142-.517a6.025,6.025,0,0,1,3.859.823c.971.465,1.919.97,2.868,1.478a24.05,24.05,0,0,0,7.017,2.645c.34.061.2.578-.142.517Z" transform="translate(-231.414 -108.86)" fill="#0e133a"/>
                    </g>
                  </g>
                  <g id="Grupo_1162811" data-name="Grupo 1162811" transform="translate(3.988 5.766)">
                    <path id="Trazado_997100" data-name="Trazado 997100" d="M243.9,111.894c-9.776-2.758-11-5.006-14.456-6.353" transform="translate(-229.188 -105.262)" fill="#0c0b36"/>
                    <g id="Grupo_1162810" data-name="Grupo 1162810">
                      <path id="Trazado_997101" data-name="Trazado 997101" d="M243.887,112.225a50.356,50.356,0,0,1-8.152-2.956c-1.464-.7-2.832-1.563-4.236-2.375a15.306,15.306,0,0,0-2.069-1.023c-.318-.124-.179-.643.142-.517a25.587,25.587,0,0,1,3.671,1.955,35.711,35.711,0,0,0,5.442,2.648c1.75.674,3.541,1.238,5.345,1.75a.269.269,0,0,1-.142.518Z" transform="translate(-229.249 -105.335)" fill="#0e133a"/>
                    </g>
                  </g>
                  <g id="Grupo_1162813" data-name="Grupo 1162813" transform="translate(24.35 14.426)">
                    <g id="Grupo_1162812" data-name="Grupo 1162812">
                      <path id="Trazado_997102" data-name="Trazado 997102" d="M227,115.009a5.223,5.223,0,0,0-7.859-1.388c-.319.3-.8-.181-.479-.479a5.906,5.906,0,0,1,8.921,1.525c.2.387-.383.729-.583.342Z" transform="translate(-218.561 -111.735)" fill="#0c0b36"/>
                    </g>
                  </g>
                  <g id="Grupo_1162815" data-name="Grupo 1162815" transform="translate(8.782 3.66)">
                    <path id="Trazado_997103" data-name="Trazado 997103" d="M239.523,109.308c-3.634-.691-8.113-3.46-11.306-5.33" transform="translate(-227.952 -103.708)" fill="#0c0b36"/>
                    <g id="Grupo_1162814" data-name="Grupo 1162814">
                      <path id="Trazado_997104" data-name="Trazado 997104" d="M239.521,109.637a22.531,22.531,0,0,1-5.82-2.218c-1.893-.967-3.717-2.065-5.55-3.139a.268.268,0,0,1,.271-.463c1.793,1.051,3.576,2.123,5.424,3.074a22.263,22.263,0,0,0,5.817,2.229c.34.066.2.583-.142.517Z" transform="translate(-228.022 -103.778)" fill="#0e133a"/>
                    </g>
                  </g>
                </g>
                <g id="Grupo_1162818" data-name="Grupo 1162818" transform="translate(173.418 154.021)">
                  <g id="Grupo_1162817" data-name="Grupo 1162817">
                    <path id="Trazado_997105" data-name="Trazado 997105" d="M144.859,203.617a11.018,11.018,0,0,0,9.321-4.253c.285-.363.792.149.509.509a11.677,11.677,0,0,1-9.829,4.464c-.46-.034-.464-.752,0-.72Z" transform="translate(-144.514 -199.24)" fill="#eeeef1"/>
                  </g>
                </g>
                <g id="Grupo_1162820" data-name="Grupo 1162820" transform="translate(170.653 155.401)">
                  <g id="Grupo_1162819" data-name="Grupo 1162819">
                    <path id="Trazado_997106" data-name="Trazado 997106" d="M140.552,208.485a19.2,19.2,0,0,0,14.834-4.655,17.7,17.7,0,0,0,2.989-3.407c.256-.383.878-.023.621.363a19.743,19.743,0,0,1-13.727,8.385,18.644,18.644,0,0,1-4.715.031c-.455-.054-.461-.773,0-.717Z" transform="translate(-140.21 -200.26)" fill="#eeeef1"/>
                  </g>
                </g>
                <g id="Grupo_1162821" data-name="Grupo 1162821" transform="translate(181.549 54.106)">
                  <path id="Trazado_997107" data-name="Trazado 997107" d="M119.229,127.848c2.885,4.3,8.133,6.135,13.1,6.487a30.281,30.281,0,0,0,16.1-3.357,19.251,19.251,0,0,0,6.56-5.383c.35-.472,1.151-.012.8.467-3.285,4.438-8.619,7.058-13.878,8.339-5.454,1.33-11.566,1.426-16.815-.774a14.794,14.794,0,0,1-6.667-5.311c-.331-.5.468-.959.8-.468Z" transform="translate(-118.352 -125.397)" fill="#fff"/>
                </g>
                <path id="Trazado_997108" data-name="Trazado 997108" d="M132,111.182a5.544,5.544,0,0,0-6.661-4.04,5.428,5.428,0,0,0-4.1,6.545,5.543,5.543,0,0,0,6.661,4.04A5.43,5.43,0,0,0,132,111.182Z" transform="translate(83.228 -77.788)" fill="#c483fb"/>
                <g id="Grupo_1162823" data-name="Grupo 1162823" transform="translate(207.307 31.897)">
                  <g id="Grupo_1162822" data-name="Grupo 1162822">
                    <path id="Trazado_997109" data-name="Trazado 997109" d="M127.694,109.541a2.915,2.915,0,0,0-2.653,3.207.288.288,0,0,1-.195.342.28.28,0,0,1-.342-.195,3.477,3.477,0,0,1,3.191-3.912c.357-.018.357.54,0,.557Z" transform="translate(-124.463 -108.983)" fill="#0e133a"/>
                  </g>
                </g>
                <path id="Trazado_997110" data-name="Trazado 997110" d="M244.855,225.288,129.308,225.1l-.647-4.847,110.658.18a5.594,5.594,0,0,1,5.537,4.855Z" transform="translate(-39.729 -37.8)" fill="#0c0b36"/>
                <path id="Trazado_997112" data-name="Trazado 997112" d="M268.58,241.709l-89.936-.146c-3.078-.005-5.7-2.521-6.186-5.94l-7.712-53.944c-.614-4.3,2.339-8.2,6.209-8.19l89.936.146a6.552,6.552,0,0,1,6.186,5.94l7.712,53.944C275.4,237.818,272.45,241.715,268.58,241.709Z" transform="translate(-118.46 -54.311)" fill="#0c0b36"/>
                <path id="Trazado_997113" data-name="Trazado 997113" d="M205.83,194.733a5.6,5.6,0,1,1-4.35,6.449A5.5,5.5,0,0,1,205.83,194.733Zm-2.636,6.146a3.664,3.664,0,1,0,2.948-4.369A3.728,3.728,0,0,0,203.194,200.878Z" transform="translate(-105.492 -46.839)" fill="#66b1c4"/>
                <g id="Grupo_1162831" data-name="Grupo 1162831" transform="translate(127.786 73.435)">
                  <path id="Trazado_997114" data-name="Trazado 997114" d="M215.943,146.2l-35.836,2.375s7.442,21.295-5.759,46.93-46.666,21.945-58.124,18.571l-.035.065c-4.426-1.126-9.038-2.515-11.742-3.41-4.051-1.341-6.483-2.193-7.76-.388a3.609,3.609,0,0,0,.21,4.02,3.541,3.541,0,0,0-2.924,2.268c-.5,1.5.572,2.721,1.835,3.875a3.581,3.581,0,0,0-2.818,2.147c-.551,1.645.691,3.044,2.23,4.2a3.046,3.046,0,0,0-1.36,1.766c-.7,3.214,6.818,7.668,13.839,10.535a92.476,92.476,0,0,0,50.553,5.618C193.842,238.478,228.733,205.325,215.943,146.2Z" transform="translate(-92.857 -137.38)" fill="#e89c3b"/>
                  <g id="Grupo_1162825" data-name="Grupo 1162825" transform="translate(3.783 76.741)">
                    <path id="Trazado_997115" data-name="Trazado 997115" d="M184.7,199.562a28.441,28.441,0,0,1-7.109-2.977" transform="translate(-177.336 -196.332)" fill="#0c0b36"/>
                    <g id="Grupo_1162824" data-name="Grupo 1162824">
                      <path id="Trazado_997116" data-name="Trazado 997116" d="M184.7,199.87a29.206,29.206,0,0,1-7.17-3,.252.252,0,0,1,.254-.434,28.61,28.61,0,0,0,7.049,2.951.251.251,0,0,1-.134.484Z" transform="translate(-177.405 -196.398)" fill="#0e133a"/>
                    </g>
                  </g>
                  <g id="Grupo_1162827" data-name="Grupo 1162827" transform="translate(1.669 89.278)">
                    <path id="Trazado_997117" data-name="Trazado 997117" d="M186.257,208.828a28.462,28.462,0,0,1-7.109-2.977" transform="translate(-178.898 -205.598)" fill="#0c0b36"/>
                    <g id="Grupo_1162826" data-name="Grupo 1162826">
                      <path id="Trazado_997118" data-name="Trazado 997118" d="M186.258,209.136a29.207,29.207,0,0,1-7.17-3,.252.252,0,0,1,.254-.434,28.663,28.663,0,0,0,7.049,2.951.251.251,0,0,1-.134.484Z" transform="translate(-178.967 -205.664)" fill="#0e133a"/>
                    </g>
                  </g>
                  <g id="Grupo_1162829" data-name="Grupo 1162829" transform="translate(2.487 82.75)">
                    <path id="Trazado_997119" data-name="Trazado 997119" d="M185.66,203.977a28.564,28.564,0,0,1-7.128-2.95" transform="translate(-178.285 -200.773)" fill="#0c0b36"/>
                    <g id="Grupo_1162828" data-name="Grupo 1162828">
                      <path id="Trazado_997120" data-name="Trazado 997120" d="M185.659,204.285a29.172,29.172,0,0,1-7.187-2.975.252.252,0,0,1,.254-.434,28.688,28.688,0,0,0,7.068,2.925.252.252,0,0,1-.135.484Z" transform="translate(-178.35 -200.839)" fill="#0e133a"/>
                    </g>
                  </g>
                  <path id="Trazado_997121" data-name="Trazado 997121" d="M136.717,141.851c10.045,37.434.555,55.968.555,55.968a69.214,69.214,0,0,0-36.889-8.474c3.688-18.161-4.917-26.488-7.738-49.663" transform="translate(-15.257 -139.682)" fill="#66b1c4"/>
                  <g id="Grupo_1162830" data-name="Grupo 1162830" transform="translate(86.497 40.3)">
                    <path id="Trazado_997122" data-name="Trazado 997122" d="M94.059,170.121c10.155-1.679,20.728-.022,30.248,3.739a63.358,63.358,0,0,1,7.3,3.427c.539.3.057,1.122-.482.824a61.078,61.078,0,0,0-28.214-7.685,47.923,47.923,0,0,0-8.6.617c-.6.1-.859-.821-.253-.921Z" transform="translate(-93.713 -169.466)" fill="#fff"/>
                  </g>
                  <path id="Trazado_997123" data-name="Trazado 997123" d="M150.14,215.412c-2.575-3.163-9.425-3.668-15.3-1.126-4.3,1.859-6.813,5.561-6.883,8.263,5.058.146,18.38-2.545,23.587-4.847A6.811,6.811,0,0,0,150.14,215.412Z" transform="translate(-73.249 -113.914)" fill="#0e133a"/>
                </g>
                <g id="Grupo_1162832" data-name="Grupo 1162832" transform="translate(213.412 58.96)">
                  <path id="Trazado_997124" data-name="Trazado 997124" d="M110,192.24c1.725-9.792.329-19.772.168-29.627a82.9,82.9,0,0,1,.988-14.541c.7-4.345,1.928-8.764,4.544-12.371,2.574-3.549,6.361-6.29,10.811-6.714.612-.058.608.9,0,.955a14.323,14.323,0,0,0-9.692,5.845c-2.656,3.448-3.92,7.733-4.646,11.965A79.08,79.08,0,0,0,111.113,162c.054,4.845.409,9.68.583,14.521a76.131,76.131,0,0,1-.777,15.977c-.106.6-1.026.348-.92-.254Z" transform="translate(-109.991 -128.984)" fill="#fff"/>
                </g>
                <g id="Grupo_1162833" data-name="Grupo 1162833" transform="translate(249.811 103.832)">
                  <path id="Trazado_997125" data-name="Trazado 997125" d="M92.5,190.024a108.989,108.989,0,0,0,3.173-21.307q.148-3.053.124-6.109a.478.478,0,0,1,.955,0,110.308,110.308,0,0,1-1.982,21.6q-.589,3.053-1.349,6.067a.478.478,0,0,1-.921-.253Z" transform="translate(-92.479 -162.147)" fill="#fff"/>
                </g>
                <path id="Trazado_997126" data-name="Trazado 997126" d="M138.761,138.653v-4.784s-11.646,3.333-12.431-6.951c-1.367-17.911-2.77-22.688,4.182-28.682s26.329.556,26.271,15.639l.478,21.883s-2.6,2.513-8.112,3.469A23.037,23.037,0,0,1,138.761,138.653Z" transform="translate(52.536 -81.659)" fill="#e89c3b"/>
                <path id="Trazado_997127" data-name="Trazado 997127" d="M140.325,110.019c.116.712-.05,1.331-.372,1.381s-.678-.486-.794-1.2.05-1.331.372-1.382S140.209,109.306,140.325,110.019Z" transform="translate(50.61 -77.144)" fill="#0c0b36"/>
                <path id="Trazado_997128" data-name="Trazado 997128" d="M147.122,111.044c.116.713-.05,1.331-.372,1.381s-.678-.486-.794-1.2.05-1.331.372-1.381S147.006,110.332,147.122,111.044Z" transform="translate(34.616 -76.783)" fill="#0c0b36"/>
                <path id="Trazado_997129" data-name="Trazado 997129" d="M131.944,125.621a19.462,19.462,0,0,0,9.78-6.07l-9.558,11.037Z" transform="translate(58.96 -73.354)" fill="#0c0b36"/>
                <path id="Trazado_997130" data-name="Trazado 997130" d="M141.333,112.839a6.327,6.327,0,0,0-7.6-4.611,6.2,6.2,0,0,0-4.68,7.469,6.327,6.327,0,0,0,7.6,4.611A6.193,6.193,0,0,0,141.333,112.839Z" transform="translate(63.324 -77.412)" fill="#0c0b36"/>
                <g id="Grupo_1162834" data-name="Grupo 1162834" transform="translate(178.065 35.367)">
                  <path id="Trazado_997131" data-name="Trazado 997131" d="M149.337,115.518a6.2,6.2,0,0,0-3.076-3.971c.214,2.79.506,6.02.8,9.892.009.129.041.231.054.356A6.13,6.13,0,0,0,149.337,115.518Z" transform="translate(-146.261 -111.547)" fill="#0c0b36"/>
                </g>
                <path id="Trazado_997132" data-name="Trazado 997132" d="M141.877,107.1l1.629-.379,2.172,8.974-3.91.911Z" transform="translate(41.715 -77.885)" fill="#0e133a"/>
                <path id="Trazado_997133" data-name="Trazado 997133" d="M142.458,105.7c.024.488-.663.917-1.533.958s-1.6-.325-1.62-.815.663-.917,1.533-.958S142.433,105.208,142.458,105.7Z" transform="translate(48.266 -78.534)" fill="#0c0b36"/>
                <path id="Trazado_997134" data-name="Trazado 997134" d="M148.8,106.46c.258.419-.138,1.118-.884,1.561s-1.559.461-1.817.042.138-1.118.884-1.56S148.541,106.04,148.8,106.46Z" transform="translate(32.763 -78.083)" fill="#0c0b36"/>
                <g id="Grupo_1162835" data-name="Grupo 1162835" transform="translate(184.534 39.783)">
                  <path id="Trazado_997135" data-name="Trazado 997135" d="M142.732,118.359a3.325,3.325,0,0,1-2.994-.754c-.246-.284-.7-.924-.129-1.357s1.471.074,2.218-.119c.731-.189,1.418-1.465,2.44-1.3.766.12,1.135.494,1.21,1.108.11.913-.943,2.074-2.6,2.425" transform="translate(-139.335 -114.811)" fill="#0c0b36"/>
                </g>
                <g id="Grupo_1162836" data-name="Grupo 1162836" transform="translate(170.814 89.987)">
                  <path id="Trazado_997136" data-name="Trazado 997136" d="M150.923,152.376a121.531,121.531,0,0,0,2.714,27.117c.551,2.622,1.162,5.232,1.8,7.834.147.6-.774.851-.92.254A144.511,144.511,0,0,1,150.1,160.5c-.139-2.7-.177-5.414-.131-8.121a.478.478,0,0,1,.955,0Z" transform="translate(-149.949 -151.915)" fill="#fff"/>
                </g>
                <g id="Grupo_1162837" data-name="Grupo 1162837" transform="translate(179.356 13.486)">
                  <path id="Trazado_997137" data-name="Trazado 997137" d="M125.344,98.339c-.471,2.13,1.835,3.977,4.009,4.142s4.278-.72,6.435-1.046,4.764.156,5.734,2.109.135,4.92,2.05,5.939c1.871,1,4.295-1.239,6.181-.272,1.455.746,1.76,3.053,3.35,3.431,1.311.311,2.518-1.1,2.521-2.448a6.412,6.412,0,0,0-1.6-3.634c-2.736-3.711-5.917-7.246-10.013-9.363s-9.264-2.606-13.255-.295" transform="translate(-125.282 -95.376)" fill="#0c0b36"/>
                </g>
                <g id="Grupo_1162838" data-name="Grupo 1162838" transform="translate(187.794 10.573)">
                  <path id="Trazado_997138" data-name="Trazado 997138" d="M146.561,116.627a.881.881,0,0,0,.881-.881V108.5a15.418,15.418,0,0,0-5.3-11.85,14.866,14.866,0,0,0-12.769-3.12c-2.885.521-5.244,2.062-4.757,2.062s1.542-.276,4.626-.716a15,15,0,0,1,11.76,3.119,13.658,13.658,0,0,1,4.673,10.505v7.25A.881.881,0,0,0,146.561,116.627Z" transform="translate(-124.556 -93.223)" fill="#fff"/>
                </g>
                <path id="Trazado_997139" data-name="Trazado 997139" d="M121.083,112.705a5.589,5.589,0,1,1,5.581,5.875A5.734,5.734,0,0,1,121.083,112.705Z" transform="translate(83.134 -77.846)" fill="#fff"/>
                <path id="Trazado_997140" data-name="Trazado 997140" d="M123,111.994a3,3,0,1,1,2.992,3.149A3.073,3.073,0,0,1,123,111.994Z" transform="translate(83.81 -77.134)" fill="#b82ae8"/>
                <g id="Grupo_1162839" data-name="Grupo 1162839" transform="translate(73.049 186.609)">
                  <path id="Trazado_997141" data-name="Trazado 997141" d="M155.218,406.628c-1.367-3.109-2.523-6.322-3.638-9.527a220.207,220.207,0,0,1-6.986-24.7,196.115,196.115,0,0,1-4.61-34.318,140.3,140.3,0,0,1,3.46-38.661c2.837-11.751,7.458-23.239,14.541-33.092a86.222,86.222,0,0,1,21-20.4A113.518,113.518,0,0,1,203.628,233.2a150.752,150.752,0,0,1,23.869-6.74,170.365,170.365,0,0,1,18.844-2.66c3.182-.268,6.38-.468,9.574-.479.139,0,.28,0,.419,0a.471.471,0,0,1,0,.942c-2.161-.024-4.328.091-6.484.222a164.612,164.612,0,0,0-16.774,1.913,158.722,158.722,0,0,0-22.752,5.458,122.154,122.154,0,0,0-24.637,10.892,90.258,90.258,0,0,0-22.322,18.288,85.8,85.8,0,0,0-16.409,29.523,127.663,127.663,0,0,0-6.158,38.612,182.068,182.068,0,0,0,3.216,35.668,221.478,221.478,0,0,0,6.875,27.222c1.469,4.579,3.061,9.133,4.92,13.569.034.081.131.313.222.518.238.548-.572,1.027-.816.474Z" transform="translate(-139.843 -223.325)" fill="#fff"/>
                </g>
                <g id="Grupo_1162840" data-name="Grupo 1162840" transform="translate(195.576 34.769)">
                  <path id="Trazado_997142" data-name="Trazado 997142" d="M125.282,116.946a20.6,20.6,0,0,0,13.486-5.709c.429-.413,1.082.239.654.654a21.585,21.585,0,0,1-14.14,5.981c-.594.019-.594-.9,0-.926Z" transform="translate(-124.836 -111.106)" fill="#fff"/>
                </g>
                <path id="Trazado_997143" data-name="Trazado 997143" d="M133.435,116.3a2.5,2.5,0,1,0,2.69-2.311A2.507,2.507,0,0,0,133.435,116.3Z" transform="translate(60.259 -75.322)" fill="#540cde"/>
                <g id="Grupo_1162841" data-name="Grupo 1162841" transform="translate(240.5 190.894)">
                  <rect id="Rectángulo_413136" data-name="Rectángulo 413136" width="199.236" height="1.522" transform="translate(20.621 198.323) rotate(-95.941)"/>
                </g>
                <g id="Grupo_1162842" data-name="Grupo 1162842" transform="translate(1.753 190.875)">
                  <rect id="Rectángulo_413137" data-name="Rectángulo 413137" width="1.521" height="199.238" transform="matrix(-0.995, -0.104, 0.104, -0.995, 1.513, 198.323)"/>
                </g>
                <rect id="Rectángulo_413138" data-name="Rectángulo 413138" width="264.38" height="9.015" transform="translate(0 187.283)" fill="#edb636"/>
              </g>
              <g id="Grupo_1162852" data-name="Grupo 1162852" transform="translate(648.089 261.432)">
                <path id="Trazado_997144" data-name="Trazado 997144" d="M292.741,214.8c-1.644-.648-3.326-1.2-5.028-1.685-.863-11.343,4-23.855,14.809-18.714-.206.915-.471,1.823-.683,2.729a12.832,12.832,0,0,0-.41,3.166,7.578,7.578,0,0,0,.222,1.69c.169.668.329,1.183,1.024,1.406a.8.8,0,0,0,.794-.233c1.552-1.944,1.994-4.366,2.281-6.8.61.442,1.231.917,1.873,1.464,10.5,8.945,18,20.944,22.914,34.113a117.872,117.872,0,0,1,6.378,26.32c.9,7.074,2.813,17.28.729,24.258a5,5,0,0,1-3.457,3.6c-1.709.365-3.728-.905-3.724-2.652-.4,4.53-5.451,3.767-7.665,1.363a142.2,142.2,0,0,1-34.323-66.768,40.851,40.851,0,0,0,12.468,3.8.831.831,0,0,0,.788-1.3C299.437,217.787,296.032,216.1,292.741,214.8Zm26.678,28.6c3.051,4.807,5.408-3.555,5.883-5.429.337-1.327,1.712-4.629.574-5.736a2.417,2.417,0,0,0-2.361-.465,4.6,4.6,0,0,0-2.038,1.436,11.713,11.713,0,0,0-2.611,6.7A5.507,5.507,0,0,0,319.419,243.4Z" transform="translate(-266.32 -193.214)" fill="#66b1c4"/>
                <path id="Trazado_997145" data-name="Trazado 997145" d="M248.745,280.415c4.241-12.374,11.82-23.282,19.307-34.008,5.663-8.112,13.7-15.058,24.335-12.478a13.7,13.7,0,0,1,8.665,5.96c3.538,5.748,1.921,13.3-1.085,19.345-5.334,10.723-15.916,20.8-25.182,28.21-.181.145-.382.267-.567.407.028-.022-2.51-.84-2.689-.875a29.632,29.632,0,0,0-4.043-.49,2.588,2.588,0,0,0-1.66.3c-1.878,1.344,2,2.625,2.8,2.856.295.085,1.942.693,2.222.518-2.632,1.645-5.382,3.145-7.945,4.91a14.81,14.81,0,0,1-4.307,2.312,5.033,5.033,0,0,1-4.642-.8c-2.743-2.422,1.4-4.527-2.806-5.746a5.265,5.265,0,0,1-3.395-4.549A13.537,13.537,0,0,1,248.745,280.415Zm45.156-34.05A22.973,22.973,0,0,0,296,245.1c.277-.181.583-.407.614-.737a.746.746,0,0,0-.441-.69,1.887,1.887,0,0,0-.85-.146,8.335,8.335,0,0,0-5.353,1.773,1.123,1.123,0,0,0-.188,1.252,1.149,1.149,0,0,0,1.064.67A6.986,6.986,0,0,0,293.9,246.365ZM271.2,272.4a1.244,1.244,0,0,0,1.223.355c.018,0,.027.015.045.018a15.358,15.358,0,0,0,6.883-.877,27.614,27.614,0,0,0,6.658-2.844,1.164,1.164,0,0,0-.147-2.107,11.142,11.142,0,0,0-7.523-.2,15.83,15.83,0,0,0-7.021,4.043A1.172,1.172,0,0,0,271.2,272.4Zm-5.18-12.911c.142,1.862,1.321,3.648,2.307,5.312.46.015.7-.533.788-.985a8.365,8.365,0,0,0-.345-4.224c-.095-.273-1.827-3.261-1.954-3.067A4.6,4.6,0,0,0,266.016,259.485ZM250.8,284.311a9.683,9.683,0,0,0,1.593,2.674.362.362,0,0,0,.249.162.336.336,0,0,0,.2-.1,2.737,2.737,0,0,0,.893-1.986,5.009,5.009,0,0,0-.479-2.17c-.4-.913-2.384-2.572-2.882-.771a2.163,2.163,0,0,0,.072,1.123A9.544,9.544,0,0,0,250.8,284.311Z" transform="translate(-176.791 -179.033)" fill="#66b1c4"/>
                <path id="Trazado_997146" data-name="Trazado 997146" d="M272.869,252.668l.028.142h0c.009.045.018.084.03.15-.009-.05-.02-.1-.03-.15.012.058.026.116.038.175C272.914,252.879,272.892,252.774,272.869,252.668Z" transform="translate(-180.72 -172.223)" fill="#e3ae3d"/>
                <path id="Trazado_997147" data-name="Trazado 997147" d="M298.157,249.623a8.836,8.836,0,0,0,3.1.8.659.659,0,0,0,.474-.126.586.586,0,0,0,.141-.4,3.367,3.367,0,0,0-2.3-3.017c-1-.417-4.07-.313-4.718-1.039-.866-.97.349-3.449,1.2-4.128,1.457-1.166,3.575-.783,5.37-.277a76.764,76.764,0,0,1,9.815,3.511c.111.049-.836,8.473-.476,9.48.5,1.392,3.158,3.211,4.374,1.4a2.711,2.711,0,0,0,.284-1.616,64.02,64.02,0,0,1-.165-6.845,67.868,67.868,0,0,1,23.185,17.2c1.594,1.778,4.99,4.709,4.951,7.2-.024,1.5-1.137,3.31-1.354,4.874a17.592,17.592,0,0,0,.06,5.282c.066.4.2.866.586.995.618.208,1.047-.614,1.17-1.256.5-2.625.633-5.262.919-7.9,5.664,5.673,8.689,14.955,10.492,22.581.432,1.829,3.445,9.49,1.528,10.677-.778.482-13.065-4.8-15.033-5.28a51.289,51.289,0,0,1-27.581-16.942A115.673,115.673,0,0,1,302.3,267.639c-2.724-4.929-7.4-12.934-6.944-18.716A7.558,7.558,0,0,1,298.157,249.623Zm23.953,12.47a18.8,18.8,0,0,0,3.042,7.975c.33.46,1.016.921,1.377.486a.942.942,0,0,0,.162-.516,9.17,9.17,0,0,0-.087-2.7c.233-2.689.731-6.039-1.371-8.158-.491-.5-1.288-.874-1.869-.484A3.559,3.559,0,0,0,322.111,262.093Zm-17.116,3.753c2.839,1.624,5.953,3.438,9.243,3.816,1.11.127,4.07.265,4.577-1.168.6-1.71-2.308-3.358-3.5-3.921a23.188,23.188,0,0,0-10.037-2.214c-.775.005-1.7.139-2.04.833-.483.97.571,1.977,1.513,2.515Z" transform="translate(-294.561 -176.362)" fill="#66b1c4"/>
                <path id="Trazado_997148" data-name="Trazado 997148" d="M292.741,214.8c-1.644-.648-3.326-1.2-5.028-1.685-.863-11.343,4-23.855,14.809-18.714-.206.915-.471,1.823-.683,2.729a12.832,12.832,0,0,0-.41,3.166,7.578,7.578,0,0,0,.222,1.69c.169.668.329,1.183,1.024,1.406a.8.8,0,0,0,.794-.233c1.552-1.944,1.994-4.366,2.281-6.8.61.442,1.231.917,1.873,1.464,10.5,8.945,18,20.944,22.914,34.113a117.872,117.872,0,0,1,6.378,26.32c.9,7.074,2.813,17.28.729,24.258a5,5,0,0,1-3.457,3.6c-1.709.365-3.728-.905-3.724-2.652-.4,4.53-5.451,3.767-7.665,1.363a142.2,142.2,0,0,1-34.323-66.768,40.851,40.851,0,0,0,12.468,3.8.831.831,0,0,0,.788-1.3C299.437,217.787,296.032,216.1,292.741,214.8Zm26.678,28.6c3.051,4.807,5.408-3.555,5.883-5.429.337-1.327,1.712-4.629.574-5.736a2.417,2.417,0,0,0-2.361-.465,4.6,4.6,0,0,0-2.038,1.436,11.713,11.713,0,0,0-2.611,6.7A5.507,5.507,0,0,0,319.419,243.4Z" transform="translate(-266.32 -193.214)" opacity="0.74" fill="url(#linear-gradient-5)"/>
                <path id="Trazado_997149" data-name="Trazado 997149" d="M248.745,280.415c4.241-12.374,11.82-23.282,19.307-34.008,5.663-8.112,13.7-15.058,24.335-12.478a13.7,13.7,0,0,1,8.665,5.96c3.538,5.748,1.921,13.3-1.085,19.345-5.334,10.723-15.916,20.8-25.182,28.21-.181.145-.382.267-.567.407.028-.022-2.51-.84-2.689-.875a29.632,29.632,0,0,0-4.043-.49,2.588,2.588,0,0,0-1.66.3c-1.878,1.344,2,2.625,2.8,2.856.295.085,1.942.693,2.222.518-2.632,1.645-5.382,3.145-7.945,4.91a14.81,14.81,0,0,1-4.307,2.312,5.033,5.033,0,0,1-4.642-.8c-2.743-2.422,1.4-4.527-2.806-5.746a5.265,5.265,0,0,1-3.395-4.549A13.537,13.537,0,0,1,248.745,280.415Zm45.156-34.05A22.973,22.973,0,0,0,296,245.1c.277-.181.583-.407.614-.737a.746.746,0,0,0-.441-.69,1.887,1.887,0,0,0-.85-.146,8.335,8.335,0,0,0-5.353,1.773,1.123,1.123,0,0,0-.188,1.252,1.149,1.149,0,0,0,1.064.67A6.986,6.986,0,0,0,293.9,246.365ZM271.2,272.4a1.244,1.244,0,0,0,1.223.355c.018,0,.027.015.045.018a15.358,15.358,0,0,0,6.883-.877,27.614,27.614,0,0,0,6.658-2.844,1.164,1.164,0,0,0-.147-2.107,11.142,11.142,0,0,0-7.523-.2,15.83,15.83,0,0,0-7.021,4.043A1.172,1.172,0,0,0,271.2,272.4Zm-5.18-12.911c.142,1.862,1.321,3.648,2.307,5.312.46.015.7-.533.788-.985a8.365,8.365,0,0,0-.345-4.224c-.095-.273-1.827-3.261-1.954-3.067A4.6,4.6,0,0,0,266.016,259.485ZM250.8,284.311a9.683,9.683,0,0,0,1.593,2.674.362.362,0,0,0,.249.162.336.336,0,0,0,.2-.1,2.737,2.737,0,0,0,.893-1.986,5.009,5.009,0,0,0-.479-2.17c-.4-.913-2.384-2.572-2.882-.771a2.163,2.163,0,0,0,.072,1.123A9.544,9.544,0,0,0,250.8,284.311Z" transform="translate(-176.791 -179.033)" opacity="0.74" fill="url(#linear-gradient-6)"/>
                <path id="Trazado_997150" data-name="Trazado 997150" d="M298.157,249.623a8.836,8.836,0,0,0,3.1.8.659.659,0,0,0,.474-.126.586.586,0,0,0,.141-.4,3.367,3.367,0,0,0-2.3-3.017c-1-.417-4.07-.313-4.718-1.039-.866-.97.349-3.449,1.2-4.128,1.457-1.166,3.575-.783,5.37-.277a76.764,76.764,0,0,1,9.815,3.511c.111.049-.836,8.473-.476,9.48.5,1.392,3.158,3.211,4.374,1.4a2.711,2.711,0,0,0,.284-1.616,64.02,64.02,0,0,1-.165-6.845,67.868,67.868,0,0,1,23.185,17.2c1.594,1.778,4.99,4.709,4.951,7.2-.024,1.5-1.137,3.31-1.354,4.874a17.592,17.592,0,0,0,.06,5.282c.066.4.2.866.586.995.618.208,1.047-.614,1.17-1.256.5-2.625.633-5.262.919-7.9,5.664,5.673,8.689,14.955,10.492,22.581.432,1.829,3.445,9.49,1.528,10.677-.778.482-13.065-4.8-15.033-5.28a51.289,51.289,0,0,1-27.581-16.942A115.673,115.673,0,0,1,302.3,267.639c-2.724-4.929-7.4-12.934-6.944-18.716A7.558,7.558,0,0,1,298.157,249.623Zm23.953,12.47a18.8,18.8,0,0,0,3.042,7.975c.33.46,1.016.921,1.377.486a.942.942,0,0,0,.162-.516,9.17,9.17,0,0,0-.087-2.7c.233-2.689.731-6.039-1.371-8.158-.491-.5-1.288-.874-1.869-.484A3.559,3.559,0,0,0,322.111,262.093Zm-17.116,3.753c2.839,1.624,5.953,3.438,9.243,3.816,1.11.127,4.07.265,4.577-1.168.6-1.71-2.308-3.358-3.5-3.921a23.188,23.188,0,0,0-10.037-2.214c-.775.005-1.7.139-2.04.833-.483.97.571,1.977,1.513,2.515Z" transform="translate(-294.561 -176.362)" opacity="0.74" fill="url(#linear-gradient-7)"/>
                <g id="Grupo_1162847" data-name="Grupo 1162847" transform="translate(28.898 28.394)">
                  <g id="Grupo_1162844" data-name="Grupo 1162844" transform="translate(0 68.729)">
                    <path id="Trazado_997151" data-name="Trazado 997151" d="M328.986,320.651l.064,0a.715.715,0,0,0,.65-.775c-.72-8.187-1.536-17.467-6.022-24.891-2.729-4.515-6.56-7.911-10.264-11.2l-20.985-18.609a.715.715,0,0,0-.948,1.07l20.985,18.609c3.625,3.215,7.373,6.538,9.99,10.868,4.315,7.139,5.115,16.244,5.821,24.277A.715.715,0,0,0,328.986,320.651Z" transform="translate(-291.238 -264.995)" fill="#1c0c03"/>
                  </g>
                  <g id="Grupo_1162845" data-name="Grupo 1162845" transform="translate(40.239 61.409)">
                    <path id="Trazado_997152" data-name="Trazado 997152" d="M275.238,337.328a.715.715,0,0,0,.7-.585c1.076-5.825.842-11.845.616-17.667a116.344,116.344,0,0,1-.05-12.117c1.165-17.639,10.286-33.135,18.744-46.275a.715.715,0,0,0-1.2-.774c-8.555,13.29-17.781,28.975-18.969,46.955a118.043,118.043,0,0,0,.049,12.266c.223,5.744.455,11.684-.593,17.352a.716.716,0,0,0,.574.833A.8.8,0,0,0,275.238,337.328Z" transform="translate(-274.524 -259.584)" fill="#1c0c03"/>
                  </g>
                  <g id="Grupo_1162846" data-name="Grupo 1162846" transform="translate(11.533)">
                    <path id="Trazado_997153" data-name="Trazado 997153" d="M317.967,346.223h.011a.716.716,0,0,0,.7-.725l-.474-32.262c-.126-8.538-.257-17.367-1.579-25.953-2.59-16.816-19.28-58.791-25.484-72.66a.715.715,0,0,0-1.306.583c5.982,13.371,22.844,55.85,25.377,72.293,1.307,8.489,1.437,17.266,1.563,25.756l.474,32.262A.713.713,0,0,0,317.967,346.223Z" transform="translate(-289.779 -214.199)" fill="#1c0c03"/>
                  </g>
                </g>
                <g id="Grupo_1162849" data-name="Grupo 1162849" transform="translate(43.117 144.173)">
                  <g id="Grupo_1162848" data-name="Grupo 1162848">
                    <path id="Trazado_997154" data-name="Trazado 997154" d="M316.019,339.917s-38.985.237-39,0l-4.113-40.15h49.054S316.027,339.838,316.019,339.917Z" transform="translate(-272.902 -299.767)" fill="#e8654b"/>
                  </g>
                </g>
                <g id="Grupo_1162851" data-name="Grupo 1162851" transform="translate(43.117 144.173)" opacity="0.74">
                  <g id="Grupo_1162850" data-name="Grupo 1162850">
                    <path id="Trazado_997155" data-name="Trazado 997155" d="M316.019,339.917s-38.985.237-39,0l-4.113-40.15h49.054S316.027,339.838,316.019,339.917Z" transform="translate(-272.902 -299.767)" fill="url(#linear-gradient-8)"/>
                  </g>
                </g>
                <path id="Trazado_997156" data-name="Trazado 997156" d="M273.9,306.889l-.133-1.289h47.077c-.062.419-.126.848-.191,1.289Z" transform="translate(-229.841 -153.535)" fill="#fff"/>
              </g>
            </g>
          </g>
        </g>
      </g>
    </g>
  </g>
</svg>
