<svg xmlns="http://www.w3.org/2000/svg" xmlns:xlink="http://www.w3.org/1999/xlink" width="98" height="98" viewBox="0 0 98 98">
  <defs>
    <filter id="Trazado_982548" x="0" y="0" width="98" height="98" filterUnits="userSpaceOnUse">
      <feOffset dy="3" input="SourceAlpha"/>
      <feGaussianBlur stdDeviation="3" result="blur"/>
      <feFlood flood-opacity="0.161"/>
      <feComposite operator="in" in2="blur"/>
      <feComposite in="SourceGraphic"/>
    </filter>
  </defs>
  <g id="Grupo_1162716" data-name="Grupo 1162716" transform="translate(-813 -2266)">
    <g id="Grupo_1162519" data-name="Grupo 1162519" transform="translate(0 172.96)">
      <g id="Grupo_1162329" data-name="Grupo 1162329" transform="translate(630 1078.041)">
        <g id="Grupo_1155642" data-name="Grupo 1155642" transform="translate(0 166)">
          <g id="Grupo_1154380" data-name="Grupo 1154380" transform="translate(-9 -1247)">
            <g id="Grupo_1149886" data-name="Grupo 1149886" transform="translate(0 -2463)">
              <g id="Grupo_1149694" data-name="Grupo 1149694" transform="translate(-9 4104)">
                <g id="Grupo_1149263" data-name="Grupo 1149263" transform="translate(210 461)">
                  <g transform="matrix(1, 0, 0, 1, -9, -6)" filter="url(#Trazado_982548)">
                    <g id="Trazado_982548-2" data-name="Trazado 982548" transform="translate(9 6)" fill="#f6edfd">
                      <path d="M 40 78.5 C 34.80187606811523 78.5 29.76003265380859 77.48227691650391 25.01452255249023 75.47509765625 C 20.43014526367188 73.53606414794922 16.31264495849609 70.75986480712891 12.77638912200928 67.22360992431641 C 9.240133285522461 63.68735504150391 6.46393346786499 59.56985473632812 4.524899959564209 54.98547744750977 C 2.517722129821777 50.23996734619141 1.5 45.19812393188477 1.5 40 C 1.5 34.80187606811523 2.517722129821777 29.76003265380859 4.524899959564209 25.01452255249023 C 6.46393346786499 20.43014526367188 9.240133285522461 16.31264495849609 12.77638912200928 12.77638912200928 C 16.31264495849609 9.240133285522461 20.43014526367188 6.46393346786499 25.01452255249023 4.524899959564209 C 29.76003265380859 2.517722129821777 34.80187606811523 1.5 40 1.5 C 45.19812393188477 1.5 50.23996734619141 2.517722129821777 54.98547744750977 4.524899959564209 C 59.56985473632812 6.46393346786499 63.68735504150391 9.240133285522461 67.22360992431641 12.77638912200928 C 70.75986480712891 16.31264495849609 73.53606414794922 20.43014526367188 75.47509765625 25.01452255249023 C 77.48227691650391 29.76003265380859 78.5 34.80187606811523 78.5 40 C 78.5 45.19812393188477 77.48227691650391 50.23996734619141 75.47509765625 54.98547744750977 C 73.53606414794922 59.56985473632812 70.75986480712891 63.68735504150391 67.22360992431641 67.22360992431641 C 63.68735504150391 70.75986480712891 59.56985473632812 73.53606414794922 54.98547744750977 75.47509765625 C 50.23996734619141 77.48227691650391 45.19812393188477 78.5 40 78.5 Z" stroke="none"/>
                      <path d="M 40 3 C 35.00370788574219 3 30.15846633911133 3.977851867675781 25.59885406494141 5.906410217285156 C 21.19326782226562 7.769813537597656 17.23602676391602 10.43806457519531 13.83704376220703 13.83705139160156 C 10.43806457519531 17.23603820800781 7.769813537597656 21.19327926635742 5.906410217285156 25.59885406494141 C 3.977851867675781 30.15846633911133 3 35.00370788574219 3 40 C 3 44.99629211425781 3.977851867675781 49.84153366088867 5.906410217285156 54.40114593505859 C 7.769813537597656 58.80672073364258 10.43806457519531 62.76396179199219 13.83704376220703 66.16294860839844 C 17.23602676391602 69.56193542480469 21.19326782226562 72.23018646240234 25.59885406494141 74.09358978271484 C 30.15846633911133 76.02214813232422 35.00370788574219 77 40 77 C 44.99629211425781 77 49.84153366088867 76.02214813232422 54.40114593505859 74.09358978271484 C 58.80672073364258 72.23018646240234 62.76396179199219 69.56193542480469 66.16294860839844 66.16294860839844 C 69.56193542480469 62.76396179199219 72.23018646240234 58.80672073364258 74.09358978271484 54.40114593505859 C 76.02214813232422 49.84153366088867 77 44.99629211425781 77 40 C 77 35.00370788574219 76.02214813232422 30.15846633911133 74.09358978271484 25.59885406494141 C 72.23018646240234 21.19327926635742 69.56193542480469 17.23603820800781 66.16294860839844 13.83705139160156 C 62.76396179199219 10.43806457519531 58.80672073364258 7.769813537597656 54.40114593505859 5.906410217285156 C 49.84153366088867 3.977851867675781 44.99629211425781 3 40 3 M 40 0 C 62.09138488769531 0 80 17.90861511230469 80 40 C 80 62.09138488769531 62.09138488769531 80 40 80 C 17.90859985351562 80 0 62.09138488769531 0 40 C 0 17.90861511230469 17.90859985351562 0 40 0 Z" stroke="none" fill="#ac59f1"/>
                    </g>
                  </g>
                </g>
              </g>
            </g>
          </g>
        </g>
      </g>
    </g>
    <g id="instagram-en-vivo" transform="translate(793.82 2285)">
      <g id="Grupo_1162715" data-name="Grupo 1162715" transform="translate(46.98 0.801)">
        <circle id="Elipse_12416" data-name="Elipse 12416" cx="21.6" cy="21.6" r="21.6" fill="#ff4f6b"/>
        <path id="Trazado_996864" data-name="Trazado 996864" d="M113.335,297.53H78.861a2.826,2.826,0,0,0-1.874.708,21.605,21.605,0,0,0,38.222,0A2.825,2.825,0,0,0,113.335,297.53Z" transform="translate(-74.498 -266.567)" fill="#fb2b3a"/>
        <circle id="Elipse_12417" data-name="Elipse 12417" cx="18.397" cy="18.397" r="18.397" transform="translate(3.203 3.203)" fill="#fff"/>
        <g id="Grupo_1162714" data-name="Grupo 1162714" transform="translate(1.526 30.963)">
          <path id="Trazado_996865" data-name="Trazado 996865" d="M107.722,297.53a18.386,18.386,0,0,0,31.66,0Z" transform="translate(-103.478 -297.53)" fill="#f9f7f8"/>
          <path id="Trazado_996866" data-name="Trazado 996866" d="M105.28,346.423H70.806a2.837,2.837,0,0,1-2.837-2.837V330.367a2.837,2.837,0,0,1,2.837-2.837H105.28a2.837,2.837,0,0,1,2.837,2.837v13.219A2.837,2.837,0,0,1,105.28,346.423Z" transform="translate(-67.969 -324.327)" fill="#ff4f6b"/>
          <path id="Trazado_996867" data-name="Trazado 996867" d="M390.659,327.53h-3.2a2.837,2.837,0,0,1,2.837,2.837v13.219a2.837,2.837,0,0,1-2.837,2.837h3.2a2.837,2.837,0,0,0,2.837-2.837V330.367A2.837,2.837,0,0,0,390.659,327.53Z" transform="translate(-353.348 -324.327)" fill="#fb2b3a"/>
        </g>
        <path id="Trazado_996868" data-name="Trazado 996868" d="M217.867,152.968v-12.05a1.488,1.488,0,0,1,2.371-1.2l8.166,6.025a1.488,1.488,0,0,1,0,2.394l-8.166,6.025A1.488,1.488,0,0,1,217.867,152.968Z" transform="translate(-200.338 -125.343)" fill="#ff4f6b"/>
        <path id="Trazado_996869" data-name="Trazado 996869" d="M229.159,145.745l-8.166-6.025a1.49,1.49,0,0,0-2.281.68,8.13,8.13,0,0,1,0,13.084,1.49,1.49,0,0,0,2.281.68l8.166-6.025A1.488,1.488,0,0,0,229.159,145.745Z" transform="translate(-201.093 -125.342)" fill="#fb2b3a"/>
      </g>
      <path id="Trazado_996870" data-name="Trazado 996870" d="M64.965,30.468a2.277,2.277,0,0,0,2.39-.2l8.166-6.025a2.288,2.288,0,0,0,0-3.683l-8.166-6.025a2.288,2.288,0,0,0-3.647,1.841v12.05a2.277,2.277,0,0,0,1.257,2.043Zm.344-14.093a.67.67,0,0,1,.377-.613.683.683,0,0,1,.717.06l8.166,6.025a.687.687,0,0,1,0,1.105L66.4,28.979a.687.687,0,0,1-1.095-.553ZM57.955,49.052h0c-.9.005-2.2.01-3.011.009v-10.1a.8.8,0,0,0-1.6,0V49.853a.8.8,0,0,0,.665.789c.057.01,2.722.018,3.956.011a.8.8,0,0,0,0-1.6ZM87.41,34.534a22.4,22.4,0,1,0-37.661,0A3.642,3.642,0,0,0,47.706,37.8V51.023a3.642,3.642,0,0,0,3.638,3.638H85.817a3.642,3.642,0,0,0,3.638-3.638V37.8A3.642,3.642,0,0,0,87.41,34.534Zm.443,16.488a2.039,2.039,0,0,1-2.036,2.036H51.343a2.039,2.039,0,0,1-2.036-2.036V37.8a2.039,2.039,0,0,1,2.036-2.036H59.4a.8.8,0,0,0,0-1.6H55.509A17.587,17.587,0,0,1,78.3,7.736.8.8,0,1,0,79.183,6.4,19.189,19.189,0,0,0,53.42,34.166H51.428a20.8,20.8,0,1,1,34.3,0H83.74A19.165,19.165,0,0,0,82.191,8.874.8.8,0,0,0,81.055,10a17.564,17.564,0,0,1,.6,24.163H63.135a.8.8,0,0,0,0,1.6H85.817A2.039,2.039,0,0,1,87.853,37.8ZM83.021,39.815a.8.8,0,1,0,0-1.6h-4.55a.8.8,0,0,0-.8.8v10.8a.8.8,0,0,0,.8.8h4.55a.8.8,0,0,0,0-1.6H79.272v-3.8h3.414a.8.8,0,0,0,0-1.6H79.272v-3.8Zm-8.553-1.59a.8.8,0,0,0-1.012.507l-3.043,9.16-3.19-9.19a.8.8,0,1,0-1.513.525l3.728,10.74a1.048,1.048,0,0,0,.986.7h.007a1.049,1.049,0,0,0,.986-.715l3.558-10.711A.8.8,0,0,0,74.468,38.224Zm-12.257-.061a.8.8,0,0,0-.8.8v10.9a.8.8,0,0,0,1.6,0v-10.9a.8.8,0,0,0-.8-.8Z"/>
    </g>
  </g>
</svg>
