<svg xmlns="http://www.w3.org/2000/svg" xmlns:xlink="http://www.w3.org/1999/xlink" width="505" height="470" viewBox="0 0 505 470">
  <defs>
    <clipPath id="clip-path">
      <rect id="Rectángulo_413126" data-name="Rectángulo 413126" width="505" height="470" transform="translate(915 283)" fill="#fff" stroke="#707070" stroke-width="1" opacity="0.48"/>
    </clipPath>
  </defs>
  <g id="Enmascarar_grupo_1098788" data-name="Enmascarar grupo 1098788" transform="translate(-915 -283)" clip-path="url(#clip-path)">
    <g id="Grupo_1162758" data-name="Grupo 1162758" transform="translate(833.786 188.741)">
      <circle id="Elipse_12418" data-name="Elipse 12418" cx="203.289" cy="203.289" r="203.289" transform="translate(29.953 321.489) rotate(-45)" fill="#ac59f1"/>
      <g id="Grupo_1162721" data-name="Grupo 1162721" transform="translate(344.427 99.48)">
        <path id="Trazado_996871" data-name="Trazado 996871" d="M317.408,142.745a18.362,18.362,0,0,1,5.545-8.481,22.281,22.281,0,0,0,7.992-17.126,22.511,22.511,0,1,0-37.023,17.126,17.506,17.506,0,0,1,5.709,8.481h17.778Z" transform="translate(-274.349 -82.888)" fill="#fed732"/>
        <path id="Trazado_996872" data-name="Trazado 996872" d="M303.351,138.473h1.467l-6.524-24.3h.489a3.224,3.224,0,0,0,2.284-.978,1.576,1.576,0,0,1,2.283,0,2.787,2.787,0,0,0,4.24,0,1.48,1.48,0,0,1,1.141-.489,1.761,1.761,0,0,1,1.141.489,2.961,2.961,0,0,0,2.284.978h.489l-6.361,24.3h1.467l6.687-25.444c0-.326,0-.652-.326-.815a.717.717,0,0,0-.815.163,1.409,1.409,0,0,1-.978.489,2.168,2.168,0,0,1-1.3-.489,2.788,2.788,0,0,0-4.242,0,1.578,1.578,0,0,1-2.284,0,2.63,2.63,0,0,0-2.121-.978h0a2.633,2.633,0,0,0-2.121.978,1.851,1.851,0,0,1-1.3.489,1.162,1.162,0,0,1-.978-.489.717.717,0,0,0-.815-.163.6.6,0,0,0-.326.815Z" transform="translate(-271.383 -78.29)" fill="#fff"/>
        <g id="Grupo_1162718" data-name="Grupo 1162718" transform="translate(25.281 59.694)">
          <path id="Trazado_996873" data-name="Trazado 996873" d="M299.629,144.177a5.444,5.444,0,0,0,10.111,0Z" transform="translate(-295.878 -129.01)" fill="#344a5e"/>
          <path id="Trazado_996874" data-name="Trazado 996874" d="M311.526,147.6H299.62a2.924,2.924,0,0,1-2.936-2.936v-12.4h17.778v12.4A2.925,2.925,0,0,1,311.526,147.6Z" transform="translate(-296.684 -132.27)" fill="#344a5e"/>
        </g>
        <g id="Grupo_1162719" data-name="Grupo 1162719" transform="translate(23.486 62.303)">
          <path id="Trazado_996875" data-name="Trazado 996875" d="M314.684,137.906H297.068a1.81,1.81,0,0,1-1.793-1.795h0a1.809,1.809,0,0,1,1.793-1.793h17.615a1.81,1.81,0,0,1,1.795,1.793h0A1.81,1.81,0,0,1,314.684,137.906Z" transform="translate(-295.275 -134.318)" fill="#415a6b"/>
          <path id="Trazado_996876" data-name="Trazado 996876" d="M314.684,142.388H297.068a1.809,1.809,0,0,1-1.793-1.793h0a1.809,1.809,0,0,1,1.793-1.793h17.615a1.81,1.81,0,0,1,1.795,1.793h0A1.811,1.811,0,0,1,314.684,142.388Z" transform="translate(-295.275 -133.091)" fill="#415a6b"/>
        </g>
        <g id="Grupo_1162720" data-name="Grupo 1162720" transform="translate(0 0)">
          <path id="Trazado_996877" data-name="Trazado 996877" d="M303.948,85.406a1.634,1.634,0,0,0-1.63,1.632v5.545a1.634,1.634,0,0,0,1.63,1.63,1.541,1.541,0,0,0,1.632-1.63V87.038A1.635,1.635,0,0,0,303.948,85.406Z" transform="translate(-269.861 -85.406)" fill="#fed732"/>
          <path id="Trazado_996878" data-name="Trazado 996878" d="M287.036,93.321a1.614,1.614,0,0,0-2.283,2.284l3.914,3.914a1.615,1.615,0,1,0,2.284-2.284Z" transform="translate(-274.804 -83.373)" fill="#fed732"/>
          <path id="Trazado_996879" data-name="Trazado 996879" d="M284.013,110.886h-5.546a1.634,1.634,0,0,0-1.63,1.632h0a1.635,1.635,0,0,0,1.63,1.632h5.546a1.634,1.634,0,0,0,1.63-1.632h0A1.753,1.753,0,0,0,284.013,110.886Z" transform="translate(-276.837 -78.43)" fill="#fed732"/>
          <path id="Trazado_996880" data-name="Trazado 996880" d="M288.667,126.357l-3.914,3.914a1.615,1.615,0,1,0,2.284,2.283l3.914-3.914a1.615,1.615,0,1,0-2.284-2.283Z" transform="translate(-274.804 -74.329)" fill="#ffd15c"/>
          <path id="Trazado_996881" data-name="Trazado 996881" d="M320.071,126.357a1.615,1.615,0,1,0-2.284,2.284l3.914,3.914a1.614,1.614,0,1,0,2.284-2.283Z" transform="translate(-265.76 -74.329)" fill="#fed732"/>
          <path id="Trazado_996882" data-name="Trazado 996882" d="M330.621,110.886h-5.545a1.634,1.634,0,0,0-1.63,1.632h0a1.635,1.635,0,0,0,1.63,1.632h5.545a1.635,1.635,0,0,0,1.632-1.632h0A1.637,1.637,0,0,0,330.621,110.886Z" transform="translate(-264.077 -78.43)" fill="#fed732"/>
          <path id="Trazado_996883" data-name="Trazado 996883" d="M321.7,93.321l-3.914,3.914a1.615,1.615,0,1,0,2.284,2.284l3.914-3.914a1.615,1.615,0,0,0-2.284-2.284Z" transform="translate(-265.76 -83.373)" fill="#fed732"/>
        </g>
        <path id="Trazado_996884" data-name="Trazado 996884" d="M306.143,100.248a3.929,3.929,0,0,0-3.8,2.942c-4.7,1.171-7.531,4.5-7.531,9.02a8.485,8.485,0,0,0,4.835,7.857h-.082a4.661,4.661,0,0,0-4.068,2.395,4.527,4.527,0,0,0,.1,4.643,10.212,10.212,0,0,0,6.89,4.392,3.924,3.924,0,0,0,7.34-.047c5.076-1.125,8.045-4.5,8.045-9.283a8.289,8.289,0,0,0-4.651-7.79,4.675,4.675,0,0,0,2.986-2.285,4.5,4.5,0,0,0-.12-4.635,10.026,10.026,0,0,0-6.136-4.248,3.936,3.936,0,0,0-3.806-2.959Z" transform="translate(-271.915 -81.343)" fill="#fff"/>
        <path id="Trazado_996885" data-name="Trazado 996885" d="M314.938,121.646c0-3.57-2.107-5.759-6.318-6.681l-1.483-.292v-6.137a3.5,3.5,0,0,1,2.471,1.8,2.227,2.227,0,1,0,3.914-2.12,8.332,8.332,0,0,0-6.385-3.507v-1.06a1.512,1.512,0,0,0-3.024,0v1.06c-4.673.508-7.407,3.066-7.407,6.979,0,3.423,2.122,5.709,6.087,6.631l1.318.311v6.449a3.889,3.889,0,0,1-2.853-1.894,2.249,2.249,0,0,0-1.99-1.229h-.223a2.223,2.223,0,0,0-1.922,3.359c1.234,2,3.668,3.256,6.987,3.535v.712a1.512,1.512,0,1,0,3.024,0v-.727C312.126,128.323,314.938,125.749,314.938,121.646ZM301.462,111.28a2.865,2.865,0,0,1,2.652-2.767v5.526C302.382,113.567,301.462,112.622,301.462,111.28Zm5.675,13.862v-5.936c2.142.483,3.145,1.437,3.145,2.967C310.282,123.84,309.121,124.934,307.137,125.143Z" transform="translate(-271.397 -80.824)" fill="#fed732"/>
      </g>
      <g id="Grupo_1162722" data-name="Grupo 1162722" transform="translate(423.252 142.263)">
        <circle id="Elipse_12419" data-name="Elipse 12419" cx="37.728" cy="37.728" r="37.728" transform="matrix(0.874, -0.485, 0.485, 0.874, 0, 36.626)" fill="#fed732"/>
        <path id="Trazado_996886" data-name="Trazado 996886" d="M406.211,151.87l-.367,29.318c-.409-.438-47.451-.595-47.451-.595l21.334,18.114a37.675,37.675,0,0,0,42.112-31.132C416.516,162.4,406.211,151.87,406.211,151.87Z" transform="translate(-333.334 -109.993)" opacity="0.1"/>
        <path id="Trazado_996887" data-name="Trazado 996887" d="M404.681,140.85c-.01-.059-.032-.112-.047-.168a1.18,1.18,0,0,0-.157-.395c-.028-.053-.051-.108-.083-.158a1.952,1.952,0,0,0-.241-.3s0,0-.005-.005l-.013-.01a1.956,1.956,0,0,0-.289-.242c-.051-.034-.106-.059-.158-.088a1.96,1.96,0,0,0-.184-.1,1.865,1.865,0,0,0-.2-.065,1.631,1.631,0,0,0-.169-.052,1.964,1.964,0,0,0-.376-.042h-.015l-5.3-.066a2,2,0,0,0-.05,4l.478.006-5.882,5.737-4.932-5.057a2,2,0,0,0-2.825-.036l-9.612,9.374-3.989-4.09a2.056,2.056,0,0,0-2.825-.036l-7.729,7.538a2,2,0,1,0,2.79,2.86l6.3-6.143,3.989,4.09a2,2,0,0,0,2.825.036l9.612-9.374,4.932,5.057a2.056,2.056,0,0,0,2.825.036l7.313-7.132-.006.478a2,2,0,0,0,4,.05l.066-5.3A1.941,1.941,0,0,0,404.681,140.85Z" transform="translate(-333.039 -113.473)" fill="#2d404e"/>
        <rect id="Rectángulo_413122" data-name="Rectángulo 413122" width="17.428" height="8.78" transform="translate(25.047 70.608) rotate(-89.284)" fill="#07ada5"/>
        <rect id="Rectángulo_413123" data-name="Rectángulo 413123" width="10.262" height="8.78" transform="translate(37.929 70.767) rotate(-89.284)" fill="#ef5214"/>
        <rect id="Rectángulo_413124" data-name="Rectángulo 413124" width="23.511" height="8.78" transform="translate(50.82 70.927) rotate(-89.284)" fill="#fefefe"/>
        <rect id="Rectángulo_413125" data-name="Rectángulo 413125" width="29.321" height="8.78" transform="translate(63.71 71.09) rotate(-89.284)" fill="#00d1ca"/>
      </g>
      <g id="Grupo_1162724" data-name="Grupo 1162724" transform="translate(85.282 185.223)">
        <g id="Grupo_1162723" data-name="Grupo 1162723">
          <path id="Trazado_996888" data-name="Trazado 996888" d="M90.25,245.315H45.59A10.591,10.591,0,0,1,35,234.725v-44.66a10.591,10.591,0,0,1,10.59-10.59H90.25a10.591,10.591,0,0,1,10.59,10.59v44.66A10.59,10.59,0,0,1,90.25,245.315Z" transform="translate(-35 -179.475)" fill="#00d1ca"/>
          <path id="Trazado_996889" data-name="Trazado 996889" d="M83.907,193.935H61.117a1.266,1.266,0,0,1,0-2.532h22.79a1.266,1.266,0,1,1,0,2.532Z" transform="translate(-28.196 -176.209)" fill="#fff"/>
          <path id="Trazado_996890" data-name="Trazado 996890" d="M83.907,207.851H61.117a1.266,1.266,0,0,1,0-2.532h22.79a1.266,1.266,0,1,1,0,2.532Z" transform="translate(-28.196 -172.4)" fill="#fff"/>
          <path id="Trazado_996891" data-name="Trazado 996891" d="M83.907,221.767H61.117a1.266,1.266,0,1,1,0-2.532h22.79a1.266,1.266,0,1,1,0,2.532Z" transform="translate(-28.196 -168.59)" fill="#fff"/>
          <path id="Trazado_996892" data-name="Trazado 996892" d="M48.514,199.094a1.256,1.256,0,0,1-.758-.253L41.968,194.5a1.266,1.266,0,1,1,1.518-2.025l4.839,3.629,7.913-9.227a1.266,1.266,0,1,1,1.921,1.648l-8.682,10.129A1.266,1.266,0,0,1,48.514,199.094Z" transform="translate(-33.231 -177.57)" fill="#fff"/>
          <path id="Trazado_996893" data-name="Trazado 996893" d="M48.514,213.01a1.256,1.256,0,0,1-.758-.253l-5.788-4.342a1.266,1.266,0,1,1,1.518-2.025l4.839,3.629,7.911-9.227a1.266,1.266,0,0,1,1.921,1.648l-8.682,10.129A1.257,1.257,0,0,1,48.514,213.01Z" transform="translate(-33.231 -173.76)" fill="#fff"/>
          <path id="Trazado_996894" data-name="Trazado 996894" d="M48.514,227.919a1.256,1.256,0,0,1-.758-.253l-5.788-4.342a1.266,1.266,0,1,1,1.518-2.025l4.839,3.629,7.911-9.226a1.266,1.266,0,0,1,1.921,1.648l-8.682,10.128A1.258,1.258,0,0,1,48.514,227.919Z" transform="translate(-33.231 -169.678)" fill="#fff"/>
        </g>
        <path id="Trazado_996895" data-name="Trazado 996895" d="M52.908,224.423l5.369,19.015a.928.928,0,0,0,1.534.419l3.946-3.767a.928.928,0,0,1,1.3.015l5.4,5.208a.928.928,0,0,0,1.313,0l3.625-3.625a.928.928,0,0,0,0-1.313l-5.382-5.193a.928.928,0,0,1,0-1.313l3.677-3.677a.928.928,0,0,0-.406-1.55l-19.226-5.365A.929.929,0,0,0,52.908,224.423Z" transform="translate(-30.107 -167.493)" fill="#2d404e"/>
      </g>
      <g id="Grupo_1162727" data-name="Grupo 1162727" transform="translate(475.218 263.317)">
        <circle id="Elipse_12420" data-name="Elipse 12420" cx="41.899" cy="41.899" r="41.899" fill="#00d1ca"/>
        <path id="Trazado_996896" data-name="Trazado 996896" d="M459.481,252.3l-18.55-18.55v0a2.531,2.531,0,0,0-1.832-.787h-.185l-4.368-4.368c-.015-.015-.029-.031-.045-.045l-.023-.023v0a1.595,1.595,0,0,0-2.677,1.144l-.006,3.272-24.416-.05L403,228.533l-.034-.034-.015-.015v0a1.6,1.6,0,0,0-1.092-.434,1.585,1.585,0,0,0-1.6,1.568l-.006,3.272-4.114-.009a2.512,2.512,0,0,0-2.535,2.488l-.017,7.905-.062,30.279a2.457,2.457,0,0,0,.617,1.62l-.006.006.069.069c.039.042.079.082.121.121L412.656,293.7a42.412,42.412,0,0,0,4.839.3A41.9,41.9,0,0,0,459.481,252.3Z" transform="translate(-375.681 -210.19)" opacity="0.1"/>
        <path id="Trazado_996897" data-name="Trazado 996897" d="M441.61,234.43a2.511,2.511,0,0,0-2.525-2.5l-42.955-.088a2.512,2.512,0,0,0-2.535,2.488l-.017,7.905,48.014.1Z" transform="translate(-375.667 -209.152)" fill="#ffd833"/>
        <path id="Trazado_996898" data-name="Trazado 996898" d="M393.593,240l-.062,30.279a2.511,2.511,0,0,0,2.525,2.5l42.955.088a2.512,2.512,0,0,0,2.535-2.488l.062-30.278Z" transform="translate(-375.68 -206.918)" fill="#fefefe"/>
        <g id="Grupo_1162725" data-name="Grupo 1162725" transform="translate(23.89 23.876)">
          <path id="Trazado_996899" data-name="Trazado 996899" d="M400.548,232.773a2.276,2.276,0,1,1-2.276,2.276A2.276,2.276,0,0,1,400.548,232.773Z" transform="translate(-398.272 -232.773)" fill="#2f505e"/>
          <path id="Trazado_996900" data-name="Trazado 996900" d="M425.306,232.825a2.276,2.276,0,1,1-2.276,2.276A2.276,2.276,0,0,1,425.306,232.825Z" transform="translate(-391.494 -232.759)" fill="#2f505e"/>
        </g>
        <path id="Trazado_996901" data-name="Trazado 996901" d="M400.076,228.05l-.02,9.688a1.584,1.584,0,0,0,1.6-1.569l.013-6.545A1.58,1.58,0,0,0,400.076,228.05Z" transform="translate(-373.894 -210.19)" fill="#e1e6e9"/>
        <g id="Grupo_1162726" data-name="Grupo 1162726" transform="translate(24.572 17.858)">
          <path id="Trazado_996902" data-name="Trazado 996902" d="M398.821,229.618l-.013,6.545a1.582,1.582,0,0,0,1.591,1.574l.02-9.688A1.585,1.585,0,0,0,398.821,229.618Z" transform="translate(-398.808 -228.049)" fill="#ebf0f3"/>
          <path id="Trazado_996903" data-name="Trazado 996903" d="M423.579,229.669l-.013,6.545a1.582,1.582,0,0,0,1.591,1.574l.02-9.688A1.584,1.584,0,0,0,423.579,229.669Z" transform="translate(-392.03 -228.035)" fill="#ebf0f3"/>
        </g>
        <path id="Trazado_996904" data-name="Trazado 996904" d="M424.834,228.1l-.02,9.688a1.583,1.583,0,0,0,1.6-1.568l.013-6.545A1.581,1.581,0,0,0,424.834,228.1Z" transform="translate(-367.116 -210.177)" fill="#e1e6e9"/>
        <text id="_17" data-name="17" transform="translate(31.404 54.729)" fill="#ef5214" font-size="19" font-family="Helvetica"><tspan x="0" y="0">17</tspan></text>
        <path id="Trazado_996905" data-name="Trazado 996905" d="M432.488,261.168l-3.308-.006a2.511,2.511,0,0,0-2.535,2.488l-.008,3.425Z" transform="translate(-366.617 -201.125)" fill="#d0d4d6"/>
      </g>
      <g id="Grupo_1162729" data-name="Grupo 1162729" transform="translate(163.917 102.945)">
        <circle id="Elipse_12421" data-name="Elipse 12421" cx="39.318" cy="39.318" r="39.318" fill="#00d1ca"/>
        <circle id="Elipse_12422" data-name="Elipse 12422" cx="31.865" cy="31.865" r="31.865" transform="translate(0.845 62.773) rotate(-76.379)" fill="#fff"/>
        <path id="Trazado_996906" data-name="Trazado 996906" d="M148.3,140.55a1.983,1.983,0,1,0,.036-3.967l-12.092-.1-.036,3.967Z" transform="translate(-97.36 -99.34)" fill="#2d404e"/>
        <path id="Trazado_996907" data-name="Trazado 996907" d="M138.15,137.782l-15.074,9.674a1.285,1.285,0,1,0,1.388,2.163l15.075-9.674Z" transform="translate(-101.117 -98.985)" fill="#ee3840"/>
        <path id="Trazado_996908" data-name="Trazado 996908" d="M138.838,124.583a1.983,1.983,0,0,0-3.967-.036l-.129,17.812,3.967.036Z" transform="translate(-97.762 -103.147)" fill="#2d404e"/>
        <path id="Trazado_996909" data-name="Trazado 996909" d="M137.578,143.85a4.658,4.658,0,1,1,4.658-4.658A4.663,4.663,0,0,1,137.578,143.85Z" transform="translate(-98.261 -99.875)" fill="#ef5214"/>
        <g id="Grupo_1162728" data-name="Grupo 1162728" transform="translate(11.666 11.666)">
          <path id="Trazado_996910" data-name="Trazado 996910" d="M117.9,139.663H116.08a1.211,1.211,0,0,1,0-2.423H117.9a1.211,1.211,0,0,1,0,2.423Z" transform="translate(-114.869 -110.8)" fill="#2d404e"/>
          <path id="Trazado_996911" data-name="Trazado 996911" d="M136.837,120.722a1.212,1.212,0,0,1-1.211-1.211v-1.816a1.211,1.211,0,0,1,2.423,0v1.816A1.211,1.211,0,0,1,136.837,120.722Z" transform="translate(-109.186 -116.483)" fill="#2d404e"/>
          <path id="Trazado_996912" data-name="Trazado 996912" d="M157.986,139.663h-1.816a1.211,1.211,0,0,1,0-2.423h1.816a1.211,1.211,0,0,1,0,2.423Z" transform="translate(-103.894 -110.8)" fill="#2d404e"/>
          <path id="Trazado_996913" data-name="Trazado 996913" d="M136.837,160.811a1.212,1.212,0,0,1-1.211-1.211v-1.816a1.211,1.211,0,0,1,2.423,0V159.6A1.211,1.211,0,0,1,136.837,160.811Z" transform="translate(-109.186 -105.508)" fill="#2d404e"/>
        </g>
      </g>
      <g id="Grupo_1162755" data-name="Grupo 1162755" transform="translate(86.009 190.576)">
        <g id="Grupo_1162731" data-name="Grupo 1162731" transform="translate(136.668 198.902)">
          <g id="XMLID_1_" transform="translate(92.418)">
            <g id="XMLID_98_">
              <path id="XMLID_107_" d="M257.065,316.947a8.814,8.814,0,0,0-1.306,1.712l-.548-.284a.71.71,0,1,0-.61.862.728.728,0,0,0,.217-.061l.531.276a8.606,8.606,0,0,0-.636,2.055l.879.154a7.781,7.781,0,0,1,2.111-4.09Z" transform="translate(-253.808 -312.014)" fill="#1d262d"/>
              <path id="XMLID_105_" d="M262.28,315.3c-.2,0-.4.008-.6.02l-.087-.737a.845.845,0,1,0-.888.1l.087.735a8.923,8.923,0,0,0-2.425.76l.385.8a8.232,8.232,0,0,1,5.266-.608l.189-.873A9.2,9.2,0,0,0,262.28,315.3Z" transform="translate(-252.56 -313.075)" fill="#1d262d"/>
              <path id="XMLID_104_" d="M268.28,317.52a.711.711,0,1,0-.8-.694l-.49.428a8.973,8.973,0,0,0-1.658-1.341l-.476.755a7.94,7.94,0,0,1,3.019,3.446l.814-.368a8.784,8.784,0,0,0-1.109-1.82l.474-.414A.669.669,0,0,0,268.28,317.52Z" transform="translate(-250.783 -312.298)" fill="#1d262d"/>
              <path id="XMLID_103_" d="M262.175,324.717c-.455.027-.913.041-1.363.041a18.893,18.893,0,0,1-2.919-.211,10.124,10.124,0,0,1-1.5-.344,7.294,7.294,0,0,0,13.354-1.623,11.472,11.472,0,0,1-2.9,1.322A20.05,20.05,0,0,1,262.175,324.717Z" transform="translate(-253.1 -310.472)" fill="#1d262d"/>
              <path id="XMLID_99_" d="M262.978,316.221a7.09,7.09,0,0,0-7.161,7,6.905,6.905,0,0,0,.162,1.485c.794.568,3.187,1.048,6.3.861,3.392-.2,6.239-1.127,7.859-2.542a6.8,6.8,0,0,0-.053-.685A7.115,7.115,0,0,0,262.978,316.221Zm-2.542,7.673a2.179,2.179,0,1,1,2.178-2.179A2.181,2.181,0,0,1,260.436,323.894Zm5.579-1.07a1.6,1.6,0,1,1,1.6-1.6A1.6,1.6,0,0,1,266.015,322.824Z" transform="translate(-253.258 -312.213)" fill="#1d262d"/>
            </g>
            <path id="XMLID_96_" d="M277.629,318.462a3.306,3.306,0,0,0-1.628-.279c-.648.08-.994.4-.994,1.186v1.02h2.624v2.023h-2.624v6.425h-2.275v-6.425h-1.578v-2.023h1.578v-1.046c0-1.978,1.055-3.277,3.025-3.277a4.626,4.626,0,0,1,1.872.363Z" transform="translate(-249.059 -312.256)" fill="#1d262d"/>
            <path id="XMLID_94_" d="M281.59,321.506a3.728,3.728,0,0,0-.62-.055,1.69,1.69,0,0,0-1.778,1.9v4.6h-2.275v-8.448h2.206v.925a2.665,2.665,0,0,1,2.379-1.151,2.116,2.116,0,0,1,1.289.4Z" transform="translate(-247.482 -311.375)" fill="#1d262d"/>
            <path id="XMLID_91_" d="M289.476,323.718a6.659,6.659,0,0,1-.043.767h-5.989a2.04,2.04,0,0,0,2.171,1.753,3.421,3.421,0,0,0,2.136-.81l1.334,1.465a5.128,5.128,0,0,1-3.6,1.281,4.448,4.448,0,0,1-.115-8.892C287.8,319.281,289.468,321.086,289.476,323.718Zm-6.024-.785h3.74a1.879,1.879,0,0,0-3.74,0Z" transform="translate(-246.337 -311.375)" fill="#1d262d"/>
            <path id="XMLID_87_" d="M296.553,323.718a6.666,6.666,0,0,1-.043.767H290.52a2.039,2.039,0,0,0,2.171,1.753,3.421,3.421,0,0,0,2.136-.81l1.334,1.465a5.129,5.129,0,0,1-3.6,1.281,4.448,4.448,0,0,1-.115-8.892C294.879,319.281,296.544,321.086,296.553,323.718Zm-6.024-.785h3.74a1.879,1.879,0,0,0-3.74,0Z" transform="translate(-244.4 -311.375)" fill="#1d262d"/>
            <path id="XMLID_82_" d="M304.369,323.728a4.184,4.184,0,0,1-4.089,4.445,3.089,3.089,0,0,1-2.484-1.1v4.368H295.53V319.509h2.223v.932a3.062,3.062,0,0,1,2.52-1.159A4.185,4.185,0,0,1,304.369,323.728Zm-6.686,0a2.18,2.18,0,1,0,2.171-2.327A2.168,2.168,0,0,0,297.683,323.728Z" transform="translate(-242.386 -311.375)" fill="#1d262d"/>
            <path id="XMLID_7_" d="M305.963,317.6a1.452,1.452,0,1,1-1.456-1.465A1.445,1.445,0,0,1,305.963,317.6Zm-.3,11.211h-2.275v-8.448h2.275Z" transform="translate(-240.324 -312.235)" fill="#1d262d"/>
            <path id="XMLID_3_" d="M308.569,323.349l3.182-3.007h2.79l-4.1,3.975,4.123,4.472h-2.8l-3.2-3.418v3.418h-2.275V316.236h2.275v7.113Z" transform="translate(-239.439 -312.209)" fill="#1d262d"/>
          </g>
          <g id="Grupo_1162730" data-name="Grupo 1162730" transform="translate(0 4.996)">
            <path id="Trazado_996914" data-name="Trazado 996914" d="M187.776,328.5v-1.242a3.509,3.509,0,0,1-2.812,1.45c-2.174,0-3.709-1.656-3.709-4.365,0-2.657,1.518-4.382,3.709-4.382a3.484,3.484,0,0,1,2.812,1.466V317h1.294V328.5Zm0-2.26v-3.778a3.129,3.129,0,0,0-2.5-1.346c-1.674,0-2.674,1.381-2.674,3.226s1,3.209,2.674,3.209A3.1,3.1,0,0,0,187.776,326.245Z" transform="translate(-181.254 -316.997)" fill="#1d262d"/>
            <path id="Trazado_996915" data-name="Trazado 996915" d="M188.7,323.691a4.167,4.167,0,0,1,4.105-4.365c2.52,0,4,1.967,4,4.468v.329h-6.746a2.937,2.937,0,0,0,3,2.881,3.644,3.644,0,0,0,2.57-1.052l.622.846a4.526,4.526,0,0,1-3.313,1.276A4.132,4.132,0,0,1,188.7,323.691Zm4.089-3.3a2.78,2.78,0,0,0-2.726,2.777h5.47A2.7,2.7,0,0,0,192.793,320.4Z" transform="translate(-179.214 -316.359)" fill="#1d262d"/>
            <path id="Trazado_996916" data-name="Trazado 996916" d="M195.8,326.762l.673-.931a3.777,3.777,0,0,0,2.744,1.191c1.278,0,1.967-.6,1.967-1.432,0-2.018-5.159-.776-5.159-3.865,0-1.294,1.121-2.4,3.105-2.4a4.221,4.221,0,0,1,3.089,1.208l-.6.9a3.247,3.247,0,0,0-2.484-1.052c-1.139,0-1.846.569-1.846,1.311,0,1.829,5.159.622,5.159,3.865,0,1.4-1.121,2.518-3.277,2.518A4.429,4.429,0,0,1,195.8,326.762Z" transform="translate(-177.271 -316.359)" fill="#1d262d"/>
            <path id="Trazado_996917" data-name="Trazado 996917" d="M202.153,318.066a.871.871,0,1,1,1.743,0,.871.871,0,0,1-1.743,0Zm.224,10.386V320.12h1.294v8.333Z" transform="translate(-175.532 -316.945)" fill="#1d262d"/>
            <path id="Trazado_996918" data-name="Trazado 996918" d="M205.124,330.007l.656-.967a3.184,3.184,0,0,0,2.709,1.139,2.385,2.385,0,0,0,2.674-2.5v-1.191a3.48,3.48,0,0,1-2.8,1.484c-2.173,0-3.709-1.622-3.709-4.313,0-2.674,1.518-4.331,3.709-4.331a3.454,3.454,0,0,1,2.8,1.466v-1.26h1.294v8.091c0,2.76-1.932,3.623-3.968,3.623A4.251,4.251,0,0,1,205.124,330.007Zm6.039-4.538v-3.64a3.071,3.071,0,0,0-2.485-1.346c-1.674,0-2.674,1.329-2.674,3.174,0,1.829,1,3.174,2.674,3.174A3.08,3.08,0,0,0,211.163,325.468Z" transform="translate(-174.847 -316.359)" fill="#1d262d"/>
            <path id="Trazado_996919" data-name="Trazado 996919" d="M218.1,327.867v-5.452c0-1.466-.741-1.932-1.864-1.932a3.218,3.218,0,0,0-2.467,1.294v6.09h-1.294v-8.333h1.294v1.207a4.13,4.13,0,0,1,2.967-1.415,2.369,2.369,0,0,1,2.657,2.691v5.849H218.1Z" transform="translate(-172.707 -316.359)" fill="#1d262d"/>
            <path id="Trazado_996920" data-name="Trazado 996920" d="M219.219,323.691a4.168,4.168,0,0,1,4.107-4.365c2.518,0,4,1.967,4,4.468v.329h-6.746a2.937,2.937,0,0,0,3,2.881,3.642,3.642,0,0,0,2.57-1.052l.622.846a4.528,4.528,0,0,1-3.313,1.276A4.132,4.132,0,0,1,219.219,323.691Zm4.089-3.3a2.78,2.78,0,0,0-2.726,2.777h5.468A2.7,2.7,0,0,0,223.308,320.4Z" transform="translate(-170.86 -316.359)" fill="#1d262d"/>
            <path id="Trazado_996921" data-name="Trazado 996921" d="M233.028,328.5v-1.242a3.509,3.509,0,0,1-2.812,1.45c-2.173,0-3.709-1.656-3.709-4.365,0-2.657,1.518-4.382,3.709-4.382a3.482,3.482,0,0,1,2.813,1.466V317h1.294V328.5Zm0-2.26v-3.778a3.128,3.128,0,0,0-2.5-1.346c-1.674,0-2.674,1.381-2.674,3.226s1,3.209,2.674,3.209A3.1,3.1,0,0,0,233.028,326.245Z" transform="translate(-168.865 -316.997)" fill="#1d262d"/>
            <path id="Trazado_996922" data-name="Trazado 996922" d="M237.49,328.5V317h1.294v4.434a3.461,3.461,0,0,1,2.813-1.466c2.173,0,3.709,1.725,3.709,4.382,0,2.708-1.536,4.365-3.709,4.365a3.509,3.509,0,0,1-2.812-1.45V328.5Zm3.778-.949c1.692,0,2.691-1.363,2.691-3.209s-1-3.226-2.691-3.226a3.1,3.1,0,0,0-2.484,1.346v3.778A3.065,3.065,0,0,0,241.268,327.555Z" transform="translate(-165.858 -316.997)" fill="#1d262d"/>
            <path id="Trazado_996923" data-name="Trazado 996923" d="M244.948,329.91a1.977,1.977,0,0,0,.707.138,1.2,1.2,0,0,0,1.242-.88l.552-1.26-3.485-8.42h1.4l2.778,6.833,2.76-6.833h1.415l-4.175,10.023a2.477,2.477,0,0,1-2.449,1.69,4.215,4.215,0,0,1-.949-.121Z" transform="translate(-164.086 -316.315)" fill="#1d262d"/>
          </g>
        </g>
        <g id="Grupo_1162732" data-name="Grupo 1162732" transform="translate(110.19 171.152)">
          <path id="Trazado_996924" data-name="Trazado 996924" d="M295.112,426.14H238.557s-1.146,18.9-3.437,22.908h63.429C296.257,445.038,295.112,426.14,295.112,426.14Z" transform="translate(-140.029 -254.37)" fill="#c6cbcb"/>
          <path id="Trazado_996925" data-name="Trazado 996925" d="M306.214,445.7a14.264,14.264,0,0,1-5.3-1.574H237.489a14.233,14.233,0,0,1-5.3,1.574c-3.435.431-5.727.716-5.727,2.434h85.475C311.941,446.414,309.65,446.129,306.214,445.7Z" transform="translate(-142.398 -249.447)" fill="#c6cbcb"/>
          <path id="Trazado_996926" data-name="Trazado 996926" d="M409.8,456.758a6.3,6.3,0,0,1-6.3,6.3H166.767a6.3,6.3,0,0,1-6.3-6.3V297.59a6.3,6.3,0,0,1,6.3-6.3H403.5a6.3,6.3,0,0,1,6.3,6.3V456.758Z" transform="translate(-160.467 -291.289)" fill="#c6cbcb"/>
          <path id="Trazado_996927" data-name="Trazado 996927" d="M415.232,456.758a6.3,6.3,0,0,1-6.3,6.3H172.2a6.3,6.3,0,0,1-6.3-6.3V297.59a6.3,6.3,0,0,1,6.3-6.3H408.932a6.3,6.3,0,0,1,6.3,6.3V456.758Z" transform="translate(-158.979 -291.289)" fill="#e2e5e7"/>
          <path id="Trazado_996928" data-name="Trazado 996928" d="M298.866,426.14H242.311s-1.146,18.9-3.437,22.908H302.3C300.011,445.038,298.866,426.14,298.866,426.14Z" transform="translate(-139.001 -254.37)" fill="#d1d5d5"/>
          <path id="Trazado_996929" data-name="Trazado 996929" d="M309.968,445.7a14.264,14.264,0,0,1-5.3-1.574H241.243a14.233,14.233,0,0,1-5.3,1.574c-3.435.431-5.727.716-5.727,2.434H315.7C315.7,446.414,313.405,446.129,309.968,445.7Z" transform="translate(-141.37 -249.447)" fill="#c6cbcb"/>
          <path id="Trazado_996930" data-name="Trazado 996930" d="M408.932,291.289H172.2a6.3,6.3,0,0,0-6.3,6.3V440.532h249.33V297.589A6.3,6.3,0,0,0,408.932,291.289ZM404.913,431.58H176.221V300.245H404.913Z" transform="translate(-158.979 -291.289)" fill="#2d404e"/>
          <path id="Trazado_996931" data-name="Trazado 996931" d="M174,298.32V429.655H402.695V298.32H174Z" transform="translate(-156.761 -289.364)" fill="#fcfcfc"/>
          <path id="Trazado_996932" data-name="Trazado 996932" d="M298.238,426.14H241.682s-.171,2.811-.512,6.491h57.578C298.408,428.951,298.238,426.14,298.238,426.14Z" transform="translate(-138.373 -254.37)" fill="#c6cbcb"/>
          <path id="Trazado_996933" data-name="Trazado 996933" d="M264.678,414.5a4.1,4.1,0,1,1-4.1,4.1A4.1,4.1,0,0,1,264.678,414.5Z" transform="translate(-133.058 -257.558)" fill="#2d404e"/>
          <path id="Trazado_996934" data-name="Trazado 996934" d="M385.63,291.289H342.262L251.014,440.533H391.93V297.59A6.3,6.3,0,0,0,385.63,291.289Z" transform="translate(-135.678 -291.289)" fill="#e2e5e7" opacity="0.16"/>
        </g>
        <g id="Grupo_1162734" data-name="Grupo 1162734" transform="translate(38.901 63.825)">
          <g id="Grupo_1162733" data-name="Grupo 1162733" transform="translate(0 0)">
            <circle id="Elipse_12423" data-name="Elipse 12423" cx="36.025" cy="36.025" r="36.025" transform="translate(0 11.643) rotate(-9.299)" fill="#2d404e"/>
            <circle id="Elipse_12424" data-name="Elipse 12424" cx="28.61" cy="28.61" r="28.61" transform="translate(0.905 41.359) rotate(-45)" fill="#fefefe"/>
            <ellipse id="Elipse_12425" data-name="Elipse 12425" cx="21.918" cy="21.917" rx="21.918" ry="21.917" transform="matrix(0.379, -0.925, 0.925, 0.379, 12.779, 53.349)" fill="#2d404e"/>
            <circle id="Elipse_12426" data-name="Elipse 12426" cx="14.464" cy="14.464" r="14.464" transform="matrix(0.38, -0.925, 0.925, 0.38, 22.503, 49.229)" fill="#fefefe"/>
            <path id="Trazado_996935" data-name="Trazado 996935" d="M138.582,233.637a7.467,7.467,0,1,0,7.467,7.467A7.467,7.467,0,0,0,138.582,233.637Z" transform="translate(-97.214 -199.745)" fill="#2d404e"/>
          </g>
          <path id="Trazado_996936" data-name="Trazado 996936" d="M113.949,275.548V265.312a4.339,4.339,0,0,1,3.481-4.35,4.186,4.186,0,0,1,4.886,4.127V263.22a4.339,4.339,0,0,1,3.481-4.35A4.186,4.186,0,0,1,130.684,263v-1.869a4.338,4.338,0,0,1,3.481-4.35,4.186,4.186,0,0,1,4.886,4.127V243.241a4.339,4.339,0,0,1,3.481-4.35,4.186,4.186,0,0,1,4.886,4.127v32.532a16.735,16.735,0,0,1-16.735,16.735h0A16.738,16.738,0,0,1,113.949,275.548Z" transform="translate(-101.913 -198.322)" fill="#f9934e"/>
          <path id="Trazado_996937" data-name="Trazado 996937" d="M118.193,291.007h24.574a2.555,2.555,0,0,0,2.548-2.548v-8.753a2.555,2.555,0,0,0-2.548-2.548H118.193a2.555,2.555,0,0,0-2.548,2.548v8.753A2.555,2.555,0,0,0,118.193,291.007Z" transform="translate(-101.449 -187.83)" fill="#fefefe"/>
          <path id="Trazado_996938" data-name="Trazado 996938" d="M302.1,301.466v-.8a20.392,20.392,0,0,1-20.392,20.392h-108.9A25.507,25.507,0,0,1,147.3,295.55v-8.723H114.374v8.724A58.429,58.429,0,0,0,172.8,353.98H281.86a55.908,55.908,0,0,0,55.8-52.482h0Z" transform="translate(-101.797 -185.183)" fill="#07ada5"/>
        </g>
        <g id="Grupo_1162740" data-name="Grupo 1162740" transform="translate(257.038 179.979)">
          <g id="Grupo_1162738" data-name="Grupo 1162738" transform="translate(131.501)">
            <g id="Grupo_1162737" data-name="Grupo 1162737">
              <path id="Trazado_996939" data-name="Trazado 996939" d="M439.452,375.2a4.338,4.338,0,0,0,2.736-6.961,1.988,1.988,0,0,0-.047-.334,4.372,4.372,0,0,0,3.846-4.588,4.618,4.618,0,0,0-1.256-2.838,4.446,4.446,0,0,0,.252-8.538,4.119,4.119,0,0,0,1.145-3.109,4.459,4.459,0,0,0-4.617-4.214l-8.394.385c-.321.015-1.073-.595-1.734-.967-1.585-1.215-7.075-2.653-10.044-2.517l-3.693.169c-7.225.331-11.1,6.4-11.842,7.725l-26.838-1.686-.976,23.706,29.255-.308c.5.3,2.035,2.239,2.452,2.542,3,2.2,4.07,2.79,12.177,2.419l17.26-.79C439.3,375.292,439.372,375.208,439.452,375.2Z" transform="translate(-377.99 -285.092)" fill="#f9934e"/>
              <g id="Grupo_1162736" data-name="Grupo 1162736" transform="translate(21.304)">
                <path id="Trazado_996940" data-name="Trazado 996940" d="M427.052,375.323l-7.8-1.21a4.484,4.484,0,0,1-3.795-4.3l-.816-28.441a4.483,4.483,0,0,1,5.168-4.559l7.8,1.21a4.484,4.484,0,0,1,3.795,4.3l.816,28.441A4.483,4.483,0,0,1,427.052,375.323Z" transform="translate(-389.26 -286.394)" fill="#26353f"/>
                <path id="Trazado_996941" data-name="Trazado 996941" d="M472.356,363.6l-41.581-12.689.224-38.49,41.726-12.2Z" transform="translate(-384.843 -296.399)" fill="#e2e5e7"/>
                <g id="Grupo_1162735" data-name="Grupo 1162735" transform="translate(45.932)">
                  <path id="Trazado_996942" data-name="Trazado 996942" d="M430.887,324.992l-.112,19.131,41.582,12.689.183-31.577Z" transform="translate(-430.775 -289.615)" opacity="0.1"/>
                  <path id="Trazado_996943" data-name="Trazado 996943" d="M463.7,368.224h0a3.027,3.027,0,0,1-3.009-3.044l.378-64.952a3.027,3.027,0,0,1,3.044-3.009h0a3.027,3.027,0,0,1,3.009,3.044l-.378,64.952A3.025,3.025,0,0,1,463.7,368.224Z" transform="translate(-422.586 -297.219)" fill="#2f505e"/>
                </g>
                <path id="Trazado_996944" data-name="Trazado 996944" d="M460.877,325.167l-.189,32.361a3.027,3.027,0,1,0,6.053.036l.189-32.361Z" transform="translate(-376.653 -289.568)" opacity="0.1"/>
                <path id="Trazado_996945" data-name="Trazado 996945" d="M402.846,344.814l13.041.076.192-33.063-13.041-.076a8.178,8.178,0,0,0-8.226,8.131l-.1,16.707A8.178,8.178,0,0,0,402.846,344.814Z" transform="translate(-394.715 -293.24)" fill="#ef5214"/>
                <path id="Trazado_996946" data-name="Trazado 996946" d="M394.763,324.782l-.048,8.239a8.178,8.178,0,0,0,8.13,8.226l13.041.076.1-16.418Z" transform="translate(-394.715 -289.673)" opacity="0.1"/>
                <path id="Trazado_996947" data-name="Trazado 996947" d="M436.975,348.315l-25.34-.148a3.527,3.527,0,0,1-3.505-3.547l.183-31.437a3.527,3.527,0,0,1,3.547-3.505l25.34.148Z" transform="translate(-391.042 -293.808)" fill="#2f505e"/>
                <path id="Trazado_996948" data-name="Trazado 996948" d="M408.219,324.86l-.09,15.6a3.527,3.527,0,0,0,3.505,3.547l25.34.148.112-19.131-28.868-.168Z" transform="translate(-391.042 -289.652)" opacity="0.1"/>
              </g>
              <path id="Trazado_996949" data-name="Trazado 996949" d="M416.249,360.422a4.46,4.46,0,0,1,4.214-4.617l10.436-.478a4.42,4.42,0,1,1,.4,8.831l-10.436.478A4.459,4.459,0,0,1,416.249,360.422Z" transform="translate(-367.517 -281.312)" fill="#e58341"/>
              <path id="Trazado_996950" data-name="Trazado 996950" d="M433.565,359.269a2.848,2.848,0,0,0-2.939-2.681l-10.436.478a2.813,2.813,0,0,0,.257,5.62l10.436-.478A2.849,2.849,0,0,0,433.565,359.269Z" transform="translate(-367.172 -280.966)" fill="#f9934e"/>
              <path id="Trazado_996951" data-name="Trazado 996951" d="M416.36,349.051a4.46,4.46,0,0,1,4.214-4.617l10.436-.478a4.42,4.42,0,0,1,.4,8.831l-10.436.478A4.459,4.459,0,0,1,416.36,349.051Z" transform="translate(-367.487 -284.425)" fill="#e58341"/>
              <path id="Trazado_996952" data-name="Trazado 996952" d="M433.676,347.9a2.848,2.848,0,0,0-2.939-2.681l-10.436.478a2.813,2.813,0,0,0,.257,5.62l10.436-.478A2.848,2.848,0,0,0,433.676,347.9Z" transform="translate(-367.141 -284.079)" fill="#f9934e"/>
              <path id="Trazado_996953" data-name="Trazado 996953" d="M417.138,366.026a4.459,4.459,0,0,1,4.214-4.617l6.422-.294a4.42,4.42,0,1,1,.4,8.831l-6.422.294A4.461,4.461,0,0,1,417.138,366.026Z" transform="translate(-367.274 -279.728)" fill="#e58341"/>
              <path id="Trazado_996954" data-name="Trazado 996954" d="M430.44,365.056a2.848,2.848,0,0,0-2.939-2.681l-6.422.294a2.813,2.813,0,0,0,.257,5.62l6.422-.294A2.848,2.848,0,0,0,430.44,365.056Z" transform="translate(-366.928 -279.382)" fill="#f9934e"/>
              <path id="Trazado_996955" data-name="Trazado 996955" d="M415.36,354.747c-.055-1.2-.113-2.489.969-3.423a.845.845,0,0,1,1.043-.048,13.01,13.01,0,0,0,2.4,1.419c.245.069.413.223.657.292a3.315,3.315,0,0,0,3.274-.552,1.728,1.728,0,0,0,.732-1.562.625.625,0,0,1,.131-.65.987.987,0,0,1,.628-.35l8.027-.367a4.46,4.46,0,0,1,4.617,4.214,4.529,4.529,0,0,1-4.21,4.7l-13.647.624a4.479,4.479,0,0,1-4.621-4.3Z" transform="translate(-367.766 -282.905)" fill="#e58341"/>
              <path id="Trazado_996956" data-name="Trazado 996956" d="M416.708,352.7a4.467,4.467,0,0,0-.087,1.613,2.864,2.864,0,0,0,2.942,2.762l13.647-.624a2.813,2.813,0,0,0-.257-5.62l-7.305.334A3.511,3.511,0,0,1,424.3,353.4a4.911,4.911,0,0,1-4.955.71c-.164-.073-.413-.223-.577-.3A13.081,13.081,0,0,1,416.708,352.7Z" transform="translate(-367.421 -282.543)" fill="#f9934e"/>
              <path id="Trazado_996957" data-name="Trazado 996957" d="M412.579,345.6a16.721,16.721,0,0,0,8.57,9.543,3.332,3.332,0,0,0,3.812-1.06c.6-.992-.332-2-1.248-2.677-1.832-1.364-1.814-3.049-3.109-5,0,0-2.186-5-6.11-4.763C411.567,341.821,412.579,345.6,412.579,345.6Z" transform="translate(-368.567 -285.059)" fill="#f9934e"/>
              <path id="Trazado_996958" data-name="Trazado 996958" d="M412.534,348.357a.965.965,0,0,1,.525-.828.825.825,0,0,1,.988.518c.661,2.141,3.69,5.061,7.067,6.756a3.332,3.332,0,0,0,3.812-1.06c.6-.992-.332-2-1.248-2.677a28.848,28.848,0,0,1-6.289-6.945.828.828,0,0,1,1.409-.869,32.537,32.537,0,0,0,5.864,6.481c3,2.2,2.044,4.251,1.669,4.83a4.866,4.866,0,0,1-5.878,1.637c-3.211-1.623-6.895-4.752-7.834-7.686C412.542,348.517,412.538,348.437,412.534,348.357Z" transform="translate(-368.533 -284.717)" fill="#e58341"/>
            </g>
          </g>
          <path id="Trazado_996959" data-name="Trazado 996959" d="M388.987,348.627V373.2a2.555,2.555,0,0,0,2.548,2.548h8.753a2.555,2.555,0,0,0,2.548-2.548V348.627a2.555,2.555,0,0,0-2.548-2.548h-8.753A2.555,2.555,0,0,0,388.987,348.627Z" transform="translate(-244.753 -285.116)" fill="#f0f5f7"/>
          <g id="Grupo_1162739" data-name="Grupo 1162739" transform="translate(0 0.129)">
            <path id="Trazado_996960" data-name="Trazado 996960" d="M421.916,391.062h-70.13a76.118,76.118,0,0,1-76.033-76.032V298.32h32.979v16.711a43.1,43.1,0,0,0,43.053,43.052h70.13v32.979Z" transform="translate(-275.753 -298.32)" fill="#fed732"/>
          </g>
        </g>
        <g id="Grupo_1162744" data-name="Grupo 1162744" transform="translate(176.03)">
          <g id="Grupo_1162742" data-name="Grupo 1162742" transform="translate(113.158)">
            <g id="Grupo_1162741" data-name="Grupo 1162741">
              <path id="Trazado_996961" data-name="Trazado 996961" d="M331.294,183.065l-5.806,4.118s-2.886-8.153-5.136-13.268c-.925-2.1-3.73-2.847-5.03-5.782-2.266-5.115.4-9.538,3.108-6.346,3.122,3.679,7.676,6.408,8.6,8.51C328.566,173.806,331.294,183.065,331.294,183.065Z" transform="translate(-297.304 -155.886)" fill="#f9934e"/>
              <path id="Trazado_996962" data-name="Trazado 996962" d="M334.716,187.447c.408,2.784.056,7.171-2.379,12.3,0,0-5.034-6.03-5.62-8.783,0,0-1.439-10.51-2.866-17.207-.587-2.753-3.773-4.344-4.6-8.188-1.448-6.7,2.851-11.361,5.31-6.855,2.837,5.193,7.622,9.6,8.207,12.348C333.742,175.65,334.116,183.363,334.716,187.447Z" transform="translate(-296.075 -156.923)" fill="#f9934e"/>
              <path id="Trazado_996963" data-name="Trazado 996963" d="M327.281,182.066s-.47-3.973-1.9-10.668c-.585-2.755-3.769-4.346-4.6-8.19a10.9,10.9,0,0,1,.236-5.908c-1.511,1.162-2.736,4.324-1.907,8.162s4.039,5.452,4.62,8.208c.606,2.883,1.123,5.886,1.123,5.886l-4.417-1.648Z" transform="translate(-296.106 -156.819)" fill="#e58341"/>
              <path id="Trazado_996964" data-name="Trazado 996964" d="M337.507,182.579c-5.853-5.326-12.351-8.548-16.567-10.619-6.257-3.075-4.61,1.157-15.283,3.953-1.41.369-3.086,1.4-1.8,4.072,1.237,2.576,11.311.622,12.877-.921,0,0,4.216,5.158,8.43,5.036,0,0-.729,3.423.3,5.077,0,0-5.97,3.105-8.528,5.831l-7.1-4.75c-.52-7.348-1.856-9.523-5.47-9.175-3.37.324-2.99,3.485-2.916,6.087.133,4.685-1.109,5.444.036,7.3,4.379,7.11,9.877,11.519,20.105,11.519,3.83,0,6.262-.1,8.615-1.267C334.146,202.772,343.947,188.438,337.507,182.579Z" transform="translate(-300.993 -153.1)" fill="#f9934e"/>
              <path id="Trazado_996965" data-name="Trazado 996965" d="M338.645,181.16c2.188,6.714-5.631,17.719-9.054,19.414-2.354,1.163-4.786,1.266-8.615,1.266-10.118,0-15.645-4.336-19.961-11.289a4.108,4.108,0,0,0,.467,1.113c4.381,7.109,9.879,11.517,20.107,11.517,3.832,0,6.264-.1,8.617-1.267C333.864,200.1,342.562,187.631,338.645,181.16Z" transform="translate(-300.987 -150.287)" fill="#f9934e"/>
              <path id="Trazado_996966" data-name="Trazado 996966" d="M308.035,188.316s6.6,4.234,8.2,4.467l-6.959-4.7c.283-7.418-1.893-9.78-5.472-9.175a7.625,7.625,0,0,0-.787.176C306.6,178.723,308.327,181.077,308.035,188.316Z" transform="translate(-300.438 -150.928)" fill="#e58341"/>
              <path id="Trazado_996967" data-name="Trazado 996967" d="M316.225,177.575s4.217,5.158,8.43,5.036v-.957c-4.211.12-8.43-5.038-8.43-5.038-1.564,1.543-11.638,3.5-12.874.921a4.672,4.672,0,0,1-.406-1.216,3.455,3.455,0,0,0,.406,2.176C304.587,181.072,314.661,179.118,316.225,177.575Z" transform="translate(-300.471 -151.612)" fill="#e58341"/>
            </g>
            <path id="Trazado_996968" data-name="Trazado 996968" d="M333.739,207.524H312.193l-8.648-14.339,33.582-3.4Z" transform="translate(-300.294 -147.927)" fill="#f9934e"/>
          </g>
          <path id="Trazado_996969" data-name="Trazado 996969" d="M309.247,216.03H333.82a2.555,2.555,0,0,0,2.548-2.548V204.73a2.555,2.555,0,0,0-2.548-2.548H309.247a2.555,2.555,0,0,0-2.548,2.548v8.753A2.555,2.555,0,0,0,309.247,216.03Z" transform="translate(-186.273 -144.532)" fill="#fefefe"/>
          <g id="Grupo_1162743" data-name="Grupo 1162743" transform="translate(0 69.978)">
            <path id="Trazado_996970" data-name="Trazado 996970" d="M288.128,442.837A76.057,76.057,0,0,0,364.1,366.865V211.86H331.12V366.865a42.992,42.992,0,0,1-85.985,0V321.99H212.156v44.876A76.056,76.056,0,0,0,288.128,442.837Z" transform="translate(-212.156 -211.86)" fill="#00d1ca"/>
          </g>
        </g>
        <g id="Grupo_1162747" data-name="Grupo 1162747" transform="translate(140.573 14.163)">
          <g id="Grupo_1162745" data-name="Grupo 1162745" transform="translate(10.605)">
            <path id="Trazado_996971" data-name="Trazado 996971" d="M273.834,239.841a3.443,3.443,0,0,1-1.015,2.537,3.668,3.668,0,0,1-2.368.846H196.029a4.044,4.044,0,0,1-2.368-.846,3.443,3.443,0,0,1-1.015-2.537V190.284h81.186v49.557Z" transform="translate(-192.646 -161.952)" fill="#fed732"/>
            <path id="Trazado_996972" data-name="Trazado 996972" d="M272.6,238.488a3.668,3.668,0,0,1-2.368.846H195.812a4.043,4.043,0,0,1-2.368-.846l39.579-34Z" transform="translate(-192.428 -158.062)" fill="#ffb621"/>
            <path id="Trazado_996973" data-name="Trazado 996973" d="M273.833,196.372l-11.5,8.288-26.893,19.282a3.8,3.8,0,0,1-4.567,0l-26.724-19.282-11.5-8.288,11.5-8.288,25.032-17.928,1.861-1.353a3.8,3.8,0,0,1,4.567,0l1.861,1.353,12.009,8.626,5.921,4.229,6.934,5.075Z" transform="translate(-192.646 -168.041)" fill="#024057"/>
            <path id="Trazado_996974" data-name="Trazado 996974" d="M259.86,173.814v30.392l-26.893,19.282a3.8,3.8,0,0,1-4.566,0l-26.724-19.282V173.084a3.393,3.393,0,0,1,3.383-3.383h50.69A4.112,4.112,0,0,1,259.86,173.814Z" transform="translate(-190.174 -167.587)" fill="#f2f2f2"/>
            <path id="Trazado_996975" data-name="Trazado 996975" d="M237.678,192.111a10.823,10.823,0,1,0-5.412,9.384,1.408,1.408,0,1,0-1.413-2.437,8.021,8.021,0,1,1,4.009-6.947h0v2.358a.937.937,0,0,1-.945.946.951.951,0,0,1-.676-.287.909.909,0,0,1-.27-.661v-2.358a6.192,6.192,0,1,0-2.089,4.568,3.554,3.554,0,0,0,.378.453,3.759,3.759,0,0,0,6.419-2.663v-2.358h0Zm-10.833,3.308a3.305,3.305,0,1,1,3.307-3.305A3.308,3.308,0,0,1,226.844,195.419Z" transform="translate(-186.249 -164.418)" fill="#00d1ca"/>
          </g>
          <path id="Trazado_996976" data-name="Trazado 996976" d="M194.777,203.473v21.518s.769,7.854,5.575,9c4.13.986,7.483-3.567,7.483-3.567a18.212,18.212,0,0,1,2.251-5.892c1.139-1.943,4.058-4.919,6.087-3.675,1.256.769.9,5.826,1.085,11.968.134,4.5-2.272,12.117-3.975,16.283a16.941,16.941,0,0,1-5.3,6.5c-2.143,1.306-18.6.429-18.6.429L185.863,229.9S184.263,210.006,194.777,203.473Z" transform="translate(-183.922 -158.341)" fill="#f9934e"/>
          <path id="Trazado_996977" data-name="Trazado 996977" d="M212.893,255.336H188.321a2.555,2.555,0,0,1-2.548-2.548v-8.753a2.555,2.555,0,0,1,2.548-2.548h24.572a2.555,2.555,0,0,1,2.548,2.548v8.753A2.555,2.555,0,0,1,212.893,255.336Z" transform="translate(-183.922 -147.933)" fill="#fefefe"/>
          <g id="Grupo_1162746" data-name="Grupo 1162746" transform="translate(0 105.882)">
            <path id="Trazado_996978" data-name="Trazado 996978" d="M260.293,396.719a76.058,76.058,0,0,1-75.973-75.972V251.166H217.3v69.581a42.992,42.992,0,1,0,85.985,0v-9.519h32.979v9.519A76.054,76.054,0,0,1,260.293,396.719Z" transform="translate(-184.32 -251.166)" fill="#2d404e"/>
          </g>
        </g>
        <g id="Grupo_1162754" data-name="Grupo 1162754" transform="translate(0 180.108)">
          <g id="Grupo_1162751" data-name="Grupo 1162751" transform="translate(0 49.147)">
            <g id="Grupo_1162750" data-name="Grupo 1162750">
              <path id="Trazado_996979" data-name="Trazado 996979" d="M81.9,389.512l17.26.79c8.108.371,9.181-.224,12.177-2.419.417-.3,1.955-2.243,2.452-2.542l29.255.308-.976-23.706-26.838,1.686c-.744-1.321-4.617-7.394-11.842-7.725l-3.693-.169c-2.97-.136-8.46,1.3-10.044,2.517-.661.372-1.413.981-1.734.967l-8.394-.385a4.46,4.46,0,0,0-4.617,4.214,4.114,4.114,0,0,0,1.145,3.109,4.446,4.446,0,0,0,.252,8.538,4.617,4.617,0,0,0-1.256,2.838,4.372,4.372,0,0,0,3.846,4.588,2.182,2.182,0,0,0-.046.334,4.338,4.338,0,0,0,2.736,6.961C81.658,389.42,81.735,389.5,81.9,389.512Z" transform="translate(-72.96 -330.478)" fill="#f9934e"/>
              <g id="Grupo_1162749" data-name="Grupo 1162749" transform="translate(4.595)">
                <path id="Trazado_996980" data-name="Trazado 996980" d="M83.128,389.945l10.724.515-.2-36.719L82.938,355.2Z" transform="translate(-74.824 -331.021)" fill="#bed6e5"/>
                <g id="Grupo_1162748" data-name="Grupo 1162748">
                  <path id="Trazado_996981" data-name="Trazado 996981" d="M96.092,336.5l.071,12.781L90,353.06l-6.2-3.871L83.728,335.9a12.582,12.582,0,0,0-7.16,11.559,14.324,14.324,0,0,0,13.484,14.073,12.592,12.592,0,0,0,13.334-12.776A14.326,14.326,0,0,0,96.092,336.5Z" transform="translate(-76.568 -335.904)" fill="#bed6e5"/>
                  <path id="Trazado_996982" data-name="Trazado 996982" d="M85.59,381.237a8.731,8.731,0,0,0-4.975,11.819,9.945,9.945,0,0,0,12.553,5.052,8.738,8.738,0,0,0,4.97-11.823A9.941,9.941,0,0,0,85.59,381.237Zm10.841,8.546L94.5,391.777l-.033,2.773-2.88.047-2.065,1.861-2.142-1.93-2.883-.14-.162-2.773-2.013-2.058,1.927-1.995.034-2.773,2.877-.043,2.067-1.861,2.148,1.928,2.879.139.158,2.776Z" transform="translate(-75.676 -323.672)" fill="#bed6e5"/>
                </g>
              </g>
              <path id="Trazado_996983" data-name="Trazado 996983" d="M93.862,374.634a4.459,4.459,0,0,0-4.214-4.617l-10.436-.478a4.42,4.42,0,0,0-.4,8.831l10.436.478A4.459,4.459,0,0,0,93.862,374.634Z" transform="translate(-72.514 -326.697)" fill="#e58341"/>
              <path id="Trazado_996984" data-name="Trazado 996984" d="M75.856,373.481a2.848,2.848,0,0,1,2.939-2.681l10.436.478a2.813,2.813,0,1,1-.257,5.62l-10.436-.478A2.848,2.848,0,0,1,75.856,373.481Z" transform="translate(-72.169 -326.351)" fill="#f9934e"/>
              <path id="Trazado_996985" data-name="Trazado 996985" d="M93.751,363.263a4.459,4.459,0,0,0-4.214-4.617L79.1,358.168A4.42,4.42,0,0,0,78.7,367l10.436.478A4.459,4.459,0,0,0,93.751,363.263Z" transform="translate(-72.545 -329.81)" fill="#e58341"/>
              <path id="Trazado_996986" data-name="Trazado 996986" d="M75.745,362.11a2.848,2.848,0,0,1,2.939-2.681l10.436.478a2.813,2.813,0,1,1-.257,5.62l-10.436-.478A2.848,2.848,0,0,1,75.745,362.11Z" transform="translate(-72.199 -329.464)" fill="#f9934e"/>
              <path id="Trazado_996987" data-name="Trazado 996987" d="M92.11,380.238A4.459,4.459,0,0,0,87.9,375.62l-6.422-.294a4.42,4.42,0,1,0-.4,8.831l6.422.294A4.461,4.461,0,0,0,92.11,380.238Z" transform="translate(-71.895 -325.113)" fill="#e58341"/>
              <path id="Trazado_996988" data-name="Trazado 996988" d="M78.118,379.268a2.848,2.848,0,0,1,2.939-2.681l6.422.294a2.813,2.813,0,0,1-.257,5.62l-6.422-.294A2.848,2.848,0,0,1,78.118,379.268Z" transform="translate(-71.549 -324.767)" fill="#f9934e"/>
              <path id="Trazado_996989" data-name="Trazado 996989" d="M95.445,368.959c.055-1.2.113-2.489-.969-3.423a.845.845,0,0,0-1.043-.048,13.045,13.045,0,0,1-2.4,1.419c-.245.069-.413.223-.657.292a3.312,3.312,0,0,1-3.272-.552,1.726,1.726,0,0,1-.732-1.562.625.625,0,0,0-.131-.65.993.993,0,0,0-.628-.35l-8.027-.367a4.459,4.459,0,0,0-4.617,4.214,4.53,4.53,0,0,0,4.21,4.7l13.647.624a4.479,4.479,0,0,0,4.619-4.3Z" transform="translate(-72.959 -328.29)" fill="#e58341"/>
              <path id="Trazado_996990" data-name="Trazado 996990" d="M93.408,366.91a4.468,4.468,0,0,1,.087,1.613,2.865,2.865,0,0,1-2.942,2.762L76.9,370.66a2.813,2.813,0,0,1,.257-5.62l7.305.334a3.511,3.511,0,0,0,1.346,2.234,4.911,4.911,0,0,0,4.955.709c.164-.073.413-.223.577-.3A13.245,13.245,0,0,0,93.408,366.91Z" transform="translate(-72.615 -327.928)" fill="#f9934e"/>
              <path id="Trazado_996991" data-name="Trazado 996991" d="M96.127,359.812a16.721,16.721,0,0,1-8.57,9.543,3.332,3.332,0,0,1-3.812-1.06c-.6-.992.332-2,1.248-2.677,1.832-1.364,1.814-3.049,3.109-5,0,0,2.185-5,6.109-4.763C97.14,356.033,96.127,359.812,96.127,359.812Z" transform="translate(-70.06 -330.444)" fill="#f9934e"/>
              <path id="Trazado_996992" data-name="Trazado 996992" d="M96.5,362.569a.965.965,0,0,0-.525-.828.825.825,0,0,0-.988.517c-.661,2.141-3.69,5.061-7.067,6.756a3.332,3.332,0,0,1-3.812-1.06c-.6-.992.332-2,1.248-2.677a28.847,28.847,0,0,0,6.289-6.945.828.828,0,0,0-1.409-.869,32.536,32.536,0,0,1-5.864,6.481c-3,2.2-2.044,4.251-1.669,4.831a4.866,4.866,0,0,0,5.878,1.637c3.211-1.623,6.895-4.752,7.834-7.686C96.488,362.73,96.491,362.649,96.5,362.569Z" transform="translate(-70.417 -330.102)" fill="#e58341"/>
            </g>
          </g>
          <path id="Trazado_996993" data-name="Trazado 996993" d="M121.957,362.84v24.574a2.555,2.555,0,0,1-2.548,2.548h-8.753a2.555,2.555,0,0,1-2.548-2.548V362.84a2.555,2.555,0,0,1,2.548-2.548h8.753A2.554,2.554,0,0,1,121.957,362.84Z" transform="translate(-64.612 -281.354)" fill="#f0f5f7"/>
          <g id="Grupo_1162753" data-name="Grupo 1162753" transform="translate(55.417)">
            <g id="Grupo_1162752" data-name="Grupo 1162752">
              <path id="Trazado_996994" data-name="Trazado 996994" d="M117.467,409.165H243.055a76.118,76.118,0,0,0,76.033-76.032V298.32H286.108v34.813a43.1,43.1,0,0,1-43.054,43.052H117.467v32.979Z" transform="translate(-117.467 -298.32)" fill="#ef5214"/>
            </g>
          </g>
        </g>
      </g>
      <g id="Grupo_1162757" data-name="Grupo 1162757" transform="translate(257.195 128.354)">
        <g id="Grupo_1162756" data-name="Grupo 1162756">
          <path id="XMLID_1304_" d="M261.19,121.724l-31.2-12.7,4.225,12.7-4.238,12.687Z" transform="translate(-202.435 -107.814)" fill="#fefefe"/>
          <path id="Trazado_996995" data-name="Trazado 996995" d="M262.679,121.984a1.1,1.1,0,0,0-.027-.217c0-.027-.014-.041-.014-.068-.014-.053-.027-.094-.041-.149-.014-.027-.014-.041-.027-.068a1.182,1.182,0,0,0-.094-.189l-.014-.014a1.733,1.733,0,0,0-.121-.149l-.041-.041a.762.762,0,0,0-.121-.094c-.014-.014-.041-.027-.054-.041a1.7,1.7,0,0,0-.149-.082c-.014-.014-.027-.014-.041-.027h0l-31.2-12.687a1.225,1.225,0,0,0-1.619,1.526L233.2,122,229.085,134.3a1.234,1.234,0,0,0,1.16,1.62,1.113,1.113,0,0,0,.459-.094l31.23-12.687h.014c.014,0,.027-.014.041-.027a1.329,1.329,0,0,0,.149-.082c.014-.014.041-.027.053-.041.041-.027.082-.067.121-.094l.041-.041a1.506,1.506,0,0,0,.135-.162h0a.792.792,0,0,0,.094-.189c.014-.027.014-.041.027-.068.014-.053.027-.094.041-.149,0-.027.014-.041.014-.068,0-.092.014-.173.014-.241Zm-30.434-10.567,22.957,9.339H235.349Zm3.1,11.782h19.84l-22.957,9.339Z" transform="translate(-202.695 -108.074)" fill="#2d404e"/>
          <path id="Trazado_996996" data-name="Trazado 996996" d="M225.374,160.41a1.244,1.244,0,1,0-.864-.364A1.172,1.172,0,0,0,225.374,160.41Z" transform="translate(-204.03 -94.418)" fill="#2d404e"/>
          <path id="Trazado_996997" data-name="Trazado 996997" d="M251.683,157.63a1.214,1.214,0,0,0,.876-2.065,1.222,1.222,0,1,0-1.768,1.687A1.272,1.272,0,0,0,251.683,157.63Z" transform="translate(-196.827 -95.174)" fill="#2d404e"/>
          <path id="Trazado_996998" data-name="Trazado 996998" d="M253.132,154.8a1.159,1.159,0,0,0,.553.135,1.232,1.232,0,1,0-.553-.135Z" transform="translate(-196.28 -95.918)" fill="#2d404e"/>
          <path id="Trazado_996999" data-name="Trazado 996999" d="M253.928,145.046a1.213,1.213,0,0,0,.405-1.674,1.226,1.226,0,1,0-1.052,1.862A1.375,1.375,0,0,0,253.928,145.046Z" transform="translate(-196.388 -98.57)" fill="#2d404e"/>
          <path id="Trazado_997000" data-name="Trazado 997000" d="M253.331,147.378a1.221,1.221,0,0,0,1.187.972,1.572,1.572,0,0,0,.256-.027,1.221,1.221,0,1,0-1.443-.945Z" transform="translate(-196.047 -97.716)" fill="#2d404e"/>
          <path id="Trazado_997001" data-name="Trazado 997001" d="M252.026,142.248a1.228,1.228,0,1,0-1.727.176,1.193,1.193,0,0,0,.769.27A1.224,1.224,0,0,0,252.026,142.248Z" transform="translate(-196.995 -99.267)" fill="#2d404e"/>
          <path id="Trazado_997002" data-name="Trazado 997002" d="M214.179,130.888a1.242,1.242,0,0,0,1.215,1.052.75.75,0,0,0,.176-.014,1.227,1.227,0,1,0-1.391-1.038Z" transform="translate(-206.763 -102.212)" fill="#2d404e"/>
          <path id="Trazado_997003" data-name="Trazado 997003" d="M217.263,123.141a1.222,1.222,0,0,0-1.242,2.106,1.25,1.25,0,0,0,.62.162,1.219,1.219,0,0,0,1.053-.608A1.192,1.192,0,0,0,217.263,123.141Z" transform="translate(-206.419 -103.995)" fill="#2d404e"/>
          <path id="Trazado_997004" data-name="Trazado 997004" d="M218.488,137.786a1.221,1.221,0,1,0-.837-.324A1.26,1.26,0,0,0,218.488,137.786Z" transform="translate(-205.916 -100.608)" fill="#2d404e"/>
          <path id="Trazado_997005" data-name="Trazado 997005" d="M221.79,137.283a1.221,1.221,0,0,0-.972,2.241,1.243,1.243,0,0,0,.487.094,1.218,1.218,0,0,0,.485-2.335Z" transform="translate(-205.143 -100.105)" fill="#2d404e"/>
          <path id="Trazado_997006" data-name="Trazado 997006" d="M219.747,120.835a1.225,1.225,0,0,0-1.862,1.592,1.236,1.236,0,0,0,.931.432,1.217,1.217,0,0,0,.8-.3A1.247,1.247,0,0,0,219.747,120.835Z" transform="translate(-205.826 -104.698)" fill="#2d404e"/>
          <path id="Trazado_997007" data-name="Trazado 997007" d="M215.226,128.542a1.448,1.448,0,0,0,.229.027,1.225,1.225,0,1,0-1.2-1.457h0A1.225,1.225,0,0,0,215.226,128.542Z" transform="translate(-206.744 -103.133)" fill="#2d404e"/>
          <path id="Trazado_997008" data-name="Trazado 997008" d="M216.44,135.124a1.213,1.213,0,0,0,.567-.135,1.233,1.233,0,1,0-.567.135Z" transform="translate(-206.474 -101.334)" fill="#2d404e"/>
          <path id="Trazado_997009" data-name="Trazado 997009" d="M255.884,150.641a1.224,1.224,0,1,0-1.377,1.053.633.633,0,0,0,.162.014A1.223,1.223,0,0,0,255.884,150.641Z" transform="translate(-196.009 -96.796)" fill="#2d404e"/>
          <path id="Trazado_997010" data-name="Trazado 997010" d="M231.329,138a1.228,1.228,0,1,0,1.228,1.228A1.224,1.224,0,0,0,231.329,138Z" transform="translate(-202.4 -99.88)" fill="#2d404e"/>
          <path id="Trazado_997011" data-name="Trazado 997011" d="M241.046,159.193a1.228,1.228,0,1,0,1.228-1.228A1.224,1.224,0,0,0,241.046,159.193Z" transform="translate(-199.404 -94.415)" fill="#2d404e"/>
          <path id="Trazado_997012" data-name="Trazado 997012" d="M230.906,159.193a1.228,1.228,0,1,0,1.228-1.228A1.224,1.224,0,0,0,230.906,159.193Z" transform="translate(-202.18 -94.415)" fill="#2d404e"/>
          <path id="Trazado_997013" data-name="Trazado 997013" d="M241.458,138a1.228,1.228,0,1,0,1.228,1.228A1.224,1.224,0,0,0,241.458,138Z" transform="translate(-199.627 -99.88)" fill="#2d404e"/>
          <path id="Trazado_997014" data-name="Trazado 997014" d="M234.709,138a1.228,1.228,0,1,0,1.228,1.228A1.224,1.224,0,0,0,234.709,138Z" transform="translate(-201.475 -99.88)" fill="#2d404e"/>
          <path id="Trazado_997015" data-name="Trazado 997015" d="M227.537,159.193a1.228,1.228,0,1,0,1.228-1.228A1.224,1.224,0,0,0,227.537,159.193Z" transform="translate(-203.102 -94.415)" fill="#2d404e"/>
          <path id="Trazado_997016" data-name="Trazado 997016" d="M234.286,159.193a1.228,1.228,0,1,0,1.228-1.228A1.232,1.232,0,0,0,234.286,159.193Z" transform="translate(-201.254 -94.415)" fill="#2d404e"/>
          <path id="Trazado_997017" data-name="Trazado 997017" d="M237.666,159.193a1.222,1.222,0,1,0,1.228-1.228A1.224,1.224,0,0,0,237.666,159.193Z" transform="translate(-200.329 -94.415)" fill="#2d404e"/>
          <path id="Trazado_997018" data-name="Trazado 997018" d="M238.089,138a1.228,1.228,0,1,0,1.228,1.228A1.224,1.224,0,0,0,238.089,138Z" transform="translate(-200.549 -99.88)" fill="#2d404e"/>
          <path id="Trazado_997019" data-name="Trazado 997019" d="M226.721,139.22a1.228,1.228,0,1,0,1.228-1.228A1.232,1.232,0,0,0,226.721,139.22Z" transform="translate(-203.325 -99.883)" fill="#2d404e"/>
          <path id="Trazado_997020" data-name="Trazado 997020" d="M226.218,119.228a1.221,1.221,0,1,0-1.187,1.255A1.212,1.212,0,0,0,226.218,119.228Z" transform="translate(-204.132 -105.345)" fill="#2d404e"/>
          <path id="Trazado_997021" data-name="Trazado 997021" d="M223.352,139.115a1.233,1.233,0,0,0,1.134,1.309h.082a1.213,1.213,0,0,0,1.215-1.134,1.233,1.233,0,0,0-1.134-1.309A1.206,1.206,0,0,0,223.352,139.115Z" transform="translate(-204.249 -99.887)" fill="#2d404e"/>
          <path id="Trazado_997022" data-name="Trazado 997022" d="M222.842,119.47a1.222,1.222,0,1,0-1.134,1.661,1.152,1.152,0,0,0,.432-.082A1.217,1.217,0,0,0,222.842,119.47Z" transform="translate(-205.035 -105.169)" fill="#2d404e"/>
          <path id="Trazado_997023" data-name="Trazado 997023" d="M249.3,140.23a1.217,1.217,0,0,0-.743-1.565h0a1.219,1.219,0,1,0-.823,2.294,1.14,1.14,0,0,0,.418.067A1.185,1.185,0,0,0,249.3,140.23Z" transform="translate(-197.795 -99.719)" fill="#2d404e"/>
          <path id="Trazado_997024" data-name="Trazado 997024" d="M244.849,138a1.222,1.222,0,0,0-.013,2.443h.014a1.229,1.229,0,0,0,1.228-1.215A1.243,1.243,0,0,0,244.849,138Z" transform="translate(-198.699 -99.88)" fill="#2d404e"/>
          <path id="Trazado_997025" data-name="Trazado 997025" d="M248.894,159.518a1.4,1.4,0,0,0,.513-.108,1.226,1.226,0,1,0-.513.108Z" transform="translate(-197.588 -94.66)" fill="#2d404e"/>
          <path id="Trazado_997026" data-name="Trazado 997026" d="M244.427,159.254a1.228,1.228,0,0,0,1.215,1.12h.108a1.219,1.219,0,0,0-.215-2.429h0A1.2,1.2,0,0,0,244.427,159.254Z" transform="translate(-198.479 -94.422)" fill="#2d404e"/>
          <path id="Trazado_997027" data-name="Trazado 997027" d="M212.566,160.751a1.214,1.214,0,0,0-.876,2.065,1.222,1.222,0,0,0,1.768-1.686A1.275,1.275,0,0,0,212.566,160.751Z" transform="translate(-207.535 -93.652)" fill="#2d404e"/>
          <path id="Trazado_997028" data-name="Trazado 997028" d="M211.118,163.588a1.159,1.159,0,0,0-.553-.135,1.232,1.232,0,1,0,.553.135Z" transform="translate(-208.085 -92.912)" fill="#2d404e"/>
          <path id="Trazado_997029" data-name="Trazado 997029" d="M208.363,167.74a1.224,1.224,0,1,0,1.377-1.052.632.632,0,0,0-.162-.014A1.224,1.224,0,0,0,208.363,167.74Z" transform="translate(-208.354 -92.031)" fill="#2d404e"/>
          <path id="Trazado_997030" data-name="Trazado 997030" d="M223.2,159.193a1.228,1.228,0,1,0-1.228,1.228A1.224,1.224,0,0,0,223.2,159.193Z" transform="translate(-204.961 -94.415)" fill="#2d404e"/>
          <path id="Trazado_997031" data-name="Trazado 997031" d="M215.354,158.865a1.4,1.4,0,0,0-.513.108,1.226,1.226,0,1,0,.513-.108Z" transform="translate(-206.775 -94.168)" fill="#2d404e"/>
          <path id="Trazado_997032" data-name="Trazado 997032" d="M219.82,159.127a1.228,1.228,0,0,0-1.215-1.12H218.5a1.219,1.219,0,0,0,.215,2.429h0A1.205,1.205,0,0,0,219.82,159.127Z" transform="translate(-205.882 -94.403)" fill="#2d404e"/>
          <path id="Trazado_997033" data-name="Trazado 997033" d="M229.29,120.122a1.214,1.214,0,0,0,.35-.864,1.276,1.276,0,0,0-.35-.864,1.221,1.221,0,1,0-.864,2.092A1.284,1.284,0,0,0,229.29,120.122Z" transform="translate(-203.195 -105.348)" fill="#2d404e"/>
        </g>
      </g>
    </g>
  </g>
</svg>
