<svg xmlns="http://www.w3.org/2000/svg" xmlns:xlink="http://www.w3.org/1999/xlink" width="108" height="108" viewBox="0 0 108 108">
  <defs>
    <filter id="Trazado_982547" x="0" y="0" width="108" height="108" filterUnits="userSpaceOnUse">
      <feOffset dy="3" input="SourceAlpha"/>
      <feGaussianBlur stdDeviation="3" result="blur"/>
      <feFlood flood-opacity="0.161"/>
      <feComposite operator="in" in2="blur"/>
      <feComposite in="SourceGraphic"/>
    </filter>
  </defs>
  <g id="Grupo_1162683" data-name="Grupo 1162683" transform="translate(-1218 -4773.5)">
    <g id="Grupo_1162119" data-name="Grupo 1162119" transform="translate(0 1335.5)">
      <g id="Grupo_1160644" data-name="Grupo 1160644" transform="translate(0 2554)">
        <g id="Grupo_1149838" data-name="Grupo 1149838" transform="translate(0 -3975)">
          <g id="Grupo_1149676" data-name="Grupo 1149676" transform="translate(472 -2821)">
            <g id="Grupo_1148534" data-name="Grupo 1148534" transform="translate(156 4253)">
              <g id="Grupo_1147066" data-name="Grupo 1147066" transform="translate(-26 -556)">
                <g transform="matrix(1, 0, 0, 1, 616, 3983)" filter="url(#Trazado_982547)">
                  <g id="Trazado_982547-2" data-name="Trazado 982547" transform="translate(9 6)" fill="#f6edfd">
                    <path d="M 45 88.5 C 39.12687683105469 88.5 33.43022537231445 87.35007476806641 28.06830024719238 85.08217620849609 C 22.88852500915527 82.89131164550781 18.23629951477051 79.75458526611328 14.2408504486084 75.75914764404297 C 10.24541282653809 71.76370239257812 7.108687400817871 67.11147308349609 4.917825222015381 61.93170166015625 C 2.649924993515015 56.56977462768555 1.5 50.87312316894531 1.5 45 C 1.5 39.12687683105469 2.649924993515015 33.43022537231445 4.917825222015381 28.06830024719238 C 7.108687400817871 22.88852500915527 10.24541282653809 18.23629951477051 14.2408504486084 14.2408504486084 C 18.23629951477051 10.24541282653809 22.88852500915527 7.108687400817871 28.06830024719238 4.917825222015381 C 33.43022537231445 2.649924993515015 39.12687683105469 1.5 45 1.5 C 50.87312316894531 1.5 56.56977462768555 2.649924993515015 61.93170166015625 4.917825222015381 C 67.11147308349609 7.108687400817871 71.76370239257812 10.24541282653809 75.75914764404297 14.2408504486084 C 79.75458526611328 18.23629951477051 82.89131164550781 22.88852500915527 85.08217620849609 28.06830024719238 C 87.35007476806641 33.43022537231445 88.5 39.12687683105469 88.5 45 C 88.5 50.87312316894531 87.35007476806641 56.56977462768555 85.08217620849609 61.93170166015625 C 82.89131164550781 67.11147308349609 79.75458526611328 71.76370239257812 75.75914764404297 75.75914764404297 C 71.76370239257812 79.75458526611328 67.11147308349609 82.89131164550781 61.93170166015625 85.08217620849609 C 56.56977462768555 87.35007476806641 50.87312316894531 88.5 45 88.5 Z" stroke="none"/>
                    <path d="M 45 3 C 39.32871246337891 3 33.82865524291992 4.110054016113281 28.65262985229492 6.299339294433594 C 23.65165710449219 8.414573669433594 19.15968322753906 11.44334411621094 15.301513671875 15.301513671875 C 11.44334411621094 19.15968322753906 8.414573669433594 23.65165710449219 6.299339294433594 28.65262985229492 C 4.110054016113281 33.82865524291992 3 39.32871246337891 3 45 C 3 50.67128753662109 4.110054016113281 56.17134475708008 6.299339294433594 61.34737396240234 C 8.414573669433594 66.34834289550781 11.44334411621094 70.84031677246094 15.301513671875 74.698486328125 C 19.15968322753906 78.55665588378906 23.65165710449219 81.58542633056641 28.65262985229492 83.70066070556641 C 33.82865524291992 85.88994598388672 39.32871246337891 87 45 87 C 50.67128753662109 87 56.17134475708008 85.88994598388672 61.34737396240234 83.70066070556641 C 66.34834289550781 81.58542633056641 70.84031677246094 78.55665588378906 74.698486328125 74.698486328125 C 78.55665588378906 70.84031677246094 81.58542633056641 66.34834289550781 83.70066070556641 61.34737396240234 C 85.88994598388672 56.17134475708008 87 50.67128753662109 87 45 C 87 39.32871246337891 85.88994598388672 33.82865524291992 83.70066070556641 28.65262985229492 C 81.58542633056641 23.65165710449219 78.55665588378906 19.15968322753906 74.698486328125 15.301513671875 C 70.84031677246094 11.44334411621094 66.34834289550781 8.414573669433594 61.34737396240234 6.299339294433594 C 56.17134475708008 4.110054016113281 50.67128753662109 3 45 3 M 45 0 C 69.85281372070312 0 90 20.14718627929688 90 45 C 90 69.85281372070312 69.85281372070312 90 45 90 C 20.14718627929688 90 0 69.85281372070312 0 45 C 0 20.14718627929688 20.14718627929688 0 45 0 Z" stroke="none" fill="#ac59f1"/>
                  </g>
                </g>
              </g>
            </g>
          </g>
        </g>
      </g>
    </g>
    <g id="Page-1" transform="translate(1241.996 4794.601)">
      <g id="_038---Voice-Controlled-Music-Streaming" data-name="038---Voice-Controlled-Music-Streaming" transform="translate(0 -1)">
        <path id="Path" d="M24,42A17,17,0,0,0,41,59a16.8,16.8,0,0,0,7.23-1.62c4.01,2.41,10.37,2.42,10.46,2.42a24.938,24.938,0,0,1-4.87-6.64A17,17,0,1,0,24,42Z" fill="#02a9f4" fill-rule="evenodd"/>
        <path id="Path-2" data-name="Path" d="M55,42a16.881,16.881,0,0,1-4.18,11.16,24.574,24.574,0,0,0,4.651,6.4,28.9,28.9,0,0,0,3.219.235,24.938,24.938,0,0,1-4.87-6.64A17,17,0,0,0,41,25c-.506,0-1.005.032-1.5.076A16.992,16.992,0,0,1,55,42Z" fill="#0377bc" fill-rule="evenodd"/>
        <path id="Path-3" data-name="Path" d="M44,37V49c0,2.21-2.69,4-6,4s-6-1.79-6-4,2.69-4,6-4a8.63,8.63,0,0,1,2,.23V30.341a.5.5,0,0,1,.836-.368A7.605,7.605,0,0,0,44.46,31.75a13,13,0,0,1,3.567.75A3.92,3.92,0,0,1,50,36v7c0-1.6-.5-3.915-1.773-5.087a4.432,4.432,0,0,0-3.039-.971Z" fill="#e91e63" fill-rule="evenodd"/>
        <path id="Path-4" data-name="Path" d="M36,19A17,17,0,0,1,19,36a16.8,16.8,0,0,1-7.23-1.62C7.76,36.79,1.4,36.8,1.31,36.8a24.938,24.938,0,0,0,4.87-6.64A17,17,0,1,1,36,19Z" fill="#ffdc00" fill-rule="evenodd"/>
        <path id="Path-5" data-name="Path" d="M19,2c-.506,0-1,.032-1.5.076a16.991,16.991,0,0,1,.075,33.844c.472.04.943.08,1.425.08A17,17,0,1,0,19,2Z" fill="#fec108" fill-rule="evenodd"/>
        <g id="Grupo_1162682" data-name="Grupo 1162682">
          <path id="Shape" d="M.389,37.191a1,1,0,0,0,.921.609c.263,0,6.3-.027,10.509-2.3A17.727,17.727,0,0,0,19,37,18,18,0,1,0,5,30.305a25.667,25.667,0,0,1-4.4,5.8,1,1,0,0,0-.211,1.086Zm6.7-6.614A1,1,0,0,0,6.934,29.5,16,16,0,1,1,19,35a15.748,15.748,0,0,1-6.8-1.523,1,1,0,0,0-.944.046A19.406,19.406,0,0,1,3.7,35.652a22.633,22.633,0,0,0,3.389-5.075Z"/>
          <path id="Path-6" data-name="Path" d="M41,24a18.218,18.218,0,0,0-2.021.116A1,1,0,0,0,39.2,26.1,16,16,0,0,1,53.066,52.5a1,1,0,0,0-.155,1.075A22.633,22.633,0,0,0,56.3,58.652a19.406,19.406,0,0,1-7.551-2.129,1,1,0,0,0-.944-.046A15.748,15.748,0,0,1,41,58,16.019,16.019,0,0,1,25,42a15.554,15.554,0,0,1,.2-2.49,1,1,0,1,0-1.974-.32A17.575,17.575,0,0,0,23,42,18.021,18.021,0,0,0,41,60a17.727,17.727,0,0,0,7.181-1.5c4.211,2.271,10.246,2.3,10.509,2.3a1,1,0,0,0,.72-1.7,25.667,25.667,0,0,1-4.4-5.8A18,18,0,0,0,41,24Z" fill-rule="evenodd"/>
          <path id="Shape-2" data-name="Shape" d="M31,49c0,2.8,3.075,5,7,5s7-2.2,7-5V37.95l.172-.009a3.425,3.425,0,0,1,2.379.708c1,.914,1.449,2.9,1.449,4.351a1,1,0,0,0,2,0V36a4.929,4.929,0,0,0-2.526-4.394,8.365,8.365,0,0,0-2.83-.7c-.338-.041-.675-.081-1-.142a6.628,6.628,0,0,1-3.14-1.541,1.508,1.508,0,0,0-1.617-.25A1.479,1.479,0,0,0,39,30.341V44.05c-.33-.033-.664-.05-1-.05-3.925,0-7,2.2-7,5Zm7-3a7.633,7.633,0,0,1,1.769.2A1,1,0,0,0,41,45.23V31.365a8.558,8.558,0,0,0,3.28,1.369c.367.067.743.114,1.12.16a6.76,6.76,0,0,1,2.181.5A2.936,2.936,0,0,1,49,36v1.268c-.032-.031-.064-.062-.1-.092a5.5,5.5,0,0,0-3.762-1.234L43.951,36A1,1,0,0,0,43,37V49c0,1.626-2.29,3-5,3s-5-1.374-5-3,2.29-3,5-3Z"/>
          <path id="Path-7" data-name="Path" d="M9,15a1,1,0,0,0-1,1v4a1,1,0,0,0,2,0V16A1,1,0,0,0,9,15Z" fill-rule="evenodd"/>
          <path id="Path-8" data-name="Path" d="M29,21a1,1,0,0,0,1-1V16a1,1,0,0,0-2,0v4A1,1,0,0,0,29,21Z" fill-rule="evenodd"/>
          <path id="Path-9" data-name="Path" d="M13,24a1,1,0,0,0,1-1V13a1,1,0,0,0-2,0V23A1,1,0,0,0,13,24Z" fill-rule="evenodd"/>
          <path id="Path-10" data-name="Path" d="M25,24a1,1,0,0,0,1-1V13a1,1,0,0,0-2,0V23A1,1,0,0,0,25,24Z" fill-rule="evenodd"/>
          <path id="Path-11" data-name="Path" d="M21,21a1,1,0,0,0,1-1V16a1,1,0,0,0-2,0v4A1,1,0,0,0,21,21Z" fill-rule="evenodd"/>
          <path id="Path-12" data-name="Path" d="M17,26a1,1,0,0,0,1-1V11a1,1,0,0,0-2,0V25A1,1,0,0,0,17,26Z" fill-rule="evenodd"/>
        </g>
      </g>
    </g>
  </g>
</svg>
