<svg xmlns="http://www.w3.org/2000/svg" xmlns:xlink="http://www.w3.org/1999/xlink" width="108" height="108" viewBox="0 0 108 108">
  <defs>
    <filter id="Trazado_982547" x="0" y="0" width="108" height="108" filterUnits="userSpaceOnUse">
      <feOffset dy="3" input="SourceAlpha"/>
      <feGaussianBlur stdDeviation="3" result="blur"/>
      <feFlood flood-opacity="0.161"/>
      <feComposite operator="in" in2="blur"/>
      <feComposite in="SourceGraphic"/>
    </filter>
  </defs>
  <g id="Grupo_1162677" data-name="Grupo 1162677" transform="translate(-274 -4774)">
    <g id="Grupo_1162116" data-name="Grupo 1162116" transform="translate(0 1336)">
      <g id="Grupo_1160641" data-name="Grupo 1160641" transform="translate(0 2554)">
        <g id="Grupo_1149835" data-name="Grupo 1149835" transform="translate(0 -3975)">
          <g id="Grupo_1149673" data-name="Grupo 1149673" transform="translate(-52 -2821)">
            <g id="Grupo_1148532" data-name="Grupo 1148532" transform="translate(51 4253)">
              <g id="Grupo_1147065" data-name="Grupo 1147065" transform="translate(-341 -556)">
                <g transform="matrix(1, 0, 0, 1, 616, 3983)" filter="url(#Trazado_982547)">
                  <g id="Trazado_982547-2" data-name="Trazado 982547" transform="translate(9 6)" fill="#f6edfd">
                    <path d="M 45 88.5 C 39.12687683105469 88.5 33.43022537231445 87.35007476806641 28.06830024719238 85.08217620849609 C 22.88852500915527 82.89131164550781 18.23629951477051 79.75458526611328 14.2408504486084 75.75914764404297 C 10.24541282653809 71.76370239257812 7.108687400817871 67.11147308349609 4.917825222015381 61.93170166015625 C 2.649924993515015 56.56977462768555 1.5 50.87312316894531 1.5 45 C 1.5 39.12687683105469 2.649924993515015 33.43022537231445 4.917825222015381 28.06830024719238 C 7.108687400817871 22.88852500915527 10.24541282653809 18.23629951477051 14.2408504486084 14.2408504486084 C 18.23629951477051 10.24541282653809 22.88852500915527 7.108687400817871 28.06830024719238 4.917825222015381 C 33.43022537231445 2.649924993515015 39.12687683105469 1.5 45 1.5 C 50.87312316894531 1.5 56.56977462768555 2.649924993515015 61.93170166015625 4.917825222015381 C 67.11147308349609 7.108687400817871 71.76370239257812 10.24541282653809 75.75914764404297 14.2408504486084 C 79.75458526611328 18.23629951477051 82.89131164550781 22.88852500915527 85.08217620849609 28.06830024719238 C 87.35007476806641 33.43022537231445 88.5 39.12687683105469 88.5 45 C 88.5 50.87312316894531 87.35007476806641 56.56977462768555 85.08217620849609 61.93170166015625 C 82.89131164550781 67.11147308349609 79.75458526611328 71.76370239257812 75.75914764404297 75.75914764404297 C 71.76370239257812 79.75458526611328 67.11147308349609 82.89131164550781 61.93170166015625 85.08217620849609 C 56.56977462768555 87.35007476806641 50.87312316894531 88.5 45 88.5 Z" stroke="none"/>
                    <path d="M 45 3 C 39.32871246337891 3 33.82865524291992 4.110054016113281 28.65262985229492 6.299339294433594 C 23.65165710449219 8.414573669433594 19.15968322753906 11.44334411621094 15.301513671875 15.301513671875 C 11.44334411621094 19.15968322753906 8.414573669433594 23.65165710449219 6.299339294433594 28.65262985229492 C 4.110054016113281 33.82865524291992 3 39.32871246337891 3 45 C 3 50.67128753662109 4.110054016113281 56.17134475708008 6.299339294433594 61.34737396240234 C 8.414573669433594 66.34834289550781 11.44334411621094 70.84031677246094 15.301513671875 74.698486328125 C 19.15968322753906 78.55665588378906 23.65165710449219 81.58542633056641 28.65262985229492 83.70066070556641 C 33.82865524291992 85.88994598388672 39.32871246337891 87 45 87 C 50.67128753662109 87 56.17134475708008 85.88994598388672 61.34737396240234 83.70066070556641 C 66.34834289550781 81.58542633056641 70.84031677246094 78.55665588378906 74.698486328125 74.698486328125 C 78.55665588378906 70.84031677246094 81.58542633056641 66.34834289550781 83.70066070556641 61.34737396240234 C 85.88994598388672 56.17134475708008 87 50.67128753662109 87 45 C 87 39.32871246337891 85.88994598388672 33.82865524291992 83.70066070556641 28.65262985229492 C 81.58542633056641 23.65165710449219 78.55665588378906 19.15968322753906 74.698486328125 15.301513671875 C 70.84031677246094 11.44334411621094 66.34834289550781 8.414573669433594 61.34737396240234 6.299339294433594 C 56.17134475708008 4.110054016113281 50.67128753662109 3 45 3 M 45 0 C 69.85281372070312 0 90 20.14718627929688 90 45 C 90 69.85281372070312 69.85281372070312 90 45 90 C 20.14718627929688 90 0 69.85281372070312 0 45 C 0 20.14718627929688 20.14718627929688 0 45 0 Z" stroke="none" fill="#ac59f1"/>
                  </g>
                </g>
              </g>
            </g>
          </g>
        </g>
      </g>
    </g>
    <g id="paleta-de-color" transform="translate(256.477 4792)">
      <g id="Grupo_1162669" data-name="Grupo 1162669" transform="translate(58.917 18.431)">
        <g id="XMLID_233_">
          <g id="Grupo_1162668" data-name="Grupo 1162668">
            <path id="Trazado_996794" data-name="Trazado 996794" d="M135.1,295.116l-5.909-.382-12.076,10.352,10.1,13.279,12.637-11.373,1.673-4.119Z" transform="translate(-117.116 -276.012)" fill="#01d0fb"/>
            <path id="Trazado_996795" data-name="Trazado 996795" d="M224.6,247.832l-4.628-1.088-7.058,6.049,10.66,12.258,7.146-6.431.6-3.357Z" transform="translate(-200.84 -234.072)" fill="#62dbfb"/>
            <path id="Trazado_996796" data-name="Trazado 996796" d="M281.966,197.374l-5.767-.23-7.294,6.252,10.749,11.876,7.174-6.457,1.987-4Z" transform="translate(-249.772 -190.724)" fill="#99e6fc"/>
            <path id="Trazado_996797" data-name="Trazado 996797" d="M341.463,154.477a4.576,4.576,0,0,1-.325,6.462l-3.743,3.367-10.629-11.671,7.49-6.42,3.235,3.871Z" transform="translate(-300.339 -146.214)" fill="#c8effe"/>
          </g>
        </g>
      </g>
      <path id="Trazado_996798" data-name="Trazado 996798" d="M97.568,246.825l-6.076,2.087L79.656,267.981l16.483,6.746,10.822-15.647.6-5.833Z" transform="translate(-25.461 -215.711)" fill="#05e39c"/>
      <g id="Grupo_1162671" data-name="Grupo 1162671" transform="translate(66.032 7.193)">
        <g id="XMLID_199_">
          <g id="Grupo_1162670" data-name="Grupo 1162670">
            <path id="Trazado_996799" data-name="Trazado 996799" d="M186.146,182.19l-6.947,1.143-5.643,9.092,15.468,10.168,5.757-8.325.717-5.672Z" transform="translate(-173.556 -166.417)" fill="#00f2a6"/>
            <path id="Trazado_996800" data-name="Trazado 996800" d="M239.527,126.849l-10.771-6.917-5.2.568-5.228,8.423,15.582,10.935,5.937-8.586Z" transform="translate(-212.683 -112.007)" fill="#6cf5c2"/>
            <path id="Trazado_996801" data-name="Trazado 996801" d="M278,65.516a4.575,4.575,0,0,1,1.16,6.365l-3.077,4.448L259.8,65.556l5.272-8.492,7.46,4.664Z" transform="translate(-248.925 -57.064)" fill="#9cf8d2"/>
          </g>
        </g>
      </g>
      <g id="XMLID_134_" transform="translate(51.469 0.946)">
        <path id="Trazado_996802" data-name="Trazado 996802" d="M67.314,221.331l-8.451,20.935a10.551,10.551,0,0,0,19.567,7.9l8.357-20.7Z" transform="translate(-58.084 -194.377)" fill="#fed402"/>
        <g id="XMLID_186_" transform="translate(8.756 1.133)">
          <g id="Grupo_1162672" data-name="Grupo 1162672">
            <path id="Trazado_996803" data-name="Trazado 996803" d="M150.363,158.81l-14.38-6.728-4.284,1.3-4.214,10.156,19.127,7.443,3.975-9.862Z" transform="translate(-127.485 -134.99)" fill="#fee45a"/>
            <path id="Trazado_996804" data-name="Trazado 996804" d="M183.741,80.481l-15.307-4.907-3.179,1.443-3.946,9.512,18.845,7.72,4.009-9.931Z" transform="translate(-157.045 -68.126)" fill="#fee97d"/>
            <path id="Trazado_996805" data-name="Trazado 996805" d="M211.156,21.244a4.576,4.576,0,0,1,2.555,5.945l-2.191,5.495-18.908-7.3,3.425-8.255a4.566,4.566,0,0,1,4.017-.309Z" transform="translate(-184.402 -16.492)" fill="#fef0ae"/>
          </g>
        </g>
        <g id="Grupo_1162673" data-name="Grupo 1162673" transform="translate(0)">
          <path id="Trazado_996806" data-name="Trazado 996806" d="M58.026,49.913V12.079A4.574,4.574,0,0,1,62.6,7.5H74.552a4.574,4.574,0,0,1,4.576,4.575V59.444a10.551,10.551,0,0,1-21.1,0Z" transform="translate(-58.026 -7.504)" fill="#f9f7f8"/>
        </g>
        <g id="Grupo_1162675" data-name="Grupo 1162675" transform="translate(0 0)">
          <g id="XMLID_173_">
            <g id="Grupo_1162674" data-name="Grupo 1162674">
              <path id="Trazado_996807" data-name="Trazado 996807" d="M79.128,12.079v5.854h-21.1V12.079A4.574,4.574,0,0,1,62.6,7.5H74.552a4.574,4.574,0,0,1,4.576,4.575Z" transform="translate(-58.026 -7.504)" fill="#f9b1b1"/>
              <path id="Trazado_996808" data-name="Trazado 996808" d="M58.026,90.234h21.1v10.66h-21.1Z" transform="translate(-58.026 -79.805)" fill="#f79595"/>
              <path id="Trazado_996809" data-name="Trazado 996809" d="M58.026,174.8h21.1v10.659h-21.1Z" transform="translate(-58.026 -153.715)" fill="#f47c7c"/>
              <path id="Trazado_996810" data-name="Trazado 996810" d="M58.026,259.364h21.1v10.66h-21.1Z" transform="translate(-58.026 -227.616)" fill="#ee6161"/>
            </g>
          </g>
        </g>
      </g>
      <circle id="Elipse_12413" data-name="Elipse 12413" cx="3.588" cy="3.588" r="3.588" transform="translate(58.217 49.333)" fill="#e5e1e5"/>
      <g id="Grupo_1162676" data-name="Grupo 1162676" transform="translate(50.523 0)">
        <path id="Trazado_996811" data-name="Trazado 996811" d="M100.742,26.059l-3.479-3.848a5.517,5.517,0,0,0-1.614-7.344L90.629,11.4a5.529,5.529,0,0,0-3.474-5.339l-11.1-4.427a5.477,5.477,0,0,0-4.128.018A5.5,5.5,0,0,0,68,0H56.043a5.526,5.526,0,0,0-5.52,5.52V52.886a11.49,11.49,0,0,0,19.041,8.666.959.959,0,0,0,.084-.067l21.523-19.37a.945.945,0,1,0-1.265-1.406l-.887.8-2.881-3.186,4.523-6.54,4.112,4.548L92.9,38.014a.945.945,0,0,0,1.265,1.406l6.181-5.563a5.52,5.52,0,0,0,.392-7.8Zm-4.663-7.3a3.606,3.606,0,0,1-.586,2.715l-2.567,3.712-5.844-4.042,3.094-7.76,4.4,3.041a3.6,3.6,0,0,1,1.506,2.334ZM87.094,33.618l-3.908-2.7,3.178-7.972,5.487,3.795ZM81.26,42.053l-1.972-1.364,3.178-7.972,3.551,2.456ZM82.715,26.99,79.976,25.9a.945.945,0,0,0-.7,1.756l2.74,1.092-3.248,8.145L73.515,34.8v-9.44l2,.8a.945.945,0,0,0,.7-1.756l-2.7-1.077v-9.44l12.448,4.963Zm-11.091-5.9H60.915a.945.945,0,0,0,0,1.891H71.625v8.769H52.414V22.98h4.472a.945.945,0,0,0,0-1.891H52.414V12.32H71.624v8.769ZM52.414,33.64H71.624v8.769H52.414Zm21.1,3.193,4.552,1.815L73.515,50.064Zm5.891,11.225,1.048,1.159-4.9,4.41Zm-4.086,2.583,3.249-8.15,1.615,1.117Zm.032-47.255,11.1,4.427a3.633,3.633,0,0,1,2.255,3.851c0,.007,0,.015,0,.022a3.647,3.647,0,0,1-.224.841l-1.818,4.56L73.515,11.845V5.52a5.487,5.487,0,0,0-.485-2.257,3.6,3.6,0,0,1,2.322.123ZM56.043,1.891H68A3.634,3.634,0,0,1,71.625,5.52v4.909H52.414V5.52a3.633,3.633,0,0,1,3.629-3.629Zm-3.629,51V44.3H71.624v8.587a9.605,9.605,0,1,1-19.211,0Zm35.2-10.113L81.86,47.952,80.511,46.46l4.523-6.54Zm12.658-12.83a3.6,3.6,0,0,1-1.189,2.508l-2.9,2.613-4.413-4.88,4.4-6.364,3.171,3.507a3.6,3.6,0,0,1,.933,2.617Z" transform="translate(-50.523 0)"/>
        <path id="Trazado_996812" data-name="Trazado 996812" d="M108.591,383.857a4.534,4.534,0,1,0,4.534,4.534A4.539,4.539,0,0,0,108.591,383.857Zm0,7.177a2.643,2.643,0,1,1,2.643-2.643A2.646,2.646,0,0,1,108.591,391.034Z" transform="translate(-97.309 -335.47)"/>
      </g>
    </g>
  </g>
</svg>
