<svg xmlns="http://www.w3.org/2000/svg" xmlns:xlink="http://www.w3.org/1999/xlink" width="108" height="108" viewBox="0 0 108 108">
  <defs>
    <filter id="Trazado_982547" x="0" y="0" width="108" height="108" filterUnits="userSpaceOnUse">
      <feOffset dy="3" input="SourceAlpha"/>
      <feGaussianBlur stdDeviation="3" result="blur"/>
      <feFlood flood-opacity="0.161"/>
      <feComposite operator="in" in2="blur"/>
      <feComposite in="SourceGraphic"/>
    </filter>
  </defs>
  <g id="Grupo_1162649" data-name="Grupo 1162649" transform="translate(-588 -2865)">
    <g id="Grupo_1162007" data-name="Grupo 1162007" transform="translate(0 -573)">
      <g id="Grupo_1160642" data-name="Grupo 1160642" transform="translate(0 2554)">
        <g id="Grupo_1149836" data-name="Grupo 1149836" transform="translate(0 -3975)">
          <g id="Grupo_1149674" data-name="Grupo 1149674" transform="translate(-158 -2821)">
            <g id="Grupo_1148534" data-name="Grupo 1148534" transform="translate(156 4253)">
              <g id="Grupo_1147066" data-name="Grupo 1147066" transform="translate(-26 -556)">
                <g transform="matrix(1, 0, 0, 1, 616, 3983)" filter="url(#Trazado_982547)">
                  <g id="Trazado_982547-2" data-name="Trazado 982547" transform="translate(9 6)" fill="#f6edfd">
                    <path d="M 45 88.5 C 39.12687683105469 88.5 33.43022537231445 87.35007476806641 28.06830024719238 85.08217620849609 C 22.88852500915527 82.89131164550781 18.23629951477051 79.75458526611328 14.2408504486084 75.75914764404297 C 10.24541282653809 71.76370239257812 7.108687400817871 67.11147308349609 4.917825222015381 61.93170166015625 C 2.649924993515015 56.56977462768555 1.5 50.87312316894531 1.5 45 C 1.5 39.12687683105469 2.649924993515015 33.43022537231445 4.917825222015381 28.06830024719238 C 7.108687400817871 22.88852500915527 10.24541282653809 18.23629951477051 14.2408504486084 14.2408504486084 C 18.23629951477051 10.24541282653809 22.88852500915527 7.108687400817871 28.06830024719238 4.917825222015381 C 33.43022537231445 2.649924993515015 39.12687683105469 1.5 45 1.5 C 50.87312316894531 1.5 56.56977462768555 2.649924993515015 61.93170166015625 4.917825222015381 C 67.11147308349609 7.108687400817871 71.76370239257812 10.24541282653809 75.75914764404297 14.2408504486084 C 79.75458526611328 18.23629951477051 82.89131164550781 22.88852500915527 85.08217620849609 28.06830024719238 C 87.35007476806641 33.43022537231445 88.5 39.12687683105469 88.5 45 C 88.5 50.87312316894531 87.35007476806641 56.56977462768555 85.08217620849609 61.93170166015625 C 82.89131164550781 67.11147308349609 79.75458526611328 71.76370239257812 75.75914764404297 75.75914764404297 C 71.76370239257812 79.75458526611328 67.11147308349609 82.89131164550781 61.93170166015625 85.08217620849609 C 56.56977462768555 87.35007476806641 50.87312316894531 88.5 45 88.5 Z" stroke="none"/>
                    <path d="M 45 3 C 39.32871246337891 3 33.82865524291992 4.110054016113281 28.65262985229492 6.299339294433594 C 23.65165710449219 8.414573669433594 19.15968322753906 11.44334411621094 15.301513671875 15.301513671875 C 11.44334411621094 19.15968322753906 8.414573669433594 23.65165710449219 6.299339294433594 28.65262985229492 C 4.110054016113281 33.82865524291992 3 39.32871246337891 3 45 C 3 50.67128753662109 4.110054016113281 56.17134475708008 6.299339294433594 61.34737396240234 C 8.414573669433594 66.34834289550781 11.44334411621094 70.84031677246094 15.301513671875 74.698486328125 C 19.15968322753906 78.55665588378906 23.65165710449219 81.58542633056641 28.65262985229492 83.70066070556641 C 33.82865524291992 85.88994598388672 39.32871246337891 87 45 87 C 50.67128753662109 87 56.17134475708008 85.88994598388672 61.34737396240234 83.70066070556641 C 66.34834289550781 81.58542633056641 70.84031677246094 78.55665588378906 74.698486328125 74.698486328125 C 78.55665588378906 70.84031677246094 81.58542633056641 66.34834289550781 83.70066070556641 61.34737396240234 C 85.88994598388672 56.17134475708008 87 50.67128753662109 87 45 C 87 39.32871246337891 85.88994598388672 33.82865524291992 83.70066070556641 28.65262985229492 C 81.58542633056641 23.65165710449219 78.55665588378906 19.15968322753906 74.698486328125 15.301513671875 C 70.84031677246094 11.44334411621094 66.34834289550781 8.414573669433594 61.34737396240234 6.299339294433594 C 56.17134475708008 4.110054016113281 50.67128753662109 3 45 3 M 45 0 C 69.85281372070312 0 90 20.14718627929688 90 45 C 90 69.85281372070312 69.85281372070312 90 45 90 C 20.14718627929688 90 0 69.85281372070312 0 45 C 0 20.14718627929688 20.14718627929688 0 45 0 Z" stroke="none" fill="#ac59f1"/>
                  </g>
                </g>
              </g>
            </g>
          </g>
        </g>
      </g>
    </g>
    <g id="marketing_2_" data-name="marketing (2)" transform="translate(613 2887)">
      <g id="Grupo_1162647" data-name="Grupo 1162647" transform="translate(1.896 1.896)">
        <g id="Grupo_1162629" data-name="Grupo 1162629" transform="translate(0 1.793)">
          <path id="Trazado_996704" data-name="Trazado 996704" d="M37.855,48.819V52.4A3.585,3.585,0,0,1,34.27,55.99H5.586A3.585,3.585,0,0,1,2,52.4V7.586A3.585,3.585,0,0,1,5.586,4h7.171V7.586H6.482a.9.9,0,0,0-.9.9V51.508a.9.9,0,0,0,.9.9H33.373a.9.9,0,0,0,.9-.9V48.819Z" transform="translate(-2 -4)" fill="#ffeaa7"/>
        </g>
        <g id="Grupo_1162630" data-name="Grupo 1162630" transform="translate(32.27 17.175)">
          <path id="Trazado_996705" data-name="Trazado 996705" d="M41.586,21.169V43.426H38V21.913a8.857,8.857,0,0,0,3.586-.753Z" transform="translate(-38 -21.16)" fill="#ffeaa7"/>
        </g>
        <g id="Grupo_1162631" data-name="Grupo 1162631" transform="translate(3.586 5.378)">
          <path id="Trazado_996706" data-name="Trazado 996706" d="M29.252,18.712a8.937,8.937,0,0,1-3.532-7.126,9.166,9.166,0,0,1,.179-1.8,1.2,1.2,0,0,1-.179.009H14.964A1.8,1.8,0,0,1,13.171,8H6.9a.9.9,0,0,0-.9.9V51.922a.9.9,0,0,0,.9.9H33.788a.9.9,0,0,0,.9-.9V20.549A8.882,8.882,0,0,1,29.252,18.712Z" transform="translate(-6 -8)" fill="#f0d0b4"/>
        </g>
        <g id="Grupo_1162632" data-name="Grupo 1162632" transform="translate(19.72 39.441)">
          <path id="Trazado_996707" data-name="Trazado 996707" d="M31.171,49.586v3.586L24.843,50.8a1.29,1.29,0,0,1,0-2.42L31.171,46Z" transform="translate(-24 -46)" fill="#aab2bd"/>
        </g>
        <g id="Grupo_1162633" data-name="Grupo 1162633" transform="translate(46.612 39.441)">
          <path id="Trazado_996708" data-name="Trazado 996708" d="M60.122,47.049a3.588,3.588,0,0,1-2.537,6.122H54V46h3.586A3.608,3.608,0,0,1,60.122,47.049Z" transform="translate(-54 -46)" fill="#aab2bd"/>
        </g>
        <g id="Grupo_1162634" data-name="Grupo 1162634" transform="translate(26.891 43.026)">
          <path id="Trazado_996709" data-name="Trazado 996709" d="M51.72,50v3.586H32V50Z" transform="translate(-32 -50)" fill="#4fc1e9"/>
        </g>
        <g id="Grupo_1162635" data-name="Grupo 1162635" transform="translate(26.891 39.441)">
          <path id="Trazado_996710" data-name="Trazado 996710" d="M51.72,46v3.586H32V46H51.72Z" transform="translate(-32 -46)" fill="#b4dd7f"/>
        </g>
        <g id="Grupo_1162636" data-name="Grupo 1162636" transform="translate(7.171 17.031)">
          <path id="Trazado_996711" data-name="Trazado 996711" d="M27.282,23.2a10.776,10.776,0,1,0,4.231,8.56A10.717,10.717,0,0,0,27.282,23.2Z" transform="translate(-10 -21)" fill="#e6e9ed"/>
        </g>
        <g id="Grupo_1162637" data-name="Grupo 1162637" transform="translate(19.72 24.202)">
          <path id="Trazado_996712" data-name="Trazado 996712" d="M24,29h3.586v8.964H24Z" transform="translate(-24 -29)" fill="#fcd770"/>
        </g>
        <g id="Grupo_1162638" data-name="Grupo 1162638" transform="translate(16.135 22.409)">
          <path id="Trazado_996713" data-name="Trazado 996713" d="M23.586,28.793v8.964H20V27h3.586Z" transform="translate(-20 -27)" fill="#fcd770"/>
        </g>
        <g id="Grupo_1162639" data-name="Grupo 1162639" transform="translate(12.549 27.788)">
          <path id="Trazado_996714" data-name="Trazado 996714" d="M16,33h3.586v5.378H16Z" transform="translate(-16 -33)" fill="#fcd770"/>
        </g>
        <g id="Grupo_1162640" data-name="Grupo 1162640" transform="translate(10.757)">
          <path id="Trazado_996715" data-name="Trazado 996715" d="M28.342,3.793V5.586a8.9,8.9,0,0,0-1.613,3.577,1.2,1.2,0,0,1-.179.009H15.793A1.8,1.8,0,0,1,14,7.378V3.793A1.8,1.8,0,0,1,15.793,2H26.549A1.8,1.8,0,0,1,28.342,3.793Z" transform="translate(-14 -2)" fill="#b4dd7f"/>
        </g>
        <g id="Grupo_1162641" data-name="Grupo 1162641" transform="translate(45.715 8.964)">
          <path id="Trazado_996716" data-name="Trazado 996716" d="M58.378,12l1.793,3.586H54.793L53,12h5.378Z" transform="translate(-53 -12)" fill="#cf9e76"/>
        </g>
        <g id="Grupo_1162642" data-name="Grupo 1162642" transform="translate(45.715 5.378)">
          <path id="Trazado_996717" data-name="Trazado 996717" d="M60.171,8l-1.793,3.586H53L54.793,8Z" transform="translate(-53 -8)" fill="#cf9e76"/>
        </g>
        <g id="Grupo_1162643" data-name="Grupo 1162643" transform="translate(23.306 0)">
          <path id="Trazado_996718" data-name="Trazado 996718" d="M45.928,10.964a8.918,8.918,0,0,1-5.378,8.211A8.963,8.963,0,0,1,28,10.964a9.166,9.166,0,0,1,.179-1.8,8.966,8.966,0,0,1,17.748,1.8Z" transform="translate(-28 -2)" fill="#e6e9ed"/>
        </g>
        <g id="Grupo_1162644" data-name="Grupo 1162644" transform="translate(28.662 5.925)">
          <ellipse id="Elipse_12404" data-name="Elipse 12404" cx="3" cy="3.5" rx="3" ry="3.5" transform="translate(0.442 0.179)" fill="#ff826e"/>
        </g>
        <g id="Grupo_1162645" data-name="Grupo 1162645" transform="translate(39.441 19.72)">
          <path id="Trazado_996719" data-name="Trazado 996719" d="M53.171,24a7.162,7.162,0,1,1-4.482,1.569A7.169,7.169,0,0,1,53.171,24Z" transform="translate(-46 -24)" fill="#e6e9ed"/>
        </g>
        <g id="Grupo_1162646" data-name="Grupo 1162646" transform="translate(43.026 23.306)">
          <path id="Trazado_996720" data-name="Trazado 996720" d="M56.373,30.286a1.458,1.458,0,0,1,0,2.6L52.1,35.019a1.45,1.45,0,0,1-2.1-1.3V29.452a1.45,1.45,0,0,1,2.1-1.3Z" transform="translate(-50 -28)" fill="#ff826e"/>
        </g>
      </g>
      <g id="Grupo_1162648" data-name="Grupo 1162648" transform="translate(1 1)">
        <path id="Trazado_996721" data-name="Trazado 996721" d="M52.093,40.441H38.648V19.632a9.83,9.83,0,0,0,.947-.549L42.8,23.09a8.183,8.183,0,1,0,1.4-1.115l-3.214-4.017a9.829,9.829,0,0,0,2.989-6.2h3.076l1.793,3.586h7.383L53.992,10.86l2.241-4.482H48.85L47.058,9.964H43.981A9.848,9.848,0,0,0,27.852,3.3,2.686,2.686,0,0,0,25.2,1H14.446a2.685,2.685,0,0,0-2.524,1.793H5.482A4.487,4.487,0,0,0,1,7.275V52.093a4.487,4.487,0,0,0,4.482,4.482H34.166a4.487,4.487,0,0,0,4.482-4.482V49.4H52.093a4.482,4.482,0,0,0,0-8.964Zm2.689-11.653a6.275,6.275,0,1,1-6.275-6.275A6.283,6.283,0,0,1,54.783,28.788ZM49.958,13.549l-.9-1.793h3.374l.9,1.793Zm0-5.378h3.374l-.9,1.793H49.062Zm-38.037,0a2.685,2.685,0,0,0,2.524,1.793h9.906c-.027.3-.046.593-.046.9a9.826,9.826,0,0,0,3.206,7.255l-1.367,1.794A11.758,11.758,0,1,0,27.567,21l1.369-1.8a9.777,9.777,0,0,0,4.334,1.471V40.441H28.625l-6.483,2.432a2.19,2.19,0,0,0,0,4.1L28.625,49.4H33.27V51.2H6.378V8.171ZM24.306,34.166H22.513V26.995h1.793Zm-3.586,0H18.928V25.2H20.72Zm-3.586,0H15.342V30.58h1.793Zm10.29,1.793a9.848,9.848,0,0,1-15.2,0ZM28.6,34.166H26.1V25.2H22.513V23.409H17.135v5.378H13.549v5.378h-2.5a9.86,9.86,0,1,1,17.544,0ZM22.771,45.3a.4.4,0,0,1,0-.745l5.12-1.92v4.584Zm6.913,2.316V45.819H47.612v1.793Zm17.928-3.586H29.684V42.233H47.612ZM36.855,40.441H35.062V20.675a9.7,9.7,0,0,0,1.793-.337ZM34.166,2.793A8.076,8.076,0,0,1,42.18,9.964H38.557a4.482,4.482,0,1,0,0,1.793H42.18a8.066,8.066,0,1,1-8.015-8.964Zm2.524,8.964a2.689,2.689,0,1,1,0-1.793H33.27v1.793ZM13.549,3.689a.9.9,0,0,1,.9-.9H25.2a.9.9,0,0,1,.9.9V5.208a9.8,9.8,0,0,0-1.409,2.958l-10.244,0a.9.9,0,0,1-.9-.9Zm23.306,48.4a2.692,2.692,0,0,1-2.689,2.689H5.482a2.692,2.692,0,0,1-2.689-2.689V7.275A2.692,2.692,0,0,1,5.482,4.586h6.275V6.378H6.378A1.8,1.8,0,0,0,4.586,8.171V51.2A1.8,1.8,0,0,0,6.378,52.99H33.27A1.8,1.8,0,0,0,35.062,51.2V49.4h1.793Zm15.238-4.482H49.4V42.233h2.689a2.689,2.689,0,1,1,0,5.378Z" transform="translate(-1 -1)"/>
        <path id="Trazado_996722" data-name="Trazado 996722" d="M49,33.617a2.347,2.347,0,0,0,3.4,2.1l4.271-2.135a2.348,2.348,0,0,0,0-4.2L52.4,27.247a2.347,2.347,0,0,0-3.4,2.1Zm1.793-4.27a.554.554,0,0,1,.8-.5l4.27,2.135a.554.554,0,0,1,0,.991l-4.27,2.135a.57.57,0,0,1-.8-.5Z" transform="translate(-5.974 -3.694)"/>
        <path id="Trazado_996723" data-name="Trazado 996723" d="M9,49H19.757v1.793H9Z" transform="translate(-1.829 -5.974)"/>
        <path id="Trazado_996724" data-name="Trazado 996724" d="M9,53H19.757v1.793H9Z" transform="translate(-1.829 -6.388)"/>
        <path id="Trazado_996725" data-name="Trazado 996725" d="M9,13h1.793v1.793H9Z" transform="translate(-1.829 -2.243)"/>
        <path id="Trazado_996726" data-name="Trazado 996726" d="M13,13H23.757v1.793H13Z" transform="translate(-2.243 -2.243)"/>
        <path id="Trazado_996727" data-name="Trazado 996727" d="M9,17h1.793v1.793H9Z" transform="translate(-1.829 -2.658)"/>
        <path id="Trazado_996728" data-name="Trazado 996728" d="M13,17H23.757v1.793H13Z" transform="translate(-2.243 -2.658)"/>
      </g>
    </g>
  </g>
</svg>
