<svg xmlns="http://www.w3.org/2000/svg" xmlns:xlink="http://www.w3.org/1999/xlink" width="108" height="108" viewBox="0 0 108 108">
  <defs>
    <filter id="Trazado_982547" x="0" y="0" width="108" height="108" filterUnits="userSpaceOnUse">
      <feOffset dy="3" input="SourceAlpha"/>
      <feGaussianBlur stdDeviation="3" result="blur"/>
      <feFlood flood-opacity="0.161"/>
      <feComposite operator="in" in2="blur"/>
      <feComposite in="SourceGraphic"/>
    </filter>
  </defs>
  <g id="Grupo_1162628" data-name="Grupo 1162628" transform="translate(-274 -2864.933)">
    <g id="Grupo_1162006" data-name="Grupo 1162006" transform="translate(0 -573.067)">
      <g id="Grupo_1160641" data-name="Grupo 1160641" transform="translate(0 2554)">
        <g id="Grupo_1149835" data-name="Grupo 1149835" transform="translate(0 -3975)">
          <g id="Grupo_1149673" data-name="Grupo 1149673" transform="translate(-52 -2821)">
            <g id="Grupo_1148532" data-name="Grupo 1148532" transform="translate(51 4253)">
              <g id="Grupo_1147065" data-name="Grupo 1147065" transform="translate(-341 -556)">
                <g transform="matrix(1, 0, 0, 1, 616, 3983)" filter="url(#Trazado_982547)">
                  <g id="Trazado_982547-2" data-name="Trazado 982547" transform="translate(9 6)" fill="#f6edfd">
                    <path d="M 45 88.5 C 39.12687683105469 88.5 33.43022537231445 87.35007476806641 28.06830024719238 85.08217620849609 C 22.88852500915527 82.89131164550781 18.23629951477051 79.75458526611328 14.2408504486084 75.75914764404297 C 10.24541282653809 71.76370239257812 7.108687400817871 67.11147308349609 4.917825222015381 61.93170166015625 C 2.649924993515015 56.56977462768555 1.5 50.87312316894531 1.5 45 C 1.5 39.12687683105469 2.649924993515015 33.43022537231445 4.917825222015381 28.06830024719238 C 7.108687400817871 22.88852500915527 10.24541282653809 18.23629951477051 14.2408504486084 14.2408504486084 C 18.23629951477051 10.24541282653809 22.88852500915527 7.108687400817871 28.06830024719238 4.917825222015381 C 33.43022537231445 2.649924993515015 39.12687683105469 1.5 45 1.5 C 50.87312316894531 1.5 56.56977462768555 2.649924993515015 61.93170166015625 4.917825222015381 C 67.11147308349609 7.108687400817871 71.76370239257812 10.24541282653809 75.75914764404297 14.2408504486084 C 79.75458526611328 18.23629951477051 82.89131164550781 22.88852500915527 85.08217620849609 28.06830024719238 C 87.35007476806641 33.43022537231445 88.5 39.12687683105469 88.5 45 C 88.5 50.87312316894531 87.35007476806641 56.56977462768555 85.08217620849609 61.93170166015625 C 82.89131164550781 67.11147308349609 79.75458526611328 71.76370239257812 75.75914764404297 75.75914764404297 C 71.76370239257812 79.75458526611328 67.11147308349609 82.89131164550781 61.93170166015625 85.08217620849609 C 56.56977462768555 87.35007476806641 50.87312316894531 88.5 45 88.5 Z" stroke="none"/>
                    <path d="M 45 3 C 39.32871246337891 3 33.82865524291992 4.110054016113281 28.65262985229492 6.299339294433594 C 23.65165710449219 8.414573669433594 19.15968322753906 11.44334411621094 15.301513671875 15.301513671875 C 11.44334411621094 19.15968322753906 8.414573669433594 23.65165710449219 6.299339294433594 28.65262985229492 C 4.110054016113281 33.82865524291992 3 39.32871246337891 3 45 C 3 50.67128753662109 4.110054016113281 56.17134475708008 6.299339294433594 61.34737396240234 C 8.414573669433594 66.34834289550781 11.44334411621094 70.84031677246094 15.301513671875 74.698486328125 C 19.15968322753906 78.55665588378906 23.65165710449219 81.58542633056641 28.65262985229492 83.70066070556641 C 33.82865524291992 85.88994598388672 39.32871246337891 87 45 87 C 50.67128753662109 87 56.17134475708008 85.88994598388672 61.34737396240234 83.70066070556641 C 66.34834289550781 81.58542633056641 70.84031677246094 78.55665588378906 74.698486328125 74.698486328125 C 78.55665588378906 70.84031677246094 81.58542633056641 66.34834289550781 83.70066070556641 61.34737396240234 C 85.88994598388672 56.17134475708008 87 50.67128753662109 87 45 C 87 39.32871246337891 85.88994598388672 33.82865524291992 83.70066070556641 28.65262985229492 C 81.58542633056641 23.65165710449219 78.55665588378906 19.15968322753906 74.698486328125 15.301513671875 C 70.84031677246094 11.44334411621094 66.34834289550781 8.414573669433594 61.34737396240234 6.299339294433594 C 56.17134475708008 4.110054016113281 50.67128753662109 3 45 3 M 45 0 C 69.85281372070312 0 90 20.14718627929688 90 45 C 90 69.85281372070312 69.85281372070312 90 45 90 C 20.14718627929688 90 0 69.85281372070312 0 45 C 0 20.14718627929688 20.14718627929688 0 45 0 Z" stroke="none" fill="#ac59f1"/>
                  </g>
                </g>
              </g>
            </g>
          </g>
        </g>
      </g>
    </g>
    <g id="atencion_1_" data-name="atencion (1)" transform="translate(296 2883.04)">
      <path id="Trazado_996692" data-name="Trazado 996692" d="M40.852,58h-17.7A2.094,2.094,0,0,1,21,55.964v-.071A1.982,1.982,0,0,1,23.148,54h17.7A1.982,1.982,0,0,1,43,55.893v.071A2.094,2.094,0,0,1,40.852,58Z" fill="#5358a1"/>
      <rect id="Rectángulo_413120" data-name="Rectángulo 413120" width="22" height="4" rx="2" transform="translate(21 58)" fill="#5358a1"/>
      <path id="Trazado_996693" data-name="Trazado 996693" d="M32,4C20.4,4,11,12.375,11,23.333c0,5.149,2.077,12.195,5.482,18.22C18.531,45.181,23,49.84,23,54H41c0-4.16,4.469-8.819,6.518-12.446C50.923,35.528,53,28.482,53,23.333,53,12.375,43.6,4,32,4Z" fill="#fccc38"/>
      <circle id="Elipse_12403" data-name="Elipse 12403" cx="3" cy="3" r="3" transform="translate(29 11)" fill="#f4393d"/>
      <path id="Trazado_996694" data-name="Trazado 996694" d="M30,22h4l1,20H29Z" fill="#f4393d"/>
      <path id="Trazado_996695" data-name="Trazado 996695" d="M32,3C19.664,3,10,11.932,10,23.333c0,5.416,2.15,12.587,5.611,18.713.622,1.1,1.433,2.258,2.292,3.482,1.733,2.471,3.658,5.236,4.02,7.686A2.87,2.87,0,0,0,20,55.964a2.953,2.953,0,0,0,.8,2.007A2.989,2.989,0,0,0,23,63H41a2.99,2.99,0,0,0,2.191-5.035A3.059,3.059,0,0,0,44,55.893a2.828,2.828,0,0,0-1.924-2.679c.363-2.45,2.288-5.214,4.02-7.685.859-1.225,1.671-2.382,2.292-3.482C51.85,35.92,54,28.749,54,23.333,54,11.932,44.336,3,32,3ZM42,55.964A1.1,1.1,0,0,1,40.853,57H23.147A1.109,1.109,0,0,1,22,55.893c0-.613.595-.893,1.147-.893H40.853C41.405,55,42,55.279,42,55.964ZM41,61H23a1,1,0,0,1,0-2H41a1,1,0,0,1,0,2Zm5.647-19.938c-.574,1.017-1.358,2.135-2.188,3.318-1.877,2.677-3.979,5.674-4.388,8.62H23.929c-.409-2.946-2.511-5.943-4.388-8.62-.83-1.184-1.614-2.3-2.188-3.318C14.1,35.307,12,28.348,12,23.333,12,13.053,20.785,5,32,5s20,8.053,20,18.333C52,28.348,49.9,35.307,46.647,41.062Z"/>
      <path id="Trazado_996696" data-name="Trazado 996696" d="M32,19a4,4,0,1,1,4-4A4,4,0,0,1,32,19Zm0-6a2,2,0,1,0,2,2A2,2,0,0,0,32,13Z"/>
      <path id="Trazado_996697" data-name="Trazado 996697" d="M35,43H29a1,1,0,0,1-1-1.05l1-20A1,1,0,0,1,30,21h4a1,1,0,0,1,1,.95l1,20A1,1,0,0,1,35,43Zm-4.949-2h3.9l-.9-18h-2.1Z"/>
      <g id="Grupo_1162627" data-name="Grupo 1162627">
        <path id="Trazado_996698" data-name="Trazado 996698" d="M57,23h4v2H57Z" fill="#fccc38"/>
        <path id="Trazado_996699" data-name="Trazado 996699" d="M3,23H7v2H3Z" fill="#fccc38"/>
        <path id="Trazado_996700" data-name="Trazado 996700" d="M52.586,42.414h2v4h-2Z" transform="matrix(0.707, -0.707, 0.707, 0.707, -15.71, 50.905)" fill="#fccc38"/>
        <path id="Trazado_996701" data-name="Trazado 996701" d="M11.908,2.908h2v4h-2Z" transform="translate(0.31 10.565) rotate(-45)" fill="#fccc38"/>
        <path id="Trazado_996702" data-name="Trazado 996702" d="M49.92,4.414h4v2h-4Z" transform="translate(11.379 38.299) rotate(-45)" fill="#fccc38"/>
        <path id="Trazado_996703" data-name="Trazado 996703" d="M8.586,43.586h4v2h-4Z" transform="translate(-28.427 20.544) rotate(-45)" fill="#fccc38"/>
      </g>
    </g>
  </g>
</svg>
