<svg xmlns="http://www.w3.org/2000/svg" xmlns:xlink="http://www.w3.org/1999/xlink" width="98" height="98" viewBox="0 0 98 98">
  <defs>
    <filter id="Trazado_982548" x="0" y="0" width="98" height="98" filterUnits="userSpaceOnUse">
      <feOffset dy="3" input="SourceAlpha"/>
      <feGaussianBlur stdDeviation="3" result="blur"/>
      <feFlood flood-opacity="0.161"/>
      <feComposite operator="in" in2="blur"/>
      <feComposite in="SourceGraphic"/>
    </filter>
  </defs>
  <g id="Grupo_1162691" data-name="Grupo 1162691" transform="translate(-183 -2275)">
    <g id="Grupo_1162518" data-name="Grupo 1162518" transform="translate(0 182)">
      <g id="Grupo_1162324" data-name="Grupo 1162324" transform="translate(0 1078)">
        <g id="Grupo_1155642" data-name="Grupo 1155642" transform="translate(0 166)">
          <g id="Grupo_1154380" data-name="Grupo 1154380" transform="translate(-9 -1247)">
            <g id="Grupo_1149886" data-name="Grupo 1149886" transform="translate(0 -2463)">
              <g id="Grupo_1149694" data-name="Grupo 1149694" transform="translate(-9 4104)">
                <g id="Grupo_1149263" data-name="Grupo 1149263" transform="translate(210 461)">
                  <g transform="matrix(1, 0, 0, 1, -9, -6)" filter="url(#Trazado_982548)">
                    <g id="Trazado_982548-2" data-name="Trazado 982548" transform="translate(9 6)" fill="#f6edfd">
                      <path d="M 40 78.5 C 34.80187606811523 78.5 29.76003265380859 77.48227691650391 25.01452255249023 75.47509765625 C 20.43014526367188 73.53606414794922 16.31264495849609 70.75986480712891 12.77638912200928 67.22360992431641 C 9.240133285522461 63.68735504150391 6.46393346786499 59.56985473632812 4.524899959564209 54.98547744750977 C 2.517722129821777 50.23996734619141 1.5 45.19812393188477 1.5 40 C 1.5 34.80187606811523 2.517722129821777 29.76003265380859 4.524899959564209 25.01452255249023 C 6.46393346786499 20.43014526367188 9.240133285522461 16.31264495849609 12.77638912200928 12.77638912200928 C 16.31264495849609 9.240133285522461 20.43014526367188 6.46393346786499 25.01452255249023 4.524899959564209 C 29.76003265380859 2.517722129821777 34.80187606811523 1.5 40 1.5 C 45.19812393188477 1.5 50.23996734619141 2.517722129821777 54.98547744750977 4.524899959564209 C 59.56985473632812 6.46393346786499 63.68735504150391 9.240133285522461 67.22360992431641 12.77638912200928 C 70.75986480712891 16.31264495849609 73.53606414794922 20.43014526367188 75.47509765625 25.01452255249023 C 77.48227691650391 29.76003265380859 78.5 34.80187606811523 78.5 40 C 78.5 45.19812393188477 77.48227691650391 50.23996734619141 75.47509765625 54.98547744750977 C 73.53606414794922 59.56985473632812 70.75986480712891 63.68735504150391 67.22360992431641 67.22360992431641 C 63.68735504150391 70.75986480712891 59.56985473632812 73.53606414794922 54.98547744750977 75.47509765625 C 50.23996734619141 77.48227691650391 45.19812393188477 78.5 40 78.5 Z" stroke="none"/>
                      <path d="M 40 3 C 35.00370788574219 3 30.15846633911133 3.977851867675781 25.59885406494141 5.906410217285156 C 21.19326782226562 7.769813537597656 17.23602676391602 10.43806457519531 13.83704376220703 13.83705139160156 C 10.43806457519531 17.23603820800781 7.769813537597656 21.19327926635742 5.906410217285156 25.59885406494141 C 3.977851867675781 30.15846633911133 3 35.00370788574219 3 40 C 3 44.99629211425781 3.977851867675781 49.84153366088867 5.906410217285156 54.40114593505859 C 7.769813537597656 58.80672073364258 10.43806457519531 62.76396179199219 13.83704376220703 66.16294860839844 C 17.23602676391602 69.56193542480469 21.19326782226562 72.23018646240234 25.59885406494141 74.09358978271484 C 30.15846633911133 76.02214813232422 35.00370788574219 77 40 77 C 44.99629211425781 77 49.84153366088867 76.02214813232422 54.40114593505859 74.09358978271484 C 58.80672073364258 72.23018646240234 62.76396179199219 69.56193542480469 66.16294860839844 66.16294860839844 C 69.56193542480469 62.76396179199219 72.23018646240234 58.80672073364258 74.09358978271484 54.40114593505859 C 76.02214813232422 49.84153366088867 77 44.99629211425781 77 40 C 77 35.00370788574219 76.02214813232422 30.15846633911133 74.09358978271484 25.59885406494141 C 72.23018646240234 21.19327926635742 69.56193542480469 17.23603820800781 66.16294860839844 13.83705139160156 C 62.76396179199219 10.43806457519531 58.80672073364258 7.769813537597656 54.40114593505859 5.906410217285156 C 49.84153366088867 3.977851867675781 44.99629211425781 3 40 3 M 40 0 C 62.09138488769531 0 80 17.90861511230469 80 40 C 80 62.09138488769531 62.09138488769531 80 40 80 C 17.90859985351562 80 0 62.09138488769531 0 40 C 0 17.90861511230469 17.90859985351562 0 40 0 Z" stroke="none" fill="#ac59f1"/>
                    </g>
                  </g>
                </g>
              </g>
            </g>
          </g>
        </g>
      </g>
    </g>
    <g id="cuentos" transform="translate(197.774 2295)">
      <g id="Grupo_1162689" data-name="Grupo 1162689" transform="translate(9.003 0.776)">
        <path id="Trazado_996824" data-name="Trazado 996824" d="M415.19,156.767a5.365,5.365,0,0,1-5.349,0,3.1,3.1,0,0,0-1.331,3.754c.437,1.291,2.337,2.009,3.539,2.777a.889.889,0,0,0,.952,0c1.244-.782,3.082-1.48,3.52-2.774A3.1,3.1,0,0,0,415.19,156.767Z" transform="translate(-367.693 -141.126)" fill="#f7ef87"/>
        <path id="Trazado_996825" data-name="Trazado 996825" d="M341.947,54.45a2.607,2.607,0,0,0-3.246.867,2.607,2.607,0,0,0-3.246-.867,3.762,3.762,0,0,0-1.615,4.556c.53,1.567,2.837,2.438,4.294,3.37a1.079,1.079,0,0,0,1.155,0c1.51-.949,3.741-1.8,4.272-3.367A3.761,3.761,0,0,0,341.947,54.45Z" transform="translate(-300.719 -49.36)" fill="#e8899e"/>
        <path id="Trazado_996826" data-name="Trazado 996826" d="M44.963,458.467v-.474a4.842,4.842,0,0,0-4.842-4.842H20.573a4.842,4.842,0,0,0-4.842,4.842v.474Z" transform="translate(-15.731 -407.02)" fill="#a7d4f1"/>
        <path id="Trazado_996827" data-name="Trazado 996827" d="M15.731,7.5v.949a4.842,4.842,0,0,0,4.842,4.842H40.122a4.842,4.842,0,0,0,4.842-4.842V7.5Z" transform="translate(-15.731 -7.5)" fill="#ceeafb"/>
        <g id="Grupo_1162686" data-name="Grupo 1162686" transform="translate(0 11.345)">
          <path id="Trazado_996828" data-name="Trazado 996828" d="M40.164,146.331H20.532a4.8,4.8,0,0,1-4.8-4.8V121.9a4.8,4.8,0,0,1,4.8-4.8H40.164a4.8,4.8,0,0,1,4.8,4.8v19.631A4.8,4.8,0,0,1,40.164,146.331Z" transform="translate(-15.732 -117.099)" fill="#ceeafb"/>
          <path id="Trazado_996829" data-name="Trazado 996829" d="M25.876,137.657V124.733a9.951,9.951,0,0,1,3.558-7.635h-8.9a4.8,4.8,0,0,0-4.8,4.8V141.53a4.8,4.8,0,0,0,4.8,4.8H30.924A9.968,9.968,0,0,1,25.876,137.657Z" transform="translate(-15.731 -117.098)" fill="#a7d4f1"/>
        </g>
        <g id="Grupo_1162687" data-name="Grupo 1162687" transform="translate(6.685 27.265)">
          <path id="Trazado_996830" data-name="Trazado 996830" d="M98.57,272.367a4.8,4.8,0,0,0-6.93,0L80.308,284.2H98.014a4.842,4.842,0,0,0,4.842-4.842v-2.517Z" transform="translate(-80.308 -270.888)" fill="#90daaa"/>
          <path id="Trazado_996831" data-name="Trazado 996831" d="M84.66,355.587l-4.352,4.545h8.509A10.014,10.014,0,0,1,84.66,355.587Z" transform="translate(-80.308 -346.819)" fill="#6fce91"/>
        </g>
        <path id="Trazado_996832" data-name="Trazado 996832" d="M263.149,290.574a2.44,2.44,0,0,0-.405,2.914,2.44,2.44,0,0,0-3.312,3.332,2.44,2.44,0,0,0-2.927,3.849l.476.476-.021.021-4.38-4.38a2.44,2.44,0,1,0-3.45,3.45l4.38,4.38,3.172,3.172,2.381,2.381a4.94,4.94,0,0,0,6.987,0l6.578-6.578a4.94,4.94,0,0,0,0-6.987l-2.381-2.381-3.172-3.172-.476-.476A2.439,2.439,0,0,0,263.149,290.574Z" transform="translate(-224.329 -260.631)" fill="#ffddcf"/>
        <circle id="Elipse_12414" data-name="Elipse 12414" cx="2.333" cy="2.333" r="2.333" transform="translate(4.289 26.639) rotate(-45)" fill="#f7ef87"/>
        <g id="Grupo_1162688" data-name="Grupo 1162688" transform="translate(0 11.345)">
          <path id="Trazado_996833" data-name="Trazado 996833" d="M40.122,117.1H20.573a4.842,4.842,0,0,0-4.842,4.842v3.895H44.963v-3.895A4.842,4.842,0,0,0,40.122,117.1Z" transform="translate(-15.731 -117.099)" fill="#a7d4f1"/>
          <path id="Trazado_996834" data-name="Trazado 996834" d="M25.877,124.733a9.951,9.951,0,0,1,3.558-7.635H20.574a4.842,4.842,0,0,0-4.842,4.842v3.895H25.877v-1.1Z" transform="translate(-15.732 -117.098)" fill="#82c2e7"/>
        </g>
      </g>
      <g id="Grupo_1162690" data-name="Grupo 1162690" transform="translate(8.226 0)">
        <path id="Trazado_996835" data-name="Trazado 996835" d="M13.849,7.344H33.4a5.624,5.624,0,0,0,5.618-5.618V.776A.776.776,0,0,0,38.24,0H9.007a.776.776,0,0,0-.776.776v.949a5.624,5.624,0,0,0,5.618,5.618ZM9.784,1.553h27.68v.173A4.07,4.07,0,0,1,33.4,5.791H13.849A4.07,4.07,0,0,1,9.784,1.726V1.553Z" transform="translate(-8.23 0)"/>
        <path id="Trazado_996836" data-name="Trazado 996836" d="M33.4,445.651H13.85a5.624,5.624,0,0,0-5.618,5.618v.474a.776.776,0,0,0,.776.776H38.241a.776.776,0,0,0,.776-.776v-.474A5.624,5.624,0,0,0,33.4,445.651ZM9.8,450.966A4.071,4.071,0,0,1,13.85,447.2H33.4a4.071,4.071,0,0,1,4.054,3.763Z" transform="translate(-8.231 -399.519)"/>
        <path id="Trazado_996837" data-name="Trazado 996837" d="M48.937,153.78H46.1a.776.776,0,0,0,0,1.553h2.838a.776.776,0,0,0,0-1.553Z" transform="translate(-41.483 -137.861)"/>
        <path id="Trazado_996838" data-name="Trazado 996838" d="M104.34,153.78H101.5a.776.776,0,1,0,0,1.553h2.838a.776.776,0,1,0,0-1.553Z" transform="translate(-91.151 -137.861)"/>
        <path id="Trazado_996839" data-name="Trazado 996839" d="M159.744,153.78h-2.838a.776.776,0,0,0,0,1.553h2.838a.776.776,0,0,0,0-1.553Z" transform="translate(-140.82 -137.861)"/>
        <path id="Trazado_996840" data-name="Trazado 996840" d="M62.139,241.043a3.109,3.109,0,1,0-3.109-3.109A3.112,3.112,0,0,0,62.139,241.043Zm0-4.665a1.556,1.556,0,1,1-1.556,1.556A1.558,1.558,0,0,1,62.139,236.378Z" transform="translate(-53.771 -210.517)"/>
        <path id="Trazado_996841" data-name="Trazado 996841" d="M57.852,134.454l-.969-.969a.776.776,0,1,0-1.1,1.1l.968.968a4.169,4.169,0,0,1,0,5.888l-6.578,6.579a4.164,4.164,0,0,1-5.889,0l-9.11-9.109-.007-.007-.815-.816a1.663,1.663,0,0,1,2.352-2.352l.821.821h0l0,0,0,0,3.552,3.551a.777.777,0,0,0,.549.227h0a.777.777,0,0,0,.549-.229l.021-.021a.776.776,0,0,0,0-1.1l-.476-.476a1.663,1.663,0,0,1,0-2.353,1.667,1.667,0,0,1,1.995-.271.776.776,0,0,0,1.058-1.058,1.67,1.67,0,0,1-.215-.821,1.663,1.663,0,0,1,2.472-1.452.776.776,0,0,0,1.056-1.056,1.669,1.669,0,0,1,.277-1.986,1.664,1.664,0,0,1,2.352,0l2.491,2.491a.776.776,0,0,0,1.1-1.1l-2.491-2.491a3.214,3.214,0,0,0-5.486,2.381,3.212,3.212,0,0,0-3.322,3.211q0,.057,0,.114a3.217,3.217,0,0,0-3.244,2.475l-.844-.844a5.6,5.6,0,0,0,.084-.954V115.176a5.583,5.583,0,0,0-5.576-5.576H13.8a5.583,5.583,0,0,0-5.577,5.576v11.83a.776.776,0,0,0,1.553,0v-7.117h27.68v10.428l-2.948-3.079a5.574,5.574,0,0,0-8.052,0l-11.1,11.594H13.8a4.029,4.029,0,0,1-4.025-4.024v-4.179a.776.776,0,0,0-1.553,0v4.179a5.583,5.583,0,0,0,5.577,5.576h19.59a5.932,5.932,0,0,0,.979-.081l8.815,8.814a5.717,5.717,0,0,0,8.085,0l6.578-6.578a5.724,5.724,0,0,0,0-8.084ZM9.779,118.336v-3.119a4.07,4.07,0,0,1,4.061-4.065H33.4a4.07,4.07,0,0,1,4.061,4.065v3.119Zm23.475,16.3a3.218,3.218,0,0,0-.306,4.195H17.506l10.074-10.52a4.021,4.021,0,0,1,5.809,0l4.07,4.25v1.775a3.217,3.217,0,0,0-4.2.3Z" transform="translate(-8.226 -98.254)"/>
        <path id="Trazado_996842" data-name="Trazado 996842" d="M329.833,55.663c.4.223.788.435,1.116.645a1.833,1.833,0,0,0,.989.287,1.875,1.875,0,0,0,1-.287c.33-.207.7-.412,1.094-.629,1.4-.775,3-1.653,3.5-3.146a4.5,4.5,0,0,0-2.012-5.5,3.3,3.3,0,0,0-3.584.456,3.3,3.3,0,0,0-3.584-.456,4.5,4.5,0,0,0-2.012,5.5C326.837,54.009,328.429,54.888,329.833,55.663Zm-.807-7.236a1.731,1.731,0,0,1,.757-.177,1.96,1.96,0,0,1,1.536.82.776.776,0,0,0,1.228,0,1.837,1.837,0,0,1,2.294-.643,3.015,3.015,0,0,1,1.218,3.608c-.312.922-1.567,1.615-2.78,2.284-.394.218-.8.443-1.169.673a.3.3,0,0,1-.324.006c-.37-.237-.774-.46-1.2-.7-1.157-.639-2.469-1.363-2.775-2.269A3.014,3.014,0,0,1,329.026,48.427Z" transform="translate(-293.174 -41.862)"/>
        <path id="Trazado_996843" data-name="Trazado 996843" d="M402.746,149.34a3.847,3.847,0,0,0-1.728,4.7c.429,1.267,1.765,2,2.944,2.655.332.183.645.356.912.527a1.649,1.649,0,0,0,.888.257,1.682,1.682,0,0,0,.894-.257c.269-.169.573-.337.895-.514,1.179-.651,2.515-1.388,2.948-2.668a3.847,3.847,0,0,0-1.728-4.7,14.155,14.155,0,0,1-6.026,0Zm2.4,1.888a.776.776,0,0,0,1.228,0,1.382,1.382,0,0,1,1.723-.491,2.343,2.343,0,0,1,.934,2.806c-.24.71-1.3,1.293-2.228,1.807-.327.18-.664.367-.97.559a.114.114,0,0,1-.121.006c-.309-.2-.643-.382-1-.578-.932-.514-1.988-1.1-2.224-1.794a2.343,2.343,0,0,1,.933-2.806,1.286,1.286,0,0,1,.563-.131A1.482,1.482,0,0,1,405.145,151.229Z" transform="translate(-360.16 -133.622)"/>
      </g>
    </g>
  </g>
</svg>
