<svg xmlns="http://www.w3.org/2000/svg" xmlns:xlink="http://www.w3.org/1999/xlink" width="98" height="98" viewBox="0 0 98 98">
  <defs>
    <filter id="Trazado_982548" x="0" y="0" width="98" height="98" filterUnits="userSpaceOnUse">
      <feOffset dy="3" input="SourceAlpha"/>
      <feGaussianBlur stdDeviation="3" result="blur"/>
      <feFlood flood-opacity="0.161"/>
      <feComposite operator="in" in2="blur"/>
      <feComposite in="SourceGraphic"/>
    </filter>
  </defs>
  <g id="Grupo_1162685" data-name="Grupo 1162685" transform="translate(-183 -2104)">
    <g id="Grupo_1162517" data-name="Grupo 1162517" transform="translate(0 11)">
      <g id="Grupo_1162324" data-name="Grupo 1162324" transform="translate(0 1078)">
        <g id="Grupo_1155642" data-name="Grupo 1155642" transform="translate(0 166)">
          <g id="Grupo_1154380" data-name="Grupo 1154380" transform="translate(-9 -1247)">
            <g id="Grupo_1149886" data-name="Grupo 1149886" transform="translate(0 -2463)">
              <g id="Grupo_1149694" data-name="Grupo 1149694" transform="translate(-9 4104)">
                <g id="Grupo_1149263" data-name="Grupo 1149263" transform="translate(210 461)">
                  <g transform="matrix(1, 0, 0, 1, -9, -6)" filter="url(#Trazado_982548)">
                    <g id="Trazado_982548-2" data-name="Trazado 982548" transform="translate(9 6)" fill="#f6edfd">
                      <path d="M 40 78.5 C 34.80187606811523 78.5 29.76003265380859 77.48227691650391 25.01452255249023 75.47509765625 C 20.43014526367188 73.53606414794922 16.31264495849609 70.75986480712891 12.77638912200928 67.22360992431641 C 9.240133285522461 63.68735504150391 6.46393346786499 59.56985473632812 4.524899959564209 54.98547744750977 C 2.517722129821777 50.23996734619141 1.5 45.19812393188477 1.5 40 C 1.5 34.80187606811523 2.517722129821777 29.76003265380859 4.524899959564209 25.01452255249023 C 6.46393346786499 20.43014526367188 9.240133285522461 16.31264495849609 12.77638912200928 12.77638912200928 C 16.31264495849609 9.240133285522461 20.43014526367188 6.46393346786499 25.01452255249023 4.524899959564209 C 29.76003265380859 2.517722129821777 34.80187606811523 1.5 40 1.5 C 45.19812393188477 1.5 50.23996734619141 2.517722129821777 54.98547744750977 4.524899959564209 C 59.56985473632812 6.46393346786499 63.68735504150391 9.240133285522461 67.22360992431641 12.77638912200928 C 70.75986480712891 16.31264495849609 73.53606414794922 20.43014526367188 75.47509765625 25.01452255249023 C 77.48227691650391 29.76003265380859 78.5 34.80187606811523 78.5 40 C 78.5 45.19812393188477 77.48227691650391 50.23996734619141 75.47509765625 54.98547744750977 C 73.53606414794922 59.56985473632812 70.75986480712891 63.68735504150391 67.22360992431641 67.22360992431641 C 63.68735504150391 70.75986480712891 59.56985473632812 73.53606414794922 54.98547744750977 75.47509765625 C 50.23996734619141 77.48227691650391 45.19812393188477 78.5 40 78.5 Z" stroke="none"/>
                      <path d="M 40 3 C 35.00370788574219 3 30.15846633911133 3.977851867675781 25.59885406494141 5.906410217285156 C 21.19326782226562 7.769813537597656 17.23602676391602 10.43806457519531 13.83704376220703 13.83705139160156 C 10.43806457519531 17.23603820800781 7.769813537597656 21.19327926635742 5.906410217285156 25.59885406494141 C 3.977851867675781 30.15846633911133 3 35.00370788574219 3 40 C 3 44.99629211425781 3.977851867675781 49.84153366088867 5.906410217285156 54.40114593505859 C 7.769813537597656 58.80672073364258 10.43806457519531 62.76396179199219 13.83704376220703 66.16294860839844 C 17.23602676391602 69.56193542480469 21.19326782226562 72.23018646240234 25.59885406494141 74.09358978271484 C 30.15846633911133 76.02214813232422 35.00370788574219 77 40 77 C 44.99629211425781 77 49.84153366088867 76.02214813232422 54.40114593505859 74.09358978271484 C 58.80672073364258 72.23018646240234 62.76396179199219 69.56193542480469 66.16294860839844 66.16294860839844 C 69.56193542480469 62.76396179199219 72.23018646240234 58.80672073364258 74.09358978271484 54.40114593505859 C 76.02214813232422 49.84153366088867 77 44.99629211425781 77 40 C 77 35.00370788574219 76.02214813232422 30.15846633911133 74.09358978271484 25.59885406494141 C 72.23018646240234 21.19327926635742 69.56193542480469 17.23603820800781 66.16294860839844 13.83705139160156 C 62.76396179199219 10.43806457519531 58.80672073364258 7.769813537597656 54.40114593505859 5.906410217285156 C 49.84153366088867 3.977851867675781 44.99629211425781 3 40 3 M 40 0 C 62.09138488769531 0 80 17.90861511230469 80 40 C 80 62.09138488769531 62.09138488769531 80 40 80 C 17.90859985351562 80 0 62.09138488769531 0 40 C 0 17.90861511230469 17.90859985351562 0 40 0 Z" stroke="none" fill="#ac59f1"/>
                    </g>
                  </g>
                </g>
              </g>
            </g>
          </g>
        </g>
      </g>
    </g>
    <g id="Layer_x0020_1" transform="translate(195.958 2117.198)">
      <g id="_280236760" transform="translate(14.042 8.802)">
        <g id="Grupo_1162684" data-name="Grupo 1162684" transform="translate(0 0)">
          <path id="_280237432" d="M57.427,29.333H14.657a.615.615,0,1,1,0-1.231H57.426a.615.615,0,0,1,0,1.231Z" transform="translate(-14.042 -22.258)" fill-rule="evenodd"/>
          <path id="_280237360" d="M33.091,19.414H30.367a.82.82,0,1,1,0-1.641h2.724a.82.82,0,0,1,0,1.641Z" transform="translate(-24.852 -15.056)" fill-rule="evenodd"/>
          <path id="_280237672" d="M51.315,19.414H48.592a.82.82,0,1,1,0-1.641h2.724a.82.82,0,0,1,0,1.641Z" transform="translate(-37.558 -15.056)" fill-rule="evenodd"/>
          <path id="_280237408" d="M69.539,19.414H66.816a.82.82,0,1,1,0-1.641h2.723a.82.82,0,0,1,0,1.641Z" transform="translate(-50.264 -15.056)" fill-rule="evenodd"/>
          <path id="_280238080" d="M16.783,10.032a1.512,1.512,0,0,0-1.511,1.509V53.234a1.512,1.512,0,0,0,1.51,1.51H55.3a1.512,1.512,0,0,0,1.51-1.51V11.542a1.512,1.512,0,0,0-1.51-1.509H16.783ZM55.3,55.975H16.783a2.744,2.744,0,0,1-2.741-2.741V11.542A2.744,2.744,0,0,1,16.783,8.8H55.3a2.744,2.744,0,0,1,2.741,2.74V53.234A2.744,2.744,0,0,1,55.3,55.975Z" transform="translate(-14.042 -8.802)" fill-rule="evenodd"/>
          <path id="_280237336" d="M26.625,58.912H61.288v-11.2H26.625ZM61.9,60.143H26.01a.615.615,0,0,1-.615-.615V47.094a.615.615,0,0,1,.615-.615H61.9a.615.615,0,0,1,.615.615V59.527a.615.615,0,0,1-.615.615Z" transform="translate(-21.957 -35.07)" fill-rule="evenodd"/>
          <path id="_280237624" d="M26.625,113.523H40.7v-11.2H26.625Zm14.693,1.231H26.01a.615.615,0,0,1-.615-.615V101.7a.615.615,0,0,1,.615-.615H41.318a.615.615,0,0,1,.615.615v12.435A.616.616,0,0,1,41.318,114.754Z" transform="translate(-21.957 -73.144)" fill-rule="evenodd"/>
          <path id="_280237840" d="M70,59.774H46.545a.615.615,0,1,1,0-1.231H70a.615.615,0,0,1,0,1.231Z" transform="translate(-36.274 -43.482)" fill-rule="evenodd"/>
          <path id="_280237504" d="M70,76.707H46.545a.615.615,0,0,1,0-1.231H70a.615.615,0,0,1,0,1.231Z" transform="translate(-36.274 -55.288)" fill-rule="evenodd"/>
          <path id="_280237384" d="M109.3,102.319H94a.615.615,0,1,1,0-1.231H109.3a.615.615,0,0,1,0,1.231Z" transform="translate(-69.358 -73.145)" fill-rule="evenodd"/>
          <path id="_280237168" d="M109.3,122.854H94a.615.615,0,1,1,0-1.231H109.3a.615.615,0,0,1,0,1.231Z" transform="translate(-69.358 -87.462)" fill-rule="evenodd"/>
          <path id="_280237072" d="M109.3,143.386H94a.615.615,0,1,1,0-1.231H109.3a.615.615,0,0,1,0,1.231Z" transform="translate(-69.358 -101.776)" fill-rule="evenodd"/>
        </g>
        <path id="_280236568" d="M18.106,17.479H59.645v-3.1a1.512,1.512,0,0,0-1.51-1.509H19.617a1.512,1.512,0,0,0-1.511,1.509v3.1ZM36.97,15.172a.82.82,0,0,1-.82.82H33.427a.82.82,0,1,1,0-1.641H36.15a.82.82,0,0,1,.82.82Zm-5.517,0a.82.82,0,0,1-.82.82H27.909a.82.82,0,1,1,0-1.641h2.724A.82.82,0,0,1,31.453,15.172Zm-5.518,0a.821.821,0,0,1-.82.82H22.391a.82.82,0,1,1,0-1.641h2.724A.821.821,0,0,1,25.935,15.172Z" transform="translate(-16.875 -11.635)" fill="#ffaa36" fill-rule="evenodd"/>
        <path id="_280237264" d="M20.928,36.5H56.821a.615.615,0,0,1,.615.615V49.549a.615.615,0,0,1-.615.615H20.928a.615.615,0,0,1-.615-.615V37.115a.615.615,0,0,1,.615-.615ZM59.645,69.524V32.167H18.106V69.524a1.512,1.512,0,0,0,1.51,1.51H58.134a1.512,1.512,0,0,0,1.51-1.51ZM41.514,53.036H56.821a.615.615,0,0,1,0,1.231H41.514a.615.615,0,1,1,0-1.231Zm0,6.218H56.821a.615.615,0,0,1,0,1.231H41.514a.615.615,0,1,1,0-1.231Zm0,6.217H56.821a.615.615,0,1,1,0,1.231H41.514a.615.615,0,1,1,0-1.231ZM20.928,53.036H36.236a.615.615,0,0,1,.615.615V66.086a.616.616,0,0,1-.615.615H20.928a.615.615,0,0,1-.615-.615V53.651A.615.615,0,0,1,20.928,53.036Z" transform="translate(-16.875 -25.092)" fill="#59d6ac" fill-rule="evenodd"/>
        <path id="_280236664" d="M64.122,61.746v-11.2H29.459v11.2Zm-29.06-3.653H58.52a.615.615,0,0,1,0,1.231H35.062a.615.615,0,1,1,0-1.231ZM58.52,54.2H35.062a.615.615,0,1,1,0-1.231H58.52a.615.615,0,0,1,0,1.231Z" transform="translate(-24.791 -37.904)" fill="#fc747c" fill-rule="evenodd"/>
        <path id="_280236928" d="M43.536,116.357v-11.2H29.459v11.2Z" transform="translate(-24.79 -75.978)" fill="#ffaa36" fill-rule="evenodd"/>
      </g>
    </g>
  </g>
</svg>
