<svg xmlns="http://www.w3.org/2000/svg" xmlns:xlink="http://www.w3.org/1999/xlink" width="98" height="98" viewBox="0 0 98 98">
  <defs>
    <filter id="Trazado_982548" x="0" y="0" width="98" height="98" filterUnits="userSpaceOnUse">
      <feOffset dy="3" input="SourceAlpha"/>
      <feGaussianBlur stdDeviation="3" result="blur"/>
      <feFlood flood-opacity="0.161"/>
      <feComposite operator="in" in2="blur"/>
      <feComposite in="SourceGraphic"/>
    </filter>
  </defs>
  <g id="Grupo_1162713" data-name="Grupo 1162713" transform="translate(-813 -2095)">
    <g id="Grupo_1162514" data-name="Grupo 1162514" transform="translate(0 1.96)">
      <g id="Grupo_1162329" data-name="Grupo 1162329" transform="translate(630 1078.041)">
        <g id="Grupo_1155642" data-name="Grupo 1155642" transform="translate(0 166)">
          <g id="Grupo_1154380" data-name="Grupo 1154380" transform="translate(-9 -1247)">
            <g id="Grupo_1149886" data-name="Grupo 1149886" transform="translate(0 -2463)">
              <g id="Grupo_1149694" data-name="Grupo 1149694" transform="translate(-9 4104)">
                <g id="Grupo_1149263" data-name="Grupo 1149263" transform="translate(210 461)">
                  <g transform="matrix(1, 0, 0, 1, -9, -6)" filter="url(#Trazado_982548)">
                    <g id="Trazado_982548-2" data-name="Trazado 982548" transform="translate(9 6)" fill="#f6edfd">
                      <path d="M 40 78.5 C 34.80187606811523 78.5 29.76003265380859 77.48227691650391 25.01452255249023 75.47509765625 C 20.43014526367188 73.53606414794922 16.31264495849609 70.75986480712891 12.77638912200928 67.22360992431641 C 9.240133285522461 63.68735504150391 6.46393346786499 59.56985473632812 4.524899959564209 54.98547744750977 C 2.517722129821777 50.23996734619141 1.5 45.19812393188477 1.5 40 C 1.5 34.80187606811523 2.517722129821777 29.76003265380859 4.524899959564209 25.01452255249023 C 6.46393346786499 20.43014526367188 9.240133285522461 16.31264495849609 12.77638912200928 12.77638912200928 C 16.31264495849609 9.240133285522461 20.43014526367188 6.46393346786499 25.01452255249023 4.524899959564209 C 29.76003265380859 2.517722129821777 34.80187606811523 1.5 40 1.5 C 45.19812393188477 1.5 50.23996734619141 2.517722129821777 54.98547744750977 4.524899959564209 C 59.56985473632812 6.46393346786499 63.68735504150391 9.240133285522461 67.22360992431641 12.77638912200928 C 70.75986480712891 16.31264495849609 73.53606414794922 20.43014526367188 75.47509765625 25.01452255249023 C 77.48227691650391 29.76003265380859 78.5 34.80187606811523 78.5 40 C 78.5 45.19812393188477 77.48227691650391 50.23996734619141 75.47509765625 54.98547744750977 C 73.53606414794922 59.56985473632812 70.75986480712891 63.68735504150391 67.22360992431641 67.22360992431641 C 63.68735504150391 70.75986480712891 59.56985473632812 73.53606414794922 54.98547744750977 75.47509765625 C 50.23996734619141 77.48227691650391 45.19812393188477 78.5 40 78.5 Z" stroke="none"/>
                      <path d="M 40 3 C 35.00370788574219 3 30.15846633911133 3.977851867675781 25.59885406494141 5.906410217285156 C 21.19326782226562 7.769813537597656 17.23602676391602 10.43806457519531 13.83704376220703 13.83705139160156 C 10.43806457519531 17.23603820800781 7.769813537597656 21.19327926635742 5.906410217285156 25.59885406494141 C 3.977851867675781 30.15846633911133 3 35.00370788574219 3 40 C 3 44.99629211425781 3.977851867675781 49.84153366088867 5.906410217285156 54.40114593505859 C 7.769813537597656 58.80672073364258 10.43806457519531 62.76396179199219 13.83704376220703 66.16294860839844 C 17.23602676391602 69.56193542480469 21.19326782226562 72.23018646240234 25.59885406494141 74.09358978271484 C 30.15846633911133 76.02214813232422 35.00370788574219 77 40 77 C 44.99629211425781 77 49.84153366088867 76.02214813232422 54.40114593505859 74.09358978271484 C 58.80672073364258 72.23018646240234 62.76396179199219 69.56193542480469 66.16294860839844 66.16294860839844 C 69.56193542480469 62.76396179199219 72.23018646240234 58.80672073364258 74.09358978271484 54.40114593505859 C 76.02214813232422 49.84153366088867 77 44.99629211425781 77 40 C 77 35.00370788574219 76.02214813232422 30.15846633911133 74.09358978271484 25.59885406494141 C 72.23018646240234 21.19327926635742 69.56193542480469 17.23603820800781 66.16294860839844 13.83705139160156 C 62.76396179199219 10.43806457519531 58.80672073364258 7.769813537597656 54.40114593505859 5.906410217285156 C 49.84153366088867 3.977851867675781 44.99629211425781 3 40 3 M 40 0 C 62.09138488769531 0 80 17.90861511230469 80 40 C 80 62.09138488769531 62.09138488769531 80 40 80 C 17.90859985351562 80 0 62.09138488769531 0 40 C 0 17.90861511230469 17.90859985351562 0 40 0 Z" stroke="none" fill="#ac59f1"/>
                    </g>
                  </g>
                </g>
              </g>
            </g>
          </g>
        </g>
      </g>
    </g>
    <g id="video" transform="translate(837 2116)">
      <g id="Grupo_1162711" data-name="Grupo 1162711" transform="translate(1.776 1.776)">
        <g id="Grupo_1162692" data-name="Grupo 1162692" transform="translate(0 6.211)">
          <path id="Trazado_996844" data-name="Trazado 996844" d="M2,10H43.927V33.293H2Z" transform="translate(-2 -10)" fill="#69d6f4"/>
        </g>
        <g id="Grupo_1162693" data-name="Grupo 1162693" transform="translate(0 29.504)">
          <path id="Trazado_996845" data-name="Trazado 996845" d="M29.951,46.91V43.432a4.743,4.743,0,0,0-.489-2.089L28.787,40H2v7.764a1.557,1.557,0,0,0,1.553,1.553H30.627A4.6,4.6,0,0,1,29.951,46.91Z" transform="translate(-2 -40)" fill="#ccd1d9"/>
        </g>
        <g id="Grupo_1162694" data-name="Grupo 1162694" transform="translate(0 0)">
          <path id="Trazado_996846" data-name="Trazado 996846" d="M42.374,2H3.553A1.557,1.557,0,0,0,2,3.553V8.211H26.846A1.557,1.557,0,0,1,28.4,6.659H43.927V3.553A1.557,1.557,0,0,0,42.374,2Z" transform="translate(-2 -2)" fill="#b4dd7f"/>
        </g>
        <g id="Grupo_1162695" data-name="Grupo 1162695" transform="translate(29.504 41.927)">
          <path id="Trazado_996847" data-name="Trazado 996847" d="M52.423,60.659H40a7.729,7.729,0,0,1,1.289-4.27L41.553,56H50.87l.264.388A7.729,7.729,0,0,1,52.423,60.659Z" transform="translate(-40 -56)" fill="#fcd770"/>
        </g>
        <g id="Grupo_1162696" data-name="Grupo 1162696" transform="translate(6.211 32.61)">
          <circle id="Elipse_12415" data-name="Elipse 12415" cx="1.5" cy="1.5" r="1.5" transform="translate(0.012 -0.386)" fill="#ff826e"/>
        </g>
        <g id="Grupo_1162697" data-name="Grupo 1162697" transform="translate(3.89 23.72)">
          <path id="Trazado_996848" data-name="Trazado 996848" d="M20.209,36.005l1.382-3.447V32.55c.326.062.683.14,1.04.21a5.664,5.664,0,0,1,4.558,5.567v.008H7.01v-.016a5.671,5.671,0,0,1,4.558-5.559l1.048-.21v.008L14,36.005,17.1,34.452Z" transform="translate(-7.01 -32.55)" fill="#ff826e"/>
        </g>
        <g id="Grupo_1162698" data-name="Grupo 1162698" transform="translate(13.983 23.285)">
          <path id="Trazado_996849" data-name="Trazado 996849" d="M24.5,32.433,23.116,35.88,20.01,34.327,22.339,32V31.99s.939.186,2.158.435Z" transform="translate(-20.01 -31.99)" fill="#fc6e51"/>
        </g>
        <g id="Grupo_1162699" data-name="Grupo 1162699" transform="translate(9.496 23.285)">
          <path id="Trazado_996850" data-name="Trazado 996850" d="M18.718,34.327,15.612,35.88,14.23,32.433v-.008l2.158-.435V32Z" transform="translate(-14.23 -31.99)" fill="#fc6e51"/>
        </g>
        <g id="Grupo_1162700" data-name="Grupo 1162700" transform="translate(6.996 9.317)">
          <path id="Trazado_996851" data-name="Trazado 996851" d="M12.563,20.211a1.547,1.547,0,0,0-1.211.582l-.194-.784a4.578,4.578,0,0,1-.148-1.172A4.838,4.838,0,0,1,15.847,14h4.3a4.838,4.838,0,0,1,4.837,4.837,4.578,4.578,0,0,1-.148,1.172l-.194.784a1.547,1.547,0,0,0-1.211-.582H20.972a9.22,9.22,0,0,1-4.162-.986l-.877-.435a1.256,1.256,0,0,0-1.817,1.126v.3Z" transform="translate(-11.01 -14)" fill="#656d78"/>
        </g>
        <g id="Grupo_1162701" data-name="Grupo 1162701" transform="translate(24.846 4.659)">
          <path id="Trazado_996852" data-name="Trazado 996852" d="M54.187,8H35.553A1.557,1.557,0,0,0,34,9.553V21.976a1.557,1.557,0,0,0,1.553,1.553H54.187a1.557,1.557,0,0,0,1.553-1.553V9.553A1.557,1.557,0,0,0,54.187,8Z" transform="translate(-34 -8)" fill="#ffeaa7"/>
        </g>
        <g id="Grupo_1162702" data-name="Grupo 1162702" transform="translate(31.057 7.764)">
          <path id="Trazado_996853" data-name="Trazado 996853" d="M50.626,15.533a1.263,1.263,0,0,1,0,2.252l-6.809,3.4A1.256,1.256,0,0,1,42,20.059v-6.8a1.256,1.256,0,0,1,1.817-1.126Z" transform="translate(-42 -12)" fill="#ff826e"/>
        </g>
        <g id="Grupo_1162703" data-name="Grupo 1162703" transform="translate(26.398 17.081)">
          <path id="Trazado_996854" data-name="Trazado 996854" d="M49.976,33.317l1.553.388.38.093A1.546,1.546,0,0,1,53.081,35.3v8.028a4.64,4.64,0,0,1-1.017,2.9l-2.089,2.609H40.659L38.57,46.237a4.335,4.335,0,0,1-.342-.5,4.6,4.6,0,0,1-.675-2.407V39.855a4.743,4.743,0,0,0-.489-2.089l-.675-1.343-.256-.512a1.256,1.256,0,0,1,1.126-1.817,3.393,3.393,0,0,1,3.4,3.4V25.553A1.557,1.557,0,0,1,42.211,24a1.564,1.564,0,0,1,1.553,1.553v6.211l3.106.776Z" transform="translate(-36 -24)" fill="#f0d0b4"/>
        </g>
        <g id="Grupo_1162704" data-name="Grupo 1162704" transform="translate(17.865 15.528)">
          <path id="Trazado_996855" data-name="Trazado 996855" d="M27.658,24.648a1.518,1.518,0,0,1-1.095.458H25.01V22h1.553a1.547,1.547,0,0,1,1.211.582,1.569,1.569,0,0,1,.342.971A1.55,1.55,0,0,1,27.658,24.648Z" transform="translate(-25.01 -22)" fill="#f0d0b4"/>
        </g>
        <g id="Grupo_1162705" data-name="Grupo 1162705" transform="translate(11.654 21.53)">
          <path id="Trazado_996856" data-name="Trazado 996856" d="M21.669,31.485v.008l-2.329,2.329L17.01,31.492v-.008l.443-1.755a3.066,3.066,0,0,0,1.11.2h1.553a3.066,3.066,0,0,0,1.11-.2Z" transform="translate(-17.01 -29.73)" fill="#f0d0b4"/>
        </g>
        <g id="Grupo_1162706" data-name="Grupo 1162706" transform="translate(10.101 13.976)">
          <path id="Trazado_996857" data-name="Trazado 996857" d="M22.774,21.553v3.106a3.111,3.111,0,0,1-2,2.9,3.066,3.066,0,0,1-1.11.2H18.116a3.066,3.066,0,0,1-1.11-.2,3.111,3.111,0,0,1-2-2.9v-3.4a1.256,1.256,0,0,1,1.817-1.126l.877.435a9.22,9.22,0,0,0,4.162.986Z" transform="translate(-15.01 -20)" fill="#f0d0b4"/>
        </g>
        <g id="Grupo_1162707" data-name="Grupo 1162707" transform="translate(6.996 15.528)">
          <path id="Trazado_996858" data-name="Trazado 996858" d="M14.116,25.1v.008H12.563a1.518,1.518,0,0,1-1.095-.458,1.55,1.55,0,0,1-.458-1.095,1.569,1.569,0,0,1,.342-.971A1.547,1.547,0,0,1,12.563,22h1.553Z" transform="translate(-11.01 -22)" fill="#f0d0b4"/>
        </g>
        <g id="Grupo_1162708" data-name="Grupo 1162708" transform="translate(15.528 3.106)">
          <path id="Trazado_996859" data-name="Trazado 996859" d="M22,6h3.106V9.106H22Z" transform="translate(-22 -6)" fill="#e6e9ed"/>
        </g>
        <g id="Grupo_1162709" data-name="Grupo 1162709" transform="translate(9.317 3.106)">
          <path id="Trazado_996860" data-name="Trazado 996860" d="M14,6h3.106V9.106H14Z" transform="translate(-14 -6)" fill="#e6e9ed"/>
        </g>
        <g id="Grupo_1162710" data-name="Grupo 1162710" transform="translate(3.106 3.106)">
          <path id="Trazado_996861" data-name="Trazado 996861" d="M6,6H9.106V9.106H6Z" transform="translate(-6 -6)" fill="#e6e9ed"/>
        </g>
      </g>
      <g id="Grupo_1162712" data-name="Grupo 1162712" transform="translate(1 1)">
        <path id="Trazado_996862" data-name="Trazado 996862" d="M46.809,5.659H44.48V3.329A2.332,2.332,0,0,0,42.15,1H3.329A2.332,2.332,0,0,0,1,3.329V39.045a2.332,2.332,0,0,0,2.329,2.329H30c.049.068.087.143.14.209l1.732,2.165a8.438,8.438,0,0,0-1.37,4.614v.776H44.48v-.776a8.438,8.438,0,0,0-1.37-4.614l1.732-2.165a5.457,5.457,0,0,0,1.191-3.4V30.164a2.319,2.319,0,0,0-1.553-2.187V22.74h2.329a2.332,2.332,0,0,0,2.329-2.329V7.988A2.332,2.332,0,0,0,46.809,5.659ZM3.329,2.553H42.15a.777.777,0,0,1,.776.776V5.659H28.175a2.326,2.326,0,0,0-2.186,1.553h-4.8V4.106H16.528V7.211H14.976V4.106H10.317V7.211H8.764V4.106H4.106V7.211H2.553V3.329a.777.777,0,0,1,.776-.776ZM33.61,17.6V10.8a.48.48,0,0,1,.694-.429l6.8,3.4a.48.48,0,0,1,0,.859l-6.8,3.4a.493.493,0,0,1-.694-.429ZM32.057,29.13a4.136,4.136,0,0,0-2.626-.955,1.955,1.955,0,0,0-2,2.329h-.862a6.463,6.463,0,0,0-5.131-5.562L18.723,24.4l-.173-.691a3.881,3.881,0,0,0,1.788-2.519h.856a2.332,2.332,0,0,0,2.329-2.329,2.3,2.3,0,0,0-.286-1.094l.117-.469a5.613,5.613,0,0,0-5.447-6.978h-4.3a5.615,5.615,0,0,0-5.447,6.977l.117.471A2.307,2.307,0,0,0,8,18.858a2.332,2.332,0,0,0,2.329,2.329h.856A3.879,3.879,0,0,0,12.969,23.7L12.8,24.4l-2.724.544A6.464,6.464,0,0,0,4.94,30.5H2.553V8.764H25.846V20.411a2.332,2.332,0,0,0,2.329,2.329h3.882ZM11.1,19.634h-.776a.776.776,0,0,1,0-1.553H11.1Zm.064-3.106h-.84a2.281,2.281,0,0,0-.7.121,4.023,4.023,0,0,1,3.991-4.779h4.3A4.023,4.023,0,0,1,21.9,16.65a2.281,2.281,0,0,0-.7-.121H18.736a8.578,8.578,0,0,1-3.819-.9l-.873-.437a2.054,2.054,0,0,0-.909-.214,2.032,2.032,0,0,0-1.969,1.553Zm9.253,1.553h.776a.776.776,0,1,1,0,1.553h-.776Zm-7.764-1.073a.48.48,0,0,1,.694-.429l.873.437a10.154,10.154,0,0,0,4.514,1.065h.13V20.4a2.332,2.332,0,0,1-2.329,2.329H14.983A2.332,2.332,0,0,1,12.654,20.4Zm5.7,8.9.83.166-.723,1.807-1.387-.693Zm-3.367-1.621h1.553a3.813,3.813,0,0,0,.544-.055l.15.6L15.76,26.3l-1.471-1.471.15-.6a3.813,3.813,0,0,0,.544.055Zm-1.814,1.62,1.28,1.28-1.387.693-.723-1.808Zm-2.379.476,1.457,3.642,3.513-1.757,3.513,1.757,1.456-3.641.407.082A4.9,4.9,0,0,1,25,30.5H6.51a4.9,4.9,0,0,1,3.867-4.041ZM7.211,7.211H5.659V5.659H7.211Zm6.211,0H11.87V5.659h1.553Zm6.211,0H18.081V5.659h1.553Zm-16.3,32.61a.777.777,0,0,1-.776-.776V32.057h25.53l.458.917a3.9,3.9,0,0,1,.41,1.735v3.478a5.41,5.41,0,0,0,.265,1.634H3.329ZM32.1,47.585a6.9,6.9,0,0,1,1.118-3.06l.03-.046h8.486l.03.046a6.9,6.9,0,0,1,1.118,3.06Zm12.379-9.4a3.893,3.893,0,0,1-.851,2.425l-1.852,2.315h-8.57l-1.852-2.315a3.9,3.9,0,0,1-.851-2.425V34.71a5.456,5.456,0,0,0-.574-2.43L29,30.423a.481.481,0,0,1,.429-.695,2.629,2.629,0,0,1,2.626,2.626v3.586H33.61V20.411a.776.776,0,1,1,1.553,0V35.939h1.553V27.617L38.268,28v7.934h1.553V28.393l1.553.388v7.158h1.553v-6.77l.964.241a.777.777,0,0,1,.589.754ZM42.927,27.568l-3.106-.776L38.268,26.4l-1.553-.388V22.74h6.211Zm4.659-7.158a.777.777,0,0,1-.776.776H36.715v-.776a2.313,2.313,0,0,0-.6-1.548l5.69-2.845a2.034,2.034,0,0,0,0-3.637L35,8.979A2.033,2.033,0,0,0,32.057,10.8v6.8a2.017,2.017,0,0,0,.526,1.353,2.306,2.306,0,0,0-.526,1.457v.776H28.175a.777.777,0,0,1-.776-.776V7.988a.777.777,0,0,1,.776-.776H46.809a.777.777,0,0,1,.776.776Z" transform="translate(-1 -1)"/>
        <path id="Trazado_996863" data-name="Trazado 996863" d="M10.435,43a2.326,2.326,0,0,0-2.186,1.553H5v1.553H8.249a2.316,2.316,0,0,0,4.373,0H28.293V44.553H12.621A2.326,2.326,0,0,0,10.435,43Zm0,3.106a.776.776,0,1,1,.776-.776A.777.777,0,0,1,10.435,46.106Z" transform="translate(-1.894 -10.39)"/>
      </g>
    </g>
  </g>
</svg>
