<svg xmlns="http://www.w3.org/2000/svg" xmlns:xlink="http://www.w3.org/1999/xlink" width="108" height="108" viewBox="0 0 108 108">
  <defs>
    <filter id="Trazado_982547" x="0" y="0" width="108" height="108" filterUnits="userSpaceOnUse">
      <feOffset dy="3" input="SourceAlpha"/>
      <feGaussianBlur stdDeviation="3" result="blur"/>
      <feFlood flood-opacity="0.161"/>
      <feComposite operator="in" in2="blur"/>
      <feComposite in="SourceGraphic"/>
    </filter>
  </defs>
  <g id="Grupo_1162678" data-name="Grupo 1162678" transform="translate(-588 -4774)">
    <g id="Grupo_1162117" data-name="Grupo 1162117" transform="translate(0 1336)">
      <g id="Grupo_1160642" data-name="Grupo 1160642" transform="translate(0 2554)">
        <g id="Grupo_1149836" data-name="Grupo 1149836" transform="translate(0 -3975)">
          <g id="Grupo_1149674" data-name="Grupo 1149674" transform="translate(-158 -2821)">
            <g id="Grupo_1148534" data-name="Grupo 1148534" transform="translate(156 4253)">
              <g id="Grupo_1147066" data-name="Grupo 1147066" transform="translate(-26 -556)">
                <g transform="matrix(1, 0, 0, 1, 616, 3983)" filter="url(#Trazado_982547)">
                  <g id="Trazado_982547-2" data-name="Trazado 982547" transform="translate(9 6)" fill="#f6edfd">
                    <path d="M 45 88.5 C 39.12687683105469 88.5 33.43022537231445 87.35007476806641 28.06830024719238 85.08217620849609 C 22.88852500915527 82.89131164550781 18.23629951477051 79.75458526611328 14.2408504486084 75.75914764404297 C 10.24541282653809 71.76370239257812 7.108687400817871 67.11147308349609 4.917825222015381 61.93170166015625 C 2.649924993515015 56.56977462768555 1.5 50.87312316894531 1.5 45 C 1.5 39.12687683105469 2.649924993515015 33.43022537231445 4.917825222015381 28.06830024719238 C 7.108687400817871 22.88852500915527 10.24541282653809 18.23629951477051 14.2408504486084 14.2408504486084 C 18.23629951477051 10.24541282653809 22.88852500915527 7.108687400817871 28.06830024719238 4.917825222015381 C 33.43022537231445 2.649924993515015 39.12687683105469 1.5 45 1.5 C 50.87312316894531 1.5 56.56977462768555 2.649924993515015 61.93170166015625 4.917825222015381 C 67.11147308349609 7.108687400817871 71.76370239257812 10.24541282653809 75.75914764404297 14.2408504486084 C 79.75458526611328 18.23629951477051 82.89131164550781 22.88852500915527 85.08217620849609 28.06830024719238 C 87.35007476806641 33.43022537231445 88.5 39.12687683105469 88.5 45 C 88.5 50.87312316894531 87.35007476806641 56.56977462768555 85.08217620849609 61.93170166015625 C 82.89131164550781 67.11147308349609 79.75458526611328 71.76370239257812 75.75914764404297 75.75914764404297 C 71.76370239257812 79.75458526611328 67.11147308349609 82.89131164550781 61.93170166015625 85.08217620849609 C 56.56977462768555 87.35007476806641 50.87312316894531 88.5 45 88.5 Z" stroke="none"/>
                    <path d="M 45 3 C 39.32871246337891 3 33.82865524291992 4.110054016113281 28.65262985229492 6.299339294433594 C 23.65165710449219 8.414573669433594 19.15968322753906 11.44334411621094 15.301513671875 15.301513671875 C 11.44334411621094 19.15968322753906 8.414573669433594 23.65165710449219 6.299339294433594 28.65262985229492 C 4.110054016113281 33.82865524291992 3 39.32871246337891 3 45 C 3 50.67128753662109 4.110054016113281 56.17134475708008 6.299339294433594 61.34737396240234 C 8.414573669433594 66.34834289550781 11.44334411621094 70.84031677246094 15.301513671875 74.698486328125 C 19.15968322753906 78.55665588378906 23.65165710449219 81.58542633056641 28.65262985229492 83.70066070556641 C 33.82865524291992 85.88994598388672 39.32871246337891 87 45 87 C 50.67128753662109 87 56.17134475708008 85.88994598388672 61.34737396240234 83.70066070556641 C 66.34834289550781 81.58542633056641 70.84031677246094 78.55665588378906 74.698486328125 74.698486328125 C 78.55665588378906 70.84031677246094 81.58542633056641 66.34834289550781 83.70066070556641 61.34737396240234 C 85.88994598388672 56.17134475708008 87 50.67128753662109 87 45 C 87 39.32871246337891 85.88994598388672 33.82865524291992 83.70066070556641 28.65262985229492 C 81.58542633056641 23.65165710449219 78.55665588378906 19.15968322753906 74.698486328125 15.301513671875 C 70.84031677246094 11.44334411621094 66.34834289550781 8.414573669433594 61.34737396240234 6.299339294433594 C 56.17134475708008 4.110054016113281 50.67128753662109 3 45 3 M 45 0 C 69.85281372070312 0 90 20.14718627929688 90 45 C 90 69.85281372070312 69.85281372070312 90 45 90 C 20.14718627929688 90 0 69.85281372070312 0 45 C 0 20.14718627929688 20.14718627929688 0 45 0 Z" stroke="none" fill="#ac59f1"/>
                  </g>
                </g>
              </g>
            </g>
          </g>
        </g>
      </g>
    </g>
    <g id="XMLID_1123_" transform="translate(614 4797)">
      <path id="XMLID_849_" d="M105.572,259.862,90,264.3v-6.079l15.572-4.439Z" transform="translate(-80.267 -226.339)" fill="#a0c8ff"/>
      <g id="XMLID_1501_" transform="translate(1.273 41.197)">
        <circle id="XMLID_805_" cx="4.455" cy="4.455" r="4.455" transform="translate(0 4.625)" fill="#a0c8ff"/>
        <circle id="XMLID_883_" cx="4.326" cy="4.326" r="4.326" transform="translate(15.381)" fill="#a0c8ff"/>
      </g>
      <g id="XMLID_1407_" transform="translate(34.345 1.081)">
        <path id="XMLID_1025_" d="M397.592,19.333l11.291-3.254V10l-11.291,3.254Z" transform="translate(-388.941 -10)" fill="#ff9b9b"/>
        <circle id="XMLID_1026_" cx="4.326" cy="4.326" r="4.326" transform="translate(0 17.006)" fill="#ff9b9b"/>
      </g>
      <path id="XMLID_1315_" d="M323.7,315.617l-5.174,2.72.988-5.761-4.186-4.08,5.784-.841,2.587-5.242,2.587,5.242,5.784.841-4.186,4.08.988,5.761Z" transform="translate(-281.229 -269.711)" fill="#cbf4fb"/>
      <path id="XMLID_1509_" d="M18.439,20.849l-4.251,2.235L15,18.35,11.56,15l4.753-.691L18.439,10l2.126,4.307L25.317,15,21.878,18.35l.812,4.734Z" transform="translate(-10.31 -8.919)" fill="#ffd88e"/>
      <g id="XMLID_89_" transform="translate(0 0)">
        <path id="XMLID_1118_" d="M25.305,243.783a1.08,1.08,0,0,0-.3.042h0l-3.106.885a1.081,1.081,0,1,0,.593,2.08l1.728-.492v3.83l-13.41,3.822v-3.83l2.321-.662a1.081,1.081,0,1,0-.593-2.08l-3.106.885h0a1.081,1.081,0,0,0-.785,1.039v13.755a5.405,5.405,0,1,0,2.163,4.323V256.2l13.41-3.822v6.243a5.405,5.405,0,1,0,2.163,4.323V244.864A1.081,1.081,0,0,0,25.305,243.783Zm-19.9,26.842a3.244,3.244,0,1,1,3.244-3.244A3.248,3.248,0,0,1,5.407,270.625Zm15.572-4.439a3.244,3.244,0,1,1,3.244-3.244A3.248,3.248,0,0,1,20.979,266.187Z" transform="translate(0 -217.42)"/>
        <path id="XMLID_2013_" d="M329.266.218a1.082,1.082,0,0,0-.95-.175L317.025,3.3a1.081,1.081,0,0,0-.782,1.039V18.092a5.405,5.405,0,1,0,2.163,4.323V11.229L328.915,8.2a1.081,1.081,0,0,0,.782-1.039V1.082a1.081,1.081,0,0,0-.431-.864ZM313,25.658a3.244,3.244,0,1,1,3.244-3.244A3.248,3.248,0,0,1,313,25.658ZM327.534,6.348l-9.128,2.631V5.15l9.128-2.631Z" transform="translate(-274.329 -0.001)"/>
        <path id="XMLID_2027_" d="M323.308,298.508l-5.222-.759-2.335-4.732a1.081,1.081,0,0,0-1.939,0l-2.335,4.732-5.222.759a1.081,1.081,0,0,0-.6,1.845l3.779,3.683-.892,5.2a1.081,1.081,0,0,0,1.569,1.14l4.671-2.456,4.671,2.455a1.081,1.081,0,0,0,1.569-1.14l-.892-5.2,3.779-3.683a1.081,1.081,0,0,0-.6-1.844Zm-5.1,4.376a1.081,1.081,0,0,0-.311.957l.618,3.6-3.234-1.7a1.081,1.081,0,0,0-1.006,0l-3.234,1.7.618-3.6a1.081,1.081,0,0,0-.311-.957l-2.617-2.551,3.616-.525a1.081,1.081,0,0,0,.814-.592l1.617-3.277,1.617,3.277a1.081,1.081,0,0,0,.814.592l3.616.525Z" transform="translate(-272.309 -260.793)"/>
        <path id="XMLID_2031_" d="M4.918,9.809,4.2,13.983a1.081,1.081,0,0,0,1.569,1.14l3.748-1.97,3.748,1.97a1.081,1.081,0,0,0,1.569-1.14L14.12,9.809l3.032-2.956a1.081,1.081,0,0,0-.6-1.845L12.363,4.4,10.489.6A1.081,1.081,0,0,0,8.549.6L6.675,4.4l-4.19.609a1.081,1.081,0,0,0-.6,1.845ZM7.549,6.459a1.081,1.081,0,0,0,.814-.592L9.519,3.525l1.156,2.342a1.081,1.081,0,0,0,.814.592l2.585.376L12.2,8.657a1.081,1.081,0,0,0-.311.957l.442,2.574-2.312-1.215a1.081,1.081,0,0,0-1.006,0L6.7,12.189l.442-2.574a1.081,1.081,0,0,0-.311-.957L4.964,6.834Z" transform="translate(-1.39 0)"/>
        <path id="XMLID_2032_" d="M225.081,86.306A1.081,1.081,0,0,0,224,87.387v1.081a1.081,1.081,0,1,0,2.163,0V87.387A1.081,1.081,0,0,0,225.081,86.306Z" transform="translate(-199.776 -76.973)"/>
        <path id="XMLID_2033_" d="M225.081,156.306A1.081,1.081,0,0,0,224,157.387v1.081a1.081,1.081,0,0,0,2.163,0v-1.081A1.081,1.081,0,0,0,225.081,156.306Z" transform="translate(-199.776 -139.403)"/>
        <path id="XMLID_2036_" d="M256.163,126.306h-1.081a1.081,1.081,0,1,0,0,2.163h1.081a1.081,1.081,0,0,0,0-2.163Z" transform="translate(-226.532 -112.647)"/>
        <path id="XMLID_2038_" d="M185.081,128.469h1.081a1.081,1.081,0,0,0,0-2.163h-1.081a1.081,1.081,0,0,0,0,2.163Z" transform="translate(-164.102 -112.647)"/>
        <path id="XMLID_2039_" d="M153.081,266.473a1.082,1.082,0,1,0-.765-.317A1.09,1.09,0,0,0,153.081,266.473Z" transform="translate(-135.563 -235.727)"/>
      </g>
    </g>
  </g>
</svg>
