<svg xmlns="http://www.w3.org/2000/svg" xmlns:xlink="http://www.w3.org/1999/xlink" width="108" height="108" viewBox="0 0 108 108">
  <defs>
    <filter id="Trazado_982547" x="0" y="0" width="108" height="108" filterUnits="userSpaceOnUse">
      <feOffset dy="3" input="SourceAlpha"/>
      <feGaussianBlur stdDeviation="3" result="blur"/>
      <feFlood flood-opacity="0.161"/>
      <feComposite operator="in" in2="blur"/>
      <feComposite in="SourceGraphic"/>
    </filter>
  </defs>
  <g id="Grupo_1162664" data-name="Grupo 1162664" transform="translate(-1218 -2865)">
    <g id="Grupo_1162009" data-name="Grupo 1162009" transform="translate(0 -573)">
      <g id="Grupo_1160644" data-name="Grupo 1160644" transform="translate(0 2554)">
        <g id="Grupo_1149838" data-name="Grupo 1149838" transform="translate(0 -3975)">
          <g id="Grupo_1149676" data-name="Grupo 1149676" transform="translate(472 -2821)">
            <g id="Grupo_1148534" data-name="Grupo 1148534" transform="translate(156 4253)">
              <g id="Grupo_1147066" data-name="Grupo 1147066" transform="translate(-26 -556)">
                <g transform="matrix(1, 0, 0, 1, 616, 3983)" filter="url(#Trazado_982547)">
                  <g id="Trazado_982547-2" data-name="Trazado 982547" transform="translate(9 6)" fill="#f6edfd">
                    <path d="M 45 88.5 C 39.12687683105469 88.5 33.43022537231445 87.35007476806641 28.06830024719238 85.08217620849609 C 22.88852500915527 82.89131164550781 18.23629951477051 79.75458526611328 14.2408504486084 75.75914764404297 C 10.24541282653809 71.76370239257812 7.108687400817871 67.11147308349609 4.917825222015381 61.93170166015625 C 2.649924993515015 56.56977462768555 1.5 50.87312316894531 1.5 45 C 1.5 39.12687683105469 2.649924993515015 33.43022537231445 4.917825222015381 28.06830024719238 C 7.108687400817871 22.88852500915527 10.24541282653809 18.23629951477051 14.2408504486084 14.2408504486084 C 18.23629951477051 10.24541282653809 22.88852500915527 7.108687400817871 28.06830024719238 4.917825222015381 C 33.43022537231445 2.649924993515015 39.12687683105469 1.5 45 1.5 C 50.87312316894531 1.5 56.56977462768555 2.649924993515015 61.93170166015625 4.917825222015381 C 67.11147308349609 7.108687400817871 71.76370239257812 10.24541282653809 75.75914764404297 14.2408504486084 C 79.75458526611328 18.23629951477051 82.89131164550781 22.88852500915527 85.08217620849609 28.06830024719238 C 87.35007476806641 33.43022537231445 88.5 39.12687683105469 88.5 45 C 88.5 50.87312316894531 87.35007476806641 56.56977462768555 85.08217620849609 61.93170166015625 C 82.89131164550781 67.11147308349609 79.75458526611328 71.76370239257812 75.75914764404297 75.75914764404297 C 71.76370239257812 79.75458526611328 67.11147308349609 82.89131164550781 61.93170166015625 85.08217620849609 C 56.56977462768555 87.35007476806641 50.87312316894531 88.5 45 88.5 Z" stroke="none"/>
                    <path d="M 45 3 C 39.32871246337891 3 33.82865524291992 4.110054016113281 28.65262985229492 6.299339294433594 C 23.65165710449219 8.414573669433594 19.15968322753906 11.44334411621094 15.301513671875 15.301513671875 C 11.44334411621094 19.15968322753906 8.414573669433594 23.65165710449219 6.299339294433594 28.65262985229492 C 4.110054016113281 33.82865524291992 3 39.32871246337891 3 45 C 3 50.67128753662109 4.110054016113281 56.17134475708008 6.299339294433594 61.34737396240234 C 8.414573669433594 66.34834289550781 11.44334411621094 70.84031677246094 15.301513671875 74.698486328125 C 19.15968322753906 78.55665588378906 23.65165710449219 81.58542633056641 28.65262985229492 83.70066070556641 C 33.82865524291992 85.88994598388672 39.32871246337891 87 45 87 C 50.67128753662109 87 56.17134475708008 85.88994598388672 61.34737396240234 83.70066070556641 C 66.34834289550781 81.58542633056641 70.84031677246094 78.55665588378906 74.698486328125 74.698486328125 C 78.55665588378906 70.84031677246094 81.58542633056641 66.34834289550781 83.70066070556641 61.34737396240234 C 85.88994598388672 56.17134475708008 87 50.67128753662109 87 45 C 87 39.32871246337891 85.88994598388672 33.82865524291992 83.70066070556641 28.65262985229492 C 81.58542633056641 23.65165710449219 78.55665588378906 19.15968322753906 74.698486328125 15.301513671875 C 70.84031677246094 11.44334411621094 66.34834289550781 8.414573669433594 61.34737396240234 6.299339294433594 C 56.17134475708008 4.110054016113281 50.67128753662109 3 45 3 M 45 0 C 69.85281372070312 0 90 20.14718627929688 90 45 C 90 69.85281372070312 69.85281372070312 90 45 90 C 20.14718627929688 90 0 69.85281372070312 0 45 C 0 20.14718627929688 20.14718627929688 0 45 0 Z" stroke="none" fill="#ac59f1"/>
                  </g>
                </g>
              </g>
            </g>
          </g>
        </g>
      </g>
    </g>
    <g id="Artboard21" transform="translate(1193.387 2877)">
      <g id="Grupo_1162663" data-name="Grupo 1162663" transform="translate(52.613 7)">
        <g id="Grupo_1162662" data-name="Grupo 1162662" transform="translate(1.032 0.988)">
          <g id="Grupo_1162659" data-name="Grupo 1162659" transform="translate(0 11.555)">
            <g id="Grupo_1162655" data-name="Grupo 1162655">
              <g id="CorelEMF">
                <path id="Trazado_996748" data-name="Trazado 996748" d="M61.762,104.23H91.836a1.108,1.108,0,0,1,.811.336l5.457,5.457a1.109,1.109,0,0,1,.336.811v41.275a1.146,1.146,0,0,1-1.144,1.144H61.762a1.147,1.147,0,0,1-1.146-1.144V105.376A1.149,1.149,0,0,1,61.762,104.23Z" transform="translate(-60.616 -104.23)" fill="#eceff1" fill-rule="evenodd"/>
                <path id="Trazado_996749" data-name="Trazado 996749" d="M306.3,104.993v5.457a.574.574,0,0,0,.573.573h5.457a1.149,1.149,0,0,0-.238-.336l-5.457-5.457A1.2,1.2,0,0,0,306.3,104.993Z" transform="translate(-274.609 -104.895)" fill="#a79ba7" fill-rule="evenodd"/>
                <path id="Trazado_996750" data-name="Trazado 996750" d="M61.762,104.23h1.144v49.022H61.762a1.147,1.147,0,0,1-1.146-1.144V105.376A1.149,1.149,0,0,1,61.762,104.23Z" transform="translate(-60.616 -104.23)" fill="#d1d1d6" fill-rule="evenodd"/>
              </g>
            </g>
            <g id="Grupo_1162656" data-name="Grupo 1162656" transform="translate(6.808 12.548)">
              <path id="Trazado_996751" data-name="Trazado 996751" d="M114.223,201.5h6.4a.837.837,0,0,1,.835.835v6.4a.837.837,0,0,1-.835.835h-6.4a.837.837,0,0,1-.835-.835v-6.4A.837.837,0,0,1,114.223,201.5Z" transform="translate(-113.388 -201.5)" fill="#8ac9fe" fill-rule="evenodd"/>
              <path id="Trazado_996752" data-name="Trazado 996752" d="M161.462,201.5h1.032a.837.837,0,0,1,.835.835v6.4a.837.837,0,0,1-.835.835h-1.032a.837.837,0,0,0,.835-.835v-6.4A.837.837,0,0,0,161.462,201.5Z" transform="translate(-155.26 -201.5)" fill="#60b7ff" fill-rule="evenodd"/>
            </g>
            <g id="Grupo_1162657" data-name="Grupo 1162657" transform="translate(6.808 24.066)">
              <path id="Trazado_996753" data-name="Trazado 996753" d="M114.223,290.779h6.4a.837.837,0,0,1,.835.835v6.4a.837.837,0,0,1-.835.835h-6.4a.837.837,0,0,1-.835-.835v-6.4A.837.837,0,0,1,114.223,290.779Z" transform="translate(-113.388 -290.779)" fill="#6cf5c2" fill-rule="evenodd"/>
              <path id="Trazado_996754" data-name="Trazado 996754" d="M161.462,290.779h1.032a.837.837,0,0,1,.835.835v6.4a.837.837,0,0,1-.835.835h-1.032a.837.837,0,0,0,.835-.835v-6.4A.837.837,0,0,0,161.462,290.779Z" transform="translate(-155.26 -290.779)" fill="#00e499" fill-rule="evenodd"/>
            </g>
            <g id="Grupo_1162658" data-name="Grupo 1162658" transform="translate(6.808 35.583)">
              <path id="Trazado_996755" data-name="Trazado 996755" d="M114.223,380.058h6.4a.839.839,0,0,1,.835.838v6.4a.837.837,0,0,1-.835.835h-6.4a.837.837,0,0,1-.835-.835v-6.4A.839.839,0,0,1,114.223,380.058Z" transform="translate(-113.388 -380.058)" fill="#ffe177" fill-rule="evenodd"/>
              <path id="Trazado_996756" data-name="Trazado 996756" d="M161.462,380.058h1.032a.839.839,0,0,1,.835.838v6.4a.837.837,0,0,1-.835.835h-1.032a.837.837,0,0,0,.835-.835v-6.4A.839.839,0,0,0,161.462,380.058Z" transform="translate(-155.26 -380.058)" fill="#ffd064" fill-rule="evenodd"/>
            </g>
          </g>
          <g id="Grupo_1162660" data-name="Grupo 1162660" transform="translate(22.426 34.313)">
            <path id="Trazado_996757" data-name="Trazado 996757" d="M246.943,326.73a12.487,12.487,0,1,0-12.487-12.487A12.512,12.512,0,0,0,246.943,326.73Z" transform="translate(-234.456 -299.033)" fill="#fe646f" fill-rule="evenodd"/>
            <path id="Trazado_996758" data-name="Trazado 996758" d="M325.537,301.757a12.487,12.487,0,1,1,0,24.973c-.285,0-.567-.01-.847-.029a12.487,12.487,0,0,0,0-24.916C324.97,301.767,325.252,301.757,325.537,301.757Z" transform="translate(-313.049 -299.033)" fill="#fd4755" fill-rule="evenodd"/>
            <path id="Trazado_996759" data-name="Trazado 996759" d="M277.075,352.4a8.024,8.024,0,1,0-8.024-8.025A8.04,8.04,0,0,0,277.075,352.4Z" transform="translate(-264.588 -329.165)" fill="#eceff1" fill-rule="evenodd"/>
            <path id="Trazado_996760" data-name="Trazado 996760" d="M277.075,336.352c.19,0,.378.006.565.019a8.024,8.024,0,0,0,0,16.009c-.187.013-.375.019-.565.019a8.024,8.024,0,1,1,0-16.047Z" transform="translate(-264.588 -329.165)" fill="#d1d1d6" fill-rule="evenodd"/>
            <path id="Trazado_996761" data-name="Trazado 996761" d="M307.207,378.068a3.561,3.561,0,1,0-3.562-3.562A3.568,3.568,0,0,0,307.207,378.068Z" transform="translate(-294.719 -359.296)" fill="#fe646f" fill-rule="evenodd"/>
            <path id="Trazado_996762" data-name="Trazado 996762" d="M307.207,370.946a3.561,3.561,0,1,0,0,7.122,3.472,3.472,0,0,0,.565-.045,3.561,3.561,0,0,1,0-7.032A3.465,3.465,0,0,0,307.207,370.946Z" transform="translate(-294.719 -359.296)" fill="#fd4755" fill-rule="evenodd"/>
            <path id="Trazado_996763" data-name="Trazado 996763" d="M386.446,285.4l-4.381,4.383a.551.551,0,0,1-.519.152L378,289.171l-.765-3.547a.549.549,0,0,1,.154-.519l4.381-4.381a.283.283,0,0,1,.475.141l.72,3.341,3.341.72a.282.282,0,0,1,.141.476Z" transform="translate(-358.803 -280.64)" fill="#e3a76f" fill-rule="evenodd"/>
            <path id="Trazado_996764" data-name="Trazado 996764" d="M390.353,313.488l-4.381,4.383a.551.551,0,0,1-.519.152l-3.547-.765-.2-.928,3.392.731a.554.554,0,0,0,.519-.154l4.018-4.019.578.125a.282.282,0,0,1,.141.476Z" transform="translate(-362.71 -308.728)" fill="#c48958" fill-rule="evenodd"/>
          </g>
          <g id="Grupo_1162661" data-name="Grupo 1162661" transform="translate(5.65)">
            <path id="Trazado_996765" data-name="Trazado 996765" d="M117.119,16.416a9.033,9.033,0,0,1,2.649,1.1l1.721-.764,2.028,2.028-.764,1.721a9.034,9.034,0,0,1,1.1,2.649l1.756.676v2.869l-1.756.676a9.04,9.04,0,0,1-1.1,2.647l.764,1.721-2.028,2.029L119.767,33a9.036,9.036,0,0,1-2.649,1.1l-.676,1.755h-2.869L112.9,34.1A9.041,9.041,0,0,1,110.25,33l-1.721.765L106.5,31.737l.765-1.72a9.065,9.065,0,0,1-1.1-2.649l-1.755-.676V23.824l1.755-.676a9.036,9.036,0,0,1,1.1-2.649l-.765-1.721,2.029-2.028,1.72.764a9.063,9.063,0,0,1,2.649-1.1l.676-1.756h2.869Z" transform="translate(-104.411 -14.66)" fill="#ffe177" fill-rule="evenodd"/>
            <path id="Trazado_996766" data-name="Trazado 996766" d="M146.981,17.007l.578-.257,2.028,2.028-.764,1.721a9.033,9.033,0,0,1,1.1,2.649l1.756.676v2.869l-1.756.676a9.04,9.04,0,0,1-1.1,2.647l.764,1.721-2.028,2.029-.578-.257,1.772-1.772-.765-1.721a9.041,9.041,0,0,0,1.1-2.647l1.756-.676V23.824l-1.756-.676a9.033,9.033,0,0,0-1.1-2.649l.765-1.721Zm-12.637,0,.257-.257,1.72.764c-.121.068-.242.138-.359.212Zm8.846-.591a9.033,9.033,0,0,1,2.649,1.1l-.474.212a11.82,11.82,0,0,0-3.009-1.309l-.676-1.756h.835ZM136.322,33l-1.721.765-.257-.257,1.617-.718Q136.138,32.9,136.322,33Zm9.517,0a9.036,9.036,0,0,1-2.649,1.1l-.676,1.755h-.835l.676-1.755a11.849,11.849,0,0,0,3.01-1.309Z" transform="translate(-130.483 -14.66)" fill="#ffd064" fill-rule="evenodd"/>
            <path id="Trazado_996767" data-name="Trazado 996767" d="M151.489,56.544a5.194,5.194,0,1,1-5.194,5.2A5.195,5.195,0,0,1,151.489,56.544Z" transform="translate(-140.892 -51.141)" fill="#eceff1" fill-rule="evenodd"/>
            <path id="Trazado_996768" data-name="Trazado 996768" d="M151.489,56.544c.118,0,.235,0,.352.013a5.194,5.194,0,0,0,0,10.365c-.117.007-.234.012-.352.012a5.194,5.194,0,0,1,0-10.389Z" transform="translate(-140.892 -51.141)" fill="#d1d1d6" fill-rule="evenodd"/>
          </g>
        </g>
        <path id="Trazado_996769" data-name="Trazado 996769" d="M82.536,69.611H53.611a1,1,0,0,1-1-1V19.591a1,1,0,0,1,1-1h4.614V17.2a1.032,1.032,0,0,1,.661-.963l1.267-.488a10.108,10.108,0,0,1,.8-1.938l-.552-1.241a1.032,1.032,0,0,1,.213-1.149l2.028-2.027A1.032,1.032,0,0,1,63.8,9.18l1.241.552a10.049,10.049,0,0,1,1.936-.8l.49-1.269A1.032,1.032,0,0,1,68.424,7h2.868a1.032,1.032,0,0,1,.963.662l.487,1.268a10.048,10.048,0,0,1,1.935.8l1.241-.552a1.032,1.032,0,0,1,1.149.213L79.1,11.421a1.032,1.032,0,0,1,.214,1.148l-.55,1.241a10.031,10.031,0,0,1,.8,1.939l1.265.487a1.032,1.032,0,0,1,.661.963v1.394h3.817a1,1,0,0,1,.706.292l6.13,6.13a1,1,0,0,1,.292.706v19.1a13.3,13.3,0,0,1,1.94.781l4.065-4.067a1.032,1.032,0,0,1,1.739.512l.423,1.963a1.032,1.032,0,0,1,1.453,1.453l1.963.423a1.032,1.032,0,0,1,.512,1.739L100.453,51.7A13.381,13.381,0,0,1,82.536,69.611ZM58.367,20.588H54.609V67.615H79.571a13.453,13.453,0,0,1-3.824-5.751h-2.16a1,1,0,0,1,0-2h1.655q-.112-.648-.16-1.316h-1.5a1,1,0,1,1,0-2h1.5a13.3,13.3,0,0,1,2.1-6.213H73.586a1,1,0,1,1,0-2h5.185a13.527,13.527,0,0,1,1.457-1.316H73.586a1,1,0,0,1,0-2H83.805a13.391,13.391,0,0,1,6.632-.678V26.718H85.306a1,1,0,0,1-1-1V20.588H81.347a1.03,1.03,0,0,1-.52.442l-1.266.487a10.133,10.133,0,0,1-.8,1.935l.55,1.242a1.032,1.032,0,0,1-.214,1.148L77.068,27.87a1.032,1.032,0,0,1-1.148.214l-1.241-.55a10.023,10.023,0,0,1-1.937.8L72.255,29.6a1.032,1.032,0,0,1-.963.661H68.424a1.032,1.032,0,0,1-.963-.661l-.487-1.265a10.117,10.117,0,0,1-1.938-.8l-1.242.55a1.032,1.032,0,0,1-1.148-.214l-2.028-2.028a1.032,1.032,0,0,1-.213-1.149l.551-1.24a10.1,10.1,0,0,1-.8-1.935l-1.267-.488a1.031,1.031,0,0,1-.52-.442Zm30.659,4.134L86.3,22v2.723Zm4.21,22.621a11.333,11.333,0,1,0,5.467,5.48l-.034-.007-3.113-.671a8.987,8.987,0,1,1-1.64-1.646l-.669-3.1C93.242,47.379,93.239,47.361,93.236,47.343Zm5.626-1.6-.3-1.408-3.176,3.178.3,1.406Zm-1.717,4.636,1.409.3,3.176-3.176-1.408-.3ZM92.55,52.053a6.92,6.92,0,1,0,1.455,1.464l-1.689,1.689a4.556,4.556,0,1,1-1.453-1.466ZM89.332,55.27a2.49,2.49,0,1,0,1.447,1.472l-1.6,1.6a1.032,1.032,0,1,1-1.46-1.46ZM71,10.161l-.421-1.1H69.132l-.424,1.1a1.032,1.032,0,0,1-.724.633,7.989,7.989,0,0,0-2.346.972,1.032,1.032,0,0,1-.961.064L63.6,11.354l-1.025,1.025.477,1.074a1.032,1.032,0,0,1-.064.961,8.059,8.059,0,0,0-.976,2.351,1.032,1.032,0,0,1-.633.722l-1.095.421v1.451l1.095.421a1.032,1.032,0,0,1,.633.722,8.038,8.038,0,0,0,.975,2.347,1.032,1.032,0,0,1,.065.962l-.477,1.073L63.6,25.91l1.074-.476a1.032,1.032,0,0,1,.957.064,8.05,8.05,0,0,0,2.35.973,1.033,1.033,0,0,1,.725.634l.421,1.095h1.451L71,27.1a1.032,1.032,0,0,1,.724-.633,7.95,7.95,0,0,0,2.344-.971,1.032,1.032,0,0,1,.961-.066l1.074.476,1.026-1.026-.476-1.074a1.032,1.032,0,0,1,.064-.957A8.066,8.066,0,0,0,77.7,20.5a1.032,1.032,0,0,1,.633-.724l1.095-.421V17.908l-1.095-.421a1.032,1.032,0,0,1-.634-.725,7.976,7.976,0,0,0-.972-2.348,1.032,1.032,0,0,1-.065-.959l.476-1.074-1.026-1.026-1.074.477a1.032,1.032,0,0,1-.961-.065,7.988,7.988,0,0,0-2.346-.972A1.032,1.032,0,0,1,71,10.161ZM69.857,12.6a6.036,6.036,0,1,1-6.034,6.034A6.035,6.035,0,0,1,69.857,12.6Zm0,2.064a3.972,3.972,0,1,0,3.973,3.97,3.969,3.969,0,0,0-3.973-3.97Zm-8.6,16.48h6.4a1.837,1.837,0,0,1,1.833,1.833v6.4a1.837,1.837,0,0,1-1.833,1.833h-6.4a1.837,1.837,0,0,1-1.833-1.833v-6.4A1.837,1.837,0,0,1,61.254,31.141Zm.163,2V39.21H67.49V33.137Zm.628,3.577a1,1,0,1,1,1.41-1.413l.619.618,1.3-1.612a1,1,0,0,1,1.552,1.255l-2,2.474a1,1,0,0,1-1.481.079Zm-.791,17.461h6.4a1.841,1.841,0,0,1,1.833,1.836v6.4a1.837,1.837,0,0,1-1.833,1.833h-6.4a1.837,1.837,0,0,1-1.833-1.833v-6.4A1.841,1.841,0,0,1,61.254,54.176Zm.163,2v6.075H67.49V56.172Zm.628,3.58a1,1,0,0,1,1.41-1.413l.619.618,1.3-1.612A1,1,0,0,1,66.93,58.6l-2,2.474a1,1,0,0,1-1.481.079ZM73.586,38.827a1,1,0,1,1,0-2h6.819a1,1,0,1,1,0,2ZM61.254,42.658h6.4a1.837,1.837,0,0,1,1.833,1.833v6.4a1.837,1.837,0,0,1-1.833,1.833h-6.4a1.837,1.837,0,0,1-1.833-1.833v-6.4A1.837,1.837,0,0,1,61.254,42.658Zm.163,2v6.073H67.49V44.654Zm.627,3.577a1,1,0,0,1,1.411-1.411l.619.619,1.3-1.611a1,1,0,0,1,1.552,1.255l-2,2.474a1,1,0,0,1-1.482.078ZM73.586,35.515a1,1,0,0,1,0-2H84.062a1,1,0,0,1,0,2Z" transform="translate(-52.613 -7)" fill-rule="evenodd"/>
      </g>
    </g>
  </g>
</svg>
