<svg xmlns="http://www.w3.org/2000/svg" xmlns:xlink="http://www.w3.org/1999/xlink" width="108" height="108" viewBox="0 0 108 108">
  <defs>
    <filter id="Trazado_982547" x="0" y="0" width="108" height="108" filterUnits="userSpaceOnUse">
      <feOffset dy="3" input="SourceAlpha"/>
      <feGaussianBlur stdDeviation="3" result="blur"/>
      <feFlood flood-opacity="0.161"/>
      <feComposite operator="in" in2="blur"/>
      <feComposite in="SourceGraphic"/>
    </filter>
  </defs>
  <g id="Grupo_1162667" data-name="Grupo 1162667" transform="translate(-161 -3180)">
    <g id="Grupo_1162010" data-name="Grupo 1162010" transform="translate(0 2872)">
      <g id="Grupo_1160759" data-name="Grupo 1160759" transform="translate(0 -8912)">
        <g id="Grupo_1155843" data-name="Grupo 1155843">
          <g id="Grupo_1154880" data-name="Grupo 1154880" transform="translate(0 7768)">
            <g id="Grupo_1153117" data-name="Grupo 1153117" transform="translate(-93 939)">
              <g id="Grupo_1149598" data-name="Grupo 1149598" transform="translate(80 315)">
                <g id="Grupo_1148770" data-name="Grupo 1148770" transform="translate(-27 -2583)">
                  <g id="Grupo_1146954" data-name="Grupo 1146954" transform="translate(-415 -1202)">
                    <g transform="matrix(1, 0, 0, 1, 616, 3983)" filter="url(#Trazado_982547)">
                      <g id="Trazado_982547-2" data-name="Trazado 982547" transform="translate(9 6)" fill="#f5fdfd">
                        <path d="M 45 88.5 C 39.12687683105469 88.5 33.43022537231445 87.35007476806641 28.06830024719238 85.08217620849609 C 22.88852500915527 82.89131164550781 18.23629951477051 79.75458526611328 14.2408504486084 75.75914764404297 C 10.24541282653809 71.76370239257812 7.108687400817871 67.11147308349609 4.917825222015381 61.93170166015625 C 2.649924993515015 56.56977462768555 1.5 50.87312316894531 1.5 45 C 1.5 39.12687683105469 2.649924993515015 33.43022537231445 4.917825222015381 28.06830024719238 C 7.108687400817871 22.88852500915527 10.24541282653809 18.23629951477051 14.2408504486084 14.2408504486084 C 18.23629951477051 10.24541282653809 22.88852500915527 7.108687400817871 28.06830024719238 4.917825222015381 C 33.43022537231445 2.649924993515015 39.12687683105469 1.5 45 1.5 C 50.87312316894531 1.5 56.56977462768555 2.649924993515015 61.93170166015625 4.917825222015381 C 67.11147308349609 7.108687400817871 71.76370239257812 10.24541282653809 75.75914764404297 14.2408504486084 C 79.75458526611328 18.23629951477051 82.89131164550781 22.88852500915527 85.08217620849609 28.06830024719238 C 87.35007476806641 33.43022537231445 88.5 39.12687683105469 88.5 45 C 88.5 50.87312316894531 87.35007476806641 56.56977462768555 85.08217620849609 61.93170166015625 C 82.89131164550781 67.11147308349609 79.75458526611328 71.76370239257812 75.75914764404297 75.75914764404297 C 71.76370239257812 79.75458526611328 67.11147308349609 82.89131164550781 61.93170166015625 85.08217620849609 C 56.56977462768555 87.35007476806641 50.87312316894531 88.5 45 88.5 Z" stroke="none"/>
                        <path d="M 45 3 C 39.32871246337891 3 33.82865524291992 4.110054016113281 28.65262985229492 6.299339294433594 C 23.65165710449219 8.414573669433594 19.15968322753906 11.44334411621094 15.301513671875 15.301513671875 C 11.44334411621094 19.15968322753906 8.414573669433594 23.65165710449219 6.299339294433594 28.65262985229492 C 4.110054016113281 33.82865524291992 3 39.32871246337891 3 45 C 3 50.67128753662109 4.110054016113281 56.17134475708008 6.299339294433594 61.34737396240234 C 8.414573669433594 66.34834289550781 11.44334411621094 70.84031677246094 15.301513671875 74.698486328125 C 19.15968322753906 78.55665588378906 23.65165710449219 81.58542633056641 28.65262985229492 83.70066070556641 C 33.82865524291992 85.88994598388672 39.32871246337891 87 45 87 C 50.67128753662109 87 56.17134475708008 85.88994598388672 61.34737396240234 83.70066070556641 C 66.34834289550781 81.58542633056641 70.84031677246094 78.55665588378906 74.698486328125 74.698486328125 C 78.55665588378906 70.84031677246094 81.58542633056641 66.34834289550781 83.70066070556641 61.34737396240234 C 85.88994598388672 56.17134475708008 87 50.67128753662109 87 45 C 87 39.32871246337891 85.88994598388672 33.82865524291992 83.70066070556641 28.65262985229492 C 81.58542633056641 23.65165710449219 78.55665588378906 19.15968322753906 74.698486328125 15.301513671875 C 70.84031677246094 11.44334411621094 66.34834289550781 8.414573669433594 61.34737396240234 6.299339294433594 C 56.17134475708008 4.110054016113281 50.67128753662109 3 45 3 M 45 0 C 69.85281372070312 0 90 20.14718627929688 90 45 C 90 69.85281372070312 69.85281372070312 90 45 90 C 20.14718627929688 90 0 69.85281372070312 0 45 C 0 20.14718627929688 20.14718627929688 0 45 0 Z" stroke="none" fill="#598384"/>
                      </g>
                    </g>
                  </g>
                </g>
              </g>
            </g>
          </g>
        </g>
      </g>
    </g>
    <g id="objetivo_3_" data-name="objetivo (3)" transform="translate(186 3202)">
      <circle id="Elipse_12410" data-name="Elipse 12410" cx="4.304" cy="4.304" r="4.304" transform="translate(13.868 18.171)" fill="#ffd681"/>
      <path id="Trazado_996770" data-name="Trazado 996770" d="M119.529,252.529H107v-6.264A6.264,6.264,0,0,1,113.264,240h0a6.264,6.264,0,0,1,6.264,6.264Z" transform="translate(-95.031 -213.153)" fill="#00e7ff"/>
      <path id="Trazado_996771" data-name="Trazado 996771" d="M149.678,240h0a6.267,6.267,0,0,0-1.678.229,6.266,6.266,0,0,1,4.586,6.035v6.264h3.356v-6.264A6.264,6.264,0,0,0,149.678,240Z" transform="translate(-131.444 -213.153)" fill="#00cae1"/>
      <circle id="Elipse_12411" data-name="Elipse 12411" cx="4.304" cy="4.304" r="4.304" transform="translate(34.908 18.171)" fill="#ffd681"/>
      <path id="Trazado_996772" data-name="Trazado 996772" d="M305.529,252.529H293v-6.264A6.264,6.264,0,0,1,299.264,240h0a6.264,6.264,0,0,1,6.264,6.264Z" transform="translate(-260.224 -213.153)" fill="#00e7ff"/>
      <path id="Trazado_996773" data-name="Trazado 996773" d="M335.678,240h0a6.267,6.267,0,0,0-1.678.229,6.266,6.266,0,0,1,4.586,6.035v6.264h3.356v-6.264A6.264,6.264,0,0,0,335.678,240Z" transform="translate(-296.638 -213.153)" fill="#00cae1"/>
      <circle id="Elipse_12412" data-name="Elipse 12412" cx="5.313" cy="5.313" r="5.313" transform="translate(23.323 14.364)" fill="#ffd681"/>
      <path id="Trazado_996774" data-name="Trazado 996774" d="M193.9,241.311H176v-8.949a8.949,8.949,0,0,1,8.949-8.949h0a8.949,8.949,0,0,1,8.949,8.949Z" transform="translate(-156.312 -198.422)" fill="#0087d5"/>
      <path id="Trazado_996775" data-name="Trazado 996775" d="M242.678,223.413h0a8.983,8.983,0,0,0-1.678.159,8.95,8.95,0,0,1,7.271,8.79v8.949h3.356v-8.949A8.949,8.949,0,0,0,242.678,223.413Z" transform="translate(-214.041 -198.422)" fill="#006ecb"/>
      <g id="Grupo_1162665" data-name="Grupo 1162665" transform="translate(0.839 5.369)">
        <path id="Trazado_996776" data-name="Trazado 996776" d="M9.178,57.62A1.678,1.678,0,0,1,7.5,55.942V51.356A3.36,3.36,0,0,1,10.856,48h4.586a1.678,1.678,0,0,1,0,3.356H10.856v4.586A1.678,1.678,0,0,1,9.178,57.62Z" transform="translate(-7.5 -48)" fill="#ff5a51"/>
        <path id="Trazado_996777" data-name="Trazado 996777" d="M426.442,57.62a1.678,1.678,0,0,0,1.678-1.678V51.356A3.36,3.36,0,0,0,424.764,48h-4.586a1.678,1.678,0,1,0,0,3.356h4.586v4.586A1.678,1.678,0,0,0,426.442,57.62Z" transform="translate(-372.525 -48)" fill="#ff5a51"/>
        <path id="Trazado_996778" data-name="Trazado 996778" d="M426.442,378a1.678,1.678,0,0,1,1.678,1.678v4.586a3.36,3.36,0,0,1-3.356,3.356h-4.586a1.678,1.678,0,1,1,0-3.356h4.586v-4.586A1.678,1.678,0,0,1,426.442,378Z" transform="translate(-372.525 -341.085)" fill="#ff5a51"/>
        <path id="Trazado_996779" data-name="Trazado 996779" d="M9.178,378A1.678,1.678,0,0,0,7.5,379.678v4.586a3.36,3.36,0,0,0,3.356,3.356h4.586a1.678,1.678,0,0,0,0-3.356H10.856v-4.586A1.678,1.678,0,0,0,9.178,378Z" transform="translate(-7.5 -341.085)" fill="#ff5a51"/>
      </g>
      <g id="Grupo_1162666" data-name="Grupo 1162666" transform="translate(0.839 0.839)">
        <path id="Trazado_996780" data-name="Trazado 996780" d="M242.678,15.33A1.678,1.678,0,0,1,241,13.652V9.178a1.678,1.678,0,1,1,3.356,0v4.474A1.678,1.678,0,0,1,242.678,15.33Z" transform="translate(-214.88 -7.5)" fill="#ff7b48"/>
        <path id="Trazado_996781" data-name="Trazado 996781" d="M242.678,442.33A1.678,1.678,0,0,1,241,440.652v-4.474a1.678,1.678,0,1,1,3.356,0v4.474A1.678,1.678,0,0,1,242.678,442.33Z" transform="translate(-214.88 -386.735)" fill="#ff7b48"/>
        <path id="Trazado_996782" data-name="Trazado 996782" d="M434.5,242.678A1.678,1.678,0,0,1,436.178,241h4.474a1.678,1.678,0,0,1,0,3.356h-4.474A1.678,1.678,0,0,1,434.5,242.678Z" transform="translate(-386.735 -214.88)" fill="#ff7b48"/>
        <path id="Trazado_996783" data-name="Trazado 996783" d="M7.5,242.678A1.678,1.678,0,0,1,9.178,241h4.474a1.678,1.678,0,1,1,0,3.356H9.178A1.678,1.678,0,0,1,7.5,242.678Z" transform="translate(-7.5 -214.88)" fill="#ff7b48"/>
      </g>
      <path id="Trazado_996784" data-name="Trazado 996784" d="M134.513,144.973a.839.839,0,1,0-1.678,0v.951h-6.041v-4.6a9.735,9.735,0,0,0-1.82-5.678,5.426,5.426,0,0,1,7.861,4.849v.895a.839.839,0,0,0,1.678,0V140.5a7.119,7.119,0,0,0-4.073-6.428,5.088,5.088,0,1,0-7.284-6.876c0-.043,0-.085,0-.129a6.152,6.152,0,1,0-12.3,0c0,.043,0,.086,0,.129a5.088,5.088,0,1,0-7.281,6.878,7.07,7.07,0,0,0-.7.377.839.839,0,1,0,.881,1.428,5.433,5.433,0,0,1,5.278-.228,9.735,9.735,0,0,0-1.82,5.678v4.6h-6.041V140.5a5.374,5.374,0,0,1,.536-2.355.839.839,0,0,0-1.511-.729,7.039,7.039,0,0,0-.7,3.084v6.264a.839.839,0,0,0,.839.839h6.88v2.675a.839.839,0,0,0,.839.839h1.79a.839.839,0,0,0,0-1.678H108.9v-8.11a8.11,8.11,0,0,1,16.22,0v8.11H113.446a.839.839,0,1,0,0,1.678h12.51a.839.839,0,0,0,.839-.839V147.6h6.88a.839.839,0,0,0,.839-.839Zm-7.1-18.4A3.412,3.412,0,1,1,124,129.984,3.416,3.416,0,0,1,127.41,126.572Zm-10.4-3.981a4.474,4.474,0,1,1-4.474,4.475A4.48,4.48,0,0,1,117.006,122.591Zm-13.815,7.393A3.412,3.412,0,1,1,106.6,133.4,3.416,3.416,0,0,1,103.191,129.984Zm6.962,4.363q-.256-.148-.523-.275a5.086,5.086,0,0,0,2.058-3.918,6.2,6.2,0,0,0,1.878,2.011A9.814,9.814,0,0,0,110.154,134.346Zm10.292-2.182a6.2,6.2,0,0,0,1.878-2.011,5.085,5.085,0,0,0,2.058,3.918q-.266.126-.522.275A9.814,9.814,0,0,0,120.446,132.164Z" transform="translate(-88.37 -107.387)"/>
      <path id="Trazado_996785" data-name="Trazado 996785" d="M2.517,51.8a2.52,2.52,0,0,0,2.517-2.517V45.534H8.781a2.517,2.517,0,0,0,0-5.034H4.195A4.2,4.2,0,0,0,0,44.695v4.586A2.52,2.52,0,0,0,2.517,51.8Zm-.839-7.1a2.52,2.52,0,0,1,2.517-2.517H8.781a.839.839,0,1,1,0,1.678H4.195a.839.839,0,0,0-.839.839v4.586a.839.839,0,0,1-1.678,0Z" transform="translate(0 -35.97)"/>
      <path id="Trazado_996786" data-name="Trazado 996786" d="M418.1,40.5h-4.586a2.517,2.517,0,1,0,0,5.034h3.747v3.747a2.517,2.517,0,1,0,5.034,0V44.695A4.2,4.2,0,0,0,418.1,40.5Zm2.517,8.781a.839.839,0,1,1-1.678,0V44.695a.839.839,0,0,0-.839-.839h-4.586a.839.839,0,1,1,0-1.678H418.1a2.52,2.52,0,0,1,2.517,2.517Z" transform="translate(-365.025 -35.97)"/>
      <path id="Trazado_996787" data-name="Trazado 996787" d="M419.781,370.5a2.52,2.52,0,0,0-2.517,2.517v3.747h-3.747a2.517,2.517,0,1,0,0,5.034H418.1A4.2,4.2,0,0,0,422.3,377.6v-4.586A2.52,2.52,0,0,0,419.781,370.5Zm.839,7.1a2.52,2.52,0,0,1-2.517,2.517h-4.586a.839.839,0,1,1,0-1.678H418.1a.839.839,0,0,0,.839-.839v-4.586a.839.839,0,1,1,1.678,0Z" transform="translate(-365.025 -329.055)"/>
      <path id="Trazado_996788" data-name="Trazado 996788" d="M8.781,376.764H5.034v-3.747a2.517,2.517,0,1,0-5.034,0V377.6A4.2,4.2,0,0,0,4.195,381.8H8.781a2.517,2.517,0,1,0,0-5.034Zm0,3.356H4.195A2.52,2.52,0,0,1,1.678,377.6v-4.586a.839.839,0,0,1,1.678,0V377.6a.839.839,0,0,0,.839.839H8.781a.839.839,0,1,1,0,1.678Z" transform="translate(0 -329.055)"/>
      <path id="Trazado_996789" data-name="Trazado 996789" d="M236.017,9.508a2.52,2.52,0,0,0,2.517-2.517V2.517a2.517,2.517,0,0,0-5.034,0V6.991A2.52,2.52,0,0,0,236.017,9.508Zm-.839-6.991a.839.839,0,1,1,1.678,0V6.991a.839.839,0,1,1-1.678,0Z" transform="translate(-207.38)"/>
      <path id="Trazado_996790" data-name="Trazado 996790" d="M236.017,427a2.52,2.52,0,0,0-2.517,2.517v4.474a2.517,2.517,0,0,0,5.034,0v-4.474A2.52,2.52,0,0,0,236.017,427Zm.839,6.991a.839.839,0,1,1-1.678,0v-4.474a.839.839,0,1,1,1.678,0Z" transform="translate(-207.38 -379.235)"/>
      <path id="Trazado_996791" data-name="Trazado 996791" d="M433.991,233.5h-4.474a2.517,2.517,0,1,0,0,5.034h4.474a2.517,2.517,0,0,0,0-5.034Zm0,3.356h-4.474a.839.839,0,1,1,0-1.678h4.474a.839.839,0,0,1,0,1.678Z" transform="translate(-379.235 -207.38)"/>
      <path id="Trazado_996792" data-name="Trazado 996792" d="M2.517,238.534H6.991a2.517,2.517,0,0,0,0-5.034H2.517a2.517,2.517,0,0,0,0,5.034Zm0-3.356H6.991a.839.839,0,1,1,0,1.678H2.517a.839.839,0,1,1,0-1.678Z" transform="translate(0 -207.38)"/>
      <path id="Trazado_996793" data-name="Trazado 996793" d="M218.062,285.38c.025,0,.051,0,.076,0a.839.839,0,0,0,.613-.357l4.193-6.041a.839.839,0,1,0-1.378-.957l-3.623,5.219L214.681,280a.839.839,0,1,0-1.183,1.19l3.973,3.948A.838.838,0,0,0,218.062,285.38Z" transform="translate(-189.396 -246.601)"/>
    </g>
  </g>
</svg>
